<svg version="1.1" id="Layer_1" xmlns="http://www.w3.org/2000/svg" x="0" y="0" viewBox="0 0 300 300" xml:space="preserve" enable-background="new 0 0 300 300"><style>.st1{fill-rule:evenodd;clip-rule:evenodd;fill:#d9e2f4}.st2{fill:#96aee5}.st3{fill-rule:evenodd;clip-rule:evenodd;fill:#fff}</style><switch><g><linearGradient id="SVGID_1_" gradientUnits="userSpaceOnUse" x1="258.675" y1="273.419" x2="183.582" y2="232.547"><stop offset=".08" stop-color="#fff" stop-opacity="0"/><stop offset=".392" stop-color="#ebeff9" stop-opacity=".339"/><stop offset=".71" stop-color="#dde5f5" stop-opacity=".685"/><stop offset="1" stop-color="#d9e2f4"/></linearGradient><path opacity=".739" fill="url(#SVGID_1_)" d="M147 253l90 43 59-42.63L216 212z"/><g id="Group-122"><g id="Path-68"><path class="st1" d="M147.9 252.43v-79.47l-69.47-39.47v78.97z"/><path class="st2" d="M147.9 253.37c-.16 0-.32-.04-.47-.12l-69.47-39.98a.945.945 0 01-.47-.81v-78.97c0-.33.18-.64.47-.81.29-.17.64-.17.93 0l69.47 39.47c.29.17.47.48.47.81v79.47c0 .34-.18.64-.47.81-.13.09-.3.13-.46.13zm-68.53-41.46l67.59 38.9V173.5l-67.59-38.4v76.81z"/></g><path class="st3" d="M147.9 252.43v-79.47l69.47-39.47v78.97z"/><path class="st2" d="M147.9 253.37c-.16 0-.32-.04-.47-.13a.945.945 0 01-.47-.81v-79.47c0-.34.18-.65.47-.81l69.47-39.47a.98.98 0 01.94 0c.29.17.47.48.47.81v78.97c0 .34-.18.64-.47.81l-69.47 39.98c-.15.08-.31.12-.47.12zm.94-79.86v77.31l67.59-38.9V135.1l-67.59 38.41z"/><g id="Path-70" transform="translate(12.47 24.995)"><g id="Path-69"><path class="st3" d="M65.96 108.49l69.47-40.61 69.47 40.61-69.47 39.47z"/><path class="st2" d="M135.43 148.9a.93.93 0 01-.46-.12L65.5 109.31c-.29-.17-.47-.47-.47-.81s.17-.65.46-.81l69.47-40.62c.29-.17.65-.17.95 0l69.47 40.62c.29.17.47.48.47.81s-.18.64-.47.81l-69.47 39.47c-.16.08-.32.12-.48.12zm-67.59-40.42l67.59 38.4 67.59-38.4-67.59-39.52-67.59 39.52z"/></g><defs><filter id="Adobe_OpacityMaskFilter" filterUnits="userSpaceOnUse" x="135.39" y="67.88" width="69.51" height="80.09"><feColorMatrix values="1 0 0 0 0 0 1 0 0 0 0 0 1 0 0 0 0 0 1 0"/></filter></defs><mask maskUnits="userSpaceOnUse" x="135.39" y="67.88" width="69.51" height="80.09" id="mask-3_1_"><g filter="url(#Adobe_OpacityMaskFilter)"><path id="path-2_1_" class="st3" d="M65.96 108.49l69.47-40.61 69.47 40.61-69.47 39.47z"/></g></mask><g id="Path-71" opacity=".15" mask="url(#mask-3_1_)"><path fill-rule="evenodd" clip-rule="evenodd" fill="#2951c1" d="M135.43 67.88l-.04 80.08 69.51-39.47z"/></g></g><g id="Group-120" transform="translate(.093 6.369)"><g id="Path-72"><path class="st3" d="M78.34 127.12L55.13 91.81l69.37-40.24 23.35 35.47z"/><path class="st2" d="M78.34 128.06c-.31 0-.61-.15-.78-.42L54.35 92.33a.944.944 0 01.31-1.33l69.37-40.24c.43-.25.98-.12 1.25.3l23.35 35.47a.944.944 0 01-.31 1.33l-69.51 40.08c-.15.08-.31.12-.47.12zM56.46 92.12l22.18 33.74 67.88-39.14-22.31-33.9-67.75 39.3z"/></g><path class="st1" d="M217.36 127.12l23.21-35.31-69.37-40.24-23.35 35.47z"/><path class="st2" d="M217.36 128.06c-.16 0-.32-.04-.47-.13l-69.51-40.08a.935.935 0 01-.44-.6.937.937 0 01.13-.73l23.35-35.47c.27-.42.82-.54 1.25-.3L241.04 91a.944.944 0 01.31 1.33l-23.21 35.31c-.17.27-.47.42-.78.42zm-68.18-41.33l67.88 39.14 22.18-33.74-67.75-39.3-22.31 33.9z"/></g><g id="Group-121" transform="translate(9.873)"><g id="Group-93" transform="scale(-1 1) rotate(30 -35.202 -41.937)"><path d="M-14.91 92c12.39.35 22.33 10.51 22.33 22.98 0 7.99-6.83 20.89-20.49 38.7a3.147 3.147 0 01-2.74 1.22l-5.83.04.01-6.04c-11.27-15.35-16.9-26.66-16.9-33.91 0-10.62 7.21-19.57 17.01-22.19v-.78h6.61z" fill-rule="evenodd" clip-rule="evenodd" fill="#515abb" id="Combined-Shape"/><path d="M-19.7 153.68C-6.04 135.87.79 122.97.79 114.98.79 102.29-9.5 92-22.19 92c-12.69 0-22.98 10.29-22.98 22.98 0 7.99 6.83 20.89 20.49 38.7a3.146 3.146 0 004.4.58c.21-.17.41-.36.58-.58z" fill-rule="evenodd" clip-rule="evenodd" fill="#262d80"/><circle cx="-21.53" cy="113.39" r="9.7" fill-rule="evenodd" clip-rule="evenodd" fill="#5963c9" id="Oval"/></g><path d="M-76.51 46c15.49.44 27.91 13.13 27.91 28.72 0 10.11-8.75 26.5-26.24 49.19-.16.21-.36.4-.57.57-.72.56-1.61.75-2.44.61h-7.1l.02-7.98C-99 97.92-106.04 83.8-106.04 74.73c0-13.28 9.02-24.46 21.26-27.74v-.98h8.27z" fill-rule="evenodd" clip-rule="evenodd" fill="#5077ff" transform="matrix(-1 0 0 1 56.92 0)"/><path d="M-82.3 123.91c17.49-22.68 26.24-39.08 26.24-49.19C-56.06 58.86-68.92 46-84.78 46s-28.72 12.86-28.72 28.72c0 10.11 8.75 26.5 26.24 49.19a3.138 3.138 0 004.4.57c.2-.17.4-.36.56-.57z" fill-rule="evenodd" clip-rule="evenodd" fill="#2751e3" transform="matrix(-1 0 0 1 56.92 0)"/><circle cx="-84.78" cy="72.73" r="12.12" fill-rule="evenodd" clip-rule="evenodd" fill="#5e82ff" transform="matrix(-1 0 0 1 56.92 0)"/><g><path d="M-119.01-6.27c12.39.35 22.33 10.51 22.33 22.98 0 7.99-6.83 20.89-20.49 38.7a3.146 3.146 0 01-2.38 1.23v.01l-6.01-.01-.01-5.79c-11.38-15.47-17.07-26.85-17.07-34.14 0-10.63 7.21-19.57 17.01-22.19v-.78l6.62-.01z" fill-rule="evenodd" clip-rule="evenodd" fill="#42cbf7" transform="scale(-1 1) rotate(-30 10.908 162.36)"/><path d="M-123.79 55.4c13.66-17.81 20.49-30.71 20.49-38.7 0-12.69-10.29-22.98-22.98-22.98-12.69 0-22.98 10.29-22.98 22.98 0 7.99 6.83 20.89 20.49 38.7a3.146 3.146 0 004.4.58c.22-.16.42-.36.58-.58z" fill-rule="evenodd" clip-rule="evenodd" fill="#13a3d1" transform="scale(-1 1) rotate(-30 10.908 162.36)"/><circle cx="-125.63" cy="15.11" r="9.7" fill-rule="evenodd" clip-rule="evenodd" fill="#51d4fe" transform="scale(-1 1) rotate(-30 10.908 162.36)"/></g></g><g id="Path-73"><path class="st3" d="M217.37 133.49l23.3 34.48-66.7 39.09-26.11-34.1z"/><path class="st2" d="M173.97 208c-.28 0-.56-.13-.75-.37l-26.11-34.1a.938.938 0 01-.17-.76c.05-.27.22-.49.46-.63l69.51-39.47c.43-.24.97-.12 1.24.29l23.3 34.48c.14.21.2.48.14.73a.96.96 0 01-.44.6l-66.7 39.1c-.16.09-.32.13-.48.13zm-24.71-34.76l24.95 32.59 65.12-38.17-22.25-32.93-67.82 38.51z"/></g><g><path class="st3" d="M78.35 133.49l-23.3 34.48 67.66 40.5 25.15-35.51z"/><path class="st2" d="M122.71 209.41c-.16 0-.33-.04-.48-.13l-67.66-40.51a.912.912 0 01-.43-.6.909.909 0 01.14-.73l23.3-34.48c.27-.41.81-.53 1.24-.29l69.51 39.47c.23.13.39.35.45.61s0 .53-.15.75l-25.15 35.51c-.19.26-.48.4-.77.4zm-66.33-41.74l66.07 39.55 24.05-33.96-67.86-38.53-22.26 32.94z"/></g></g></g></switch></svg>