<svg xmlns="http://www.w3.org/2000/svg" xmlns:xlink="http://www.w3.org/1999/xlink" viewBox="0 0 299 299"><defs><linearGradient id="Безымянный_градиент_5" x1=".49" y1="8.83" x2="-.32" y2="8.8" gradientTransform="matrix(-67.41 0 0 14.33 68.41 100.48)" gradientUnits="userSpaceOnUse"><stop offset="0" stop-color="#fff"/><stop offset=".45" stop-color="#b6c7ed"/><stop offset="1" stop-color="#96aee5"/></linearGradient><linearGradient id="Безымянный_градиент_3" x1="-2.25" y1="3.24" x2="-1.36" y2="3.54" gradientTransform="matrix(-46.48 0 0 26.85 157.75 42.32)" gradientUnits="userSpaceOnUse"><stop offset="0" stop-color="#fff"/><stop offset=".49" stop-color="#b6c7ed"/><stop offset="1" stop-color="#96aee5"/></linearGradient><linearGradient id="Безымянный_градиент_3-2" x1=".47" y1="3.24" x2="1.36" y2="3.54" gradientTransform="matrix(46.48 0 0 26.85 3.27 42.32)" xlink:href="#Безымянный_градиент_3"/><linearGradient id="Безымянный_градиент_2" x1="2.77" y1="298.68" x2="2.2" y2="299.13" gradientTransform="matrix(111.01 0 0 -63.01 -81.52 19073.26)" gradientUnits="userSpaceOnUse"><stop offset="0" stop-color="#fff"/><stop offset="1" stop-color="#d9e2f4"/></linearGradient><linearGradient id="Безымянный_градиент_5-2" x1="2.41" y1="9" x2="1.72" y2="8.98" gradientTransform="matrix(67.41 0 0 14.33 91 100.48)" xlink:href="#Безымянный_градиент_5"/><style>.cls-5{fill:#cdd7ed}.cls-6{fill:#fff}.cls-7{fill:none;stroke:#96aee5;stroke-width:1.23px}.cls-8{fill:#d0dcf3}.cls-9{fill:#5077ff}.cls-10{fill:#466fff}.cls-11{fill:#373f97}</style></defs><g id="Слой_2" data-name="Слой 2"><g id="Layer_2" data-name="Layer 2"><g id="Слой_2-2" data-name="Слой 2"><g id="Слой_1-2" data-name="Слой 1-2"><path d="M1.08 240.78a1.08 1.08 0 01-.54-2l31-17.85a19 19 0 0119.32.17L71 233.2a16.83 16.83 0 0017.45 0l33.17-20.11a1.07 1.07 0 111.11 1.84L89.49 235a19 19 0 01-19.67 0L49.7 222.94a16.89 16.89 0 00-17.13-.16L1.62 240.64a1.14 1.14 0 01-.54.14z" fill="url(#Безымянный_градиент_5)" id="Path-60"/><path d="M199.06 158.66a1.08 1.08 0 01-.54-2L282 108.44a1.08 1.08 0 011 1.86l-83.4 48.21a1 1 0 01-.54.15z" fill="url(#Безымянный_градиент_3)" id="Path-61"/><path d="M88.59 158.66a1 1 0 01-.53-.15L4.61 110.3a1.08 1.08 0 011.08-1.86l83.44 48.21a1.09 1.09 0 01.36 1.49 1.1 1.1 0 01-.9.51z" fill="url(#Безымянный_градиент_3-2)"/><g id="Слой_2-2-2" data-name="Слой 2-2"><g id="Layer_2-2" data-name="Layer 2"><path id="Path-15" fill="url(#Безымянный_градиент_2)" d="M132.51 242.03L209.12 287l68.47-41.21-71.81-42.46-73.27 38.7z"/><path class="cls-5" d="M138.53 244.26l-65.91-37.8-.88-126.38 66.79 37.69v126.49z"/><path id="Path-49" class="cls-6" d="M138.53 116.42l.6 126.99 5.46-1.5 61.08-34.19 1.85-3.63.24-122.83-69.23 35.16z"/><path class="cls-7" d="M207.39 75.52H71.76v127.29a6.37 6.37 0 003.24 6l58.33 33.28a11.84 11.84 0 0011.26-.15l59.77-33.28a6.42 6.42 0 003-5.64z"/><path class="cls-6" d="M141.88 116.78l-7.36-.45-10-5.57-51.91-30.61v-6.46l19.65-12.38 42.35-22.69 7.5-2.05 17.2 9.09 30.38 16.66 10.78 17.95-16.91 14.2-41.68 22.31z"/><path id="Combined-Shape" class="cls-5" d="M208.77 116.39q16.11-38.48 12.33-52.63A27.51 27.51 0 00168 78q3.78 14.14 37 39.41a2.52 2.52 0 003.52-.48 2.65 2.65 0 00.25-.54z"/><path id="Path-25" class="cls-8" d="M190.73 138.48v5.05l-38.06 21.95v-5.04l38.06-21.96z"/><path id="Path-25-2" class="cls-9" d="M173.04 135.34v4.89l-20.37 11.75.08-4.94 20.29-11.7z"/><path id="Path-25-3" class="cls-8" d="M190.73 150.94v5.27l-38.06 21.95v-5.27l38.06-21.95z"/><path id="Fill-1" class="cls-10" d="M104.05 121.84c7.56 4.37 13.67 15 13.65 23.65s-6.18 12.2-13.74 7.83-13.67-14.95-13.65-23.64 6.17-12.2 13.74-7.84"/><path id="Path-47" class="cls-10" d="M106.74 134.06V226l-3.65-2.17v-89.77h3.65z"/><path id="Fill-1-2" class="cls-6" d="M104 131.06a12.46 12.46 0 015.66 9.8c0 3.6-2.56 5.06-5.7 3.25a12.51 12.51 0 01-5.65-9.81c0-3.6 2.56-5.05 5.69-3.24"/><path class="cls-7" d="M74.89 71.41A6.41 6.41 0 0075 82.47l58 33.13a11.87 11.87 0 0011.66.07l59.57-33.17a6.4 6.4 0 002.48-8.69 6.44 6.44 0 00-2.42-2.44l-59.51-34c-2-1.12-4.09-2-16.77 4.3-9.63 4.74-25.66 13.64-53.12 29.74z"/><path id="Path" class="cls-11" d="M134.16 55.26l38.07 21.73-4.97 2.93-37.73-21.8 4.63-2.86z"/><path id="Path-2-3" class="cls-11" d="M108.32 71.41l38.06 21.73-4.96 2.93-37.73-21.8 4.63-2.86z"/><path id="Path-3" class="cls-11" d="M121.24 63.33l38.07 21.73-4.97 2.93-37.73-21.8 4.63-2.86z"/><path id="Combined-Shape-3" d="M209.59 41.63a27.2 27.2 0 00-29 25.31c0 .69-.06 1.39-.06 2.09q0 14.64 25.54 47.63a2.45 2.45 0 00.45.46 2.49 2.49 0 002 .47h6.64v-7.76Q235.64 82.1 235.62 69a27.52 27.52 0 00-20.37-26.58l2.47-.36z" fill="#3157d8"/><path id="Combined-Shape-4" class="cls-9" d="M213.27 116.66q-25.49-33-25.49-47.63a27.52 27.52 0 0155 0q0 14.64-25.49 47.63a2.61 2.61 0 01-3.67.35 2.89 2.89 0 01-.35-.35z"/><circle id="Oval" class="cls-6" cx="215.25" cy="67.12" r="11.62"/><path id="Path-48" class="cls-11" d="M151 197.8v21.4a1.83 1.83 0 002.72 1.6L193 198.87a3.67 3.67 0 001.87-3.19v-21.55a1.81 1.81 0 00-1.82-1.82 1.81 1.81 0 00-.88.23l-39.24 22.08a3.64 3.64 0 00-1.93 3.18z"/><path id="Path-64" class="cls-7" d="M138.53 117.77v125.37"/><path fill="none" d="M0 0h299v299H0z"/></g></g><path d="M283.69 240.78a1.14 1.14 0 01-.54-.14l-30.95-17.86a16.89 16.89 0 00-17.13.16L215 235a19 19 0 01-19.67 0l-18-10.87c-.51-.31.26-.31.57-.82s.82-.87 1.33-.55l17.19 10.4a16.77 16.77 0 0017.44 0L234 221.09a19 19 0 0119.32-.17l31 17.85a1.09 1.09 0 01.36 1.49 1.1 1.1 0 01-.9.51z" fill="url(#Безымянный_градиент_5-2)"/></g></g></g></g></svg>