<svg version="1.1" id="Layer_2" xmlns="http://www.w3.org/2000/svg" x="0" y="0" viewBox="0 0 300 300" xml:space="preserve"><style>.st5{fill-rule:evenodd;clip-rule:evenodd;fill:#d9e2f4}.st6{fill:#96aee5}.st7{fill-rule:evenodd;clip-rule:evenodd;fill:#fff}</style><switch><g><linearGradient id="SVGID_1_" gradientUnits="userSpaceOnUse" x1="234.132" y1="251.553" x2="176.641" y2="191.601"><stop offset="0" stop-color="#fff" stop-opacity="0"/><stop offset=".127" stop-color="#f1f4fb" stop-opacity=".127"/><stop offset=".321" stop-color="#e3eaf7" stop-opacity=".321"/><stop offset=".563" stop-color="#dbe4f5" stop-opacity=".563"/><stop offset="1" stop-color="#d9e2f4"/></linearGradient><path fill-rule="evenodd" clip-rule="evenodd" fill="url(#SVGID_1_)" d="M192.17 179.83l-73.12 36.88 94.03 52.36 76.47-44.89z"/><g id="Path-60"><linearGradient id="SVGID_2_" gradientUnits="userSpaceOnUse" x1="1.418" y1="292.103" x2=".697" y2="292.129" gradientTransform="matrix(-67.4089 0 0 -14.3335 136.563 4409.814)"><stop offset="0" stop-color="#fff"/><stop offset=".453" stop-color="#b6c7ed"/><stop offset="1" stop-color="#96aee5"/></linearGradient><path d="M10.11 235.23c-.33 0-.66-.17-.83-.48a.952.952 0 01.35-1.31l27.62-15.93a17 17 0 0117.24.16l17.95 10.8a15.02 15.02 0 0015.57-.03l29.6-17.95a.961.961 0 011 1.64l-29.6 17.95a16.943 16.943 0 01-17.56.03l-17.95-10.8a15.059 15.059 0 00-15.29-.14L10.59 235.1c-.15.09-.32.13-.48.13z" fill="url(#SVGID_2_)"/></g><g id="Path-61"><linearGradient id="SVGID_3_" gradientUnits="userSpaceOnUse" x1="1.641" y1="297.939" x2="2.437" y2="297.671" gradientTransform="matrix(46.4758 0 0 -26.8538 -38.207 8093.171)"><stop offset="0" stop-color="#fff"/><stop offset=".491" stop-color="#b6c7ed"/><stop offset="1" stop-color="#96aee5"/></linearGradient><path d="M95.02 118.68c-.16 0-.33-.04-.48-.13L20.08 75.53a.954.954 0 01-.35-1.31c.27-.46.85-.62 1.31-.35l74.46 43.02c.46.27.62.85.35 1.31-.17.31-.5.48-.83.48z" fill="url(#SVGID_3_)"/></g><linearGradient id="SVGID_4_" gradientUnits="userSpaceOnUse" x1="-.89" y1="297.715" x2="-.094" y2="297.447" gradientTransform="matrix(-46.4758 0 0 -26.8538 209.22 8103.171)"><stop offset="0" stop-color="#fff"/><stop offset=".491" stop-color="#b6c7ed"/><stop offset="1" stop-color="#96aee5"/></linearGradient><path d="M193.6 134.71c-.33 0-.66-.17-.83-.48a.952.952 0 01.35-1.31l74.46-43.02a.952.952 0 011.31.35c.27.46.11 1.05-.35 1.31l-74.46 43.02c-.15.09-.32.13-.48.13z" fill="url(#SVGID_4_)"/><linearGradient id="SVGID_5_" gradientUnits="userSpaceOnUse" x1="3.188" y1="292.019" x2="2.468" y2="292.045" gradientTransform="matrix(67.4089 0 0 -14.3335 37.336 4411.814)"><stop offset="0" stop-color="#fff"/><stop offset=".453" stop-color="#b6c7ed"/><stop offset="1" stop-color="#96aee5"/></linearGradient><path d="M283.13 238.43c-.16 0-.33-.04-.48-.13l-27.62-15.93a15.082 15.082 0 00-15.29.14l-17.95 10.8a16.943 16.943 0 01-17.56-.03l-29.6-17.95a.961.961 0 011-1.64l29.6 17.95a15.02 15.02 0 0015.57.03l17.95-10.8a17 17 0 0117.24-.16l27.62 15.93c.46.26.62.85.35 1.31-.17.31-.49.48-.83.48z" fill="url(#SVGID_5_)"/><g id="Group-112" transform="translate(35.422)"><g id="Path-46"><path class="st5" d="M119.69 236.3l70.66-40.06v-62.38L65.04 62.67 30.1 124.02v61.29z"/><path class="st6" d="M119.69 237.1c-.14 0-.27-.03-.4-.1L29.7 186.01a.807.807 0 01-.41-.7v-61.29c0-.14.04-.28.1-.4l34.94-61.35c.22-.38.71-.52 1.09-.3l125.31 71.19c.25.14.41.41.41.7v62.38c0 .29-.15.55-.41.7L120.09 237c-.12.07-.26.1-.4.1zM30.9 184.85l88.79 50.53 69.86-39.61v-61.45L65.35 63.76 30.9 124.24v60.61z"/></g><path class="st6" d="M119.7 226l-89.99-50.89.79-1.4 89.19 50.44 70.26-40.09.8 1.39z" id="Path-58"/><g id="Path-54"><path class="st7" d="M119.69 236.3v-61.04l34.47-61.66 36.19 20.26v62.38z"/><path class="st6" d="M119.69 237.1c-.14 0-.28-.04-.4-.11a.794.794 0 01-.4-.69v-61.04c0-.14.04-.27.1-.39l34.46-61.66c.1-.19.28-.32.48-.38.2-.06.42-.03.61.07l36.2 20.26c.25.14.41.41.41.7v62.38c0 .29-.15.55-.41.7L120.09 237c-.12.07-.26.1-.4.1zm.81-61.63v59.46l69.06-39.15v-61.45l-35.09-19.63-33.97 60.77z"/></g><path fill-rule="evenodd" clip-rule="evenodd" fill="#c9d4ea" d="M155.02 163.97l-21.63 11.84.07-5.49 21.56-11.88z" id="Path-25"/><path class="st6" d="M119.7 226l-89.99-50.89.79-1.4 89.19 50.44 70.26-40.09.8 1.39z"/><g id="Path-56"><path class="st5" d="M178.25 178.71v-17.44c0-.88-.72-1.6-1.6-1.6-.29 0-.58.08-.82.23l-10.21 6.13a3.22 3.22 0 00-1.56 2.75v16.98a1.605 1.605 0 002.38 1.4l10.16-5.64a3.213 3.213 0 001.65-2.81z"/><path class="st6" d="M165.67 188.15a2.4 2.4 0 01-2.4-2.4v-16.98c0-1.4.74-2.71 1.94-3.43l10.21-6.13c.37-.22.8-.34 1.24-.34a2.4 2.4 0 012.4 2.4v17.44c0 1.46-.79 2.8-2.06 3.5l-10.16 5.64c-.37.2-.77.3-1.17.3zm10.98-27.68a.81.81 0 00-.41.11l-10.21 6.13c-.72.43-1.17 1.22-1.17 2.06v16.98c0 .58.68.98 1.19.7l10.16-5.64a2.41 2.41 0 001.24-2.1v-17.44c0-.44-.36-.8-.8-.8z"/></g><g id="Path-57"><path class="st5" d="M134.76 227.29v-43.08c0-1.17.64-2.24 1.66-2.81l16.23-8.94a1.608 1.608 0 012.38 1.4v42.05l-20.27 11.38z"/><path class="st6" d="M134.76 228.09c-.14 0-.28-.04-.41-.11a.794.794 0 01-.4-.69v-43.08c0-1.46.79-2.8 2.07-3.51l16.23-8.94c.56-.31 1.21-.38 1.83-.2a2.4 2.4 0 011.44 1.15c.19.36.3.76.3 1.16v42.05c0 .29-.16.56-.41.7l-20.27 11.37a.72.72 0 01-.38.1zm18.66-55.02c-.13 0-.26.03-.38.1l-16.23 8.94c-.77.42-1.24 1.23-1.24 2.11v41.71l18.66-10.47v-41.58c0-.13-.03-.27-.1-.39a.766.766 0 00-.48-.38.656.656 0 00-.23-.04z"/></g><g id="Path-55"><path fill-rule="evenodd" clip-rule="evenodd" fill="#373f97" d="M154.16 113.6l-34.47 61.35-89.59-50.93 34.94-61.35z"/><path class="st6" d="M120 176.05l-90.99-51.72 35.74-62.75 90.5 51.72L120 176.05zm-88.8-52.33l88.19 50.14 33.68-59.96-87.73-50.13-34.14 59.95z"/></g><path d="M156.13 138.7c-22.69-11.7-36.32-20.4-40.9-26.1-6.87-8.55-5-17.52-1.05-22.7l24.1 12.95 17.85 35.85z" fill-rule="evenodd" clip-rule="evenodd" fill="#000327" id="Path-9" opacity=".3"/><g id="Group-93" transform="matrix(-1 0 0 1 101.545 0)"><path d="M-62.79 138.7v-8.03c-14.05-19.12-21.07-33.19-21.07-42.2 0-13.16 8.94-24.24 21.07-27.5V60h8.2c15.35.44 27.66 13.02 27.66 28.47 0 10.08-8.78 26.48-26.35 49.19-.14.18-.3.34-.48.48-.48.37-1.05.56-1.62.56h-7.41z" fill-rule="evenodd" clip-rule="evenodd" fill="#3157d8" id="Combined-Shape"/><path d="M-60.67 137.66c17.57-22.71 26.35-39.11 26.35-49.19C-34.32 72.75-47.06 60-62.79 60s-28.47 12.75-28.47 28.47c0 10.08 8.78 26.48 26.35 49.19a2.678 2.678 0 004.24 0z" fill-rule="evenodd" clip-rule="evenodd" fill="#5077ff"/><circle class="st7" cx="-62.79" cy="86.49" r="12.02" id="Oval"/></g><g id="Group-96" transform="translate(6.611 53.443)"><path class="st7" d="M58.37 127.02v-17.44c0-.88.72-1.6 1.6-1.6.29 0 .58.08.82.23L71 114.34a3.22 3.22 0 011.56 2.75v16.98a1.605 1.605 0 01-2.38 1.4l-10.16-5.64a3.225 3.225 0 01-1.65-2.81z"/><path class="st6" d="M70.95 136.46c-.41 0-.81-.1-1.16-.3l-10.16-5.64a4.016 4.016 0 01-2.06-3.5v-17.44a2.4 2.4 0 012.4-2.4c.44 0 .86.12 1.24.34l10.21 6.13c1.2.72 1.94 2.03 1.94 3.44v16.97a2.416 2.416 0 01-2.41 2.4zm-10.98-27.68c-.44 0-.8.36-.8.8v17.44c0 .87.47 1.68 1.24 2.1l10.16 5.64c.5.28 1.19-.12 1.19-.7v-16.97c0-.84-.45-1.63-1.17-2.06l-10.21-6.13a.754.754 0 00-.41-.12z"/><g id="Path-56-Copy"><path class="st7" d="M34.58 113.72V96.28c0-.88.72-1.6 1.6-1.6.29 0 .58.08.82.23l10.21 6.13a3.22 3.22 0 011.56 2.75v16.98a1.605 1.605 0 01-2.38 1.4l-10.16-5.64a3.213 3.213 0 01-1.65-2.81z"/><path class="st6" d="M47.17 123.16c-.41 0-.81-.1-1.17-.3l-10.16-5.64a4.016 4.016 0 01-2.06-3.5V96.28a2.4 2.4 0 012.4-2.4c.44 0 .86.12 1.24.34l10.21 6.13c1.2.72 1.94 2.03 1.94 3.43v16.98a2.4 2.4 0 01-2.4 2.4zM36.18 95.48c-.44 0-.8.36-.8.8v17.44c0 .87.47 1.68 1.24 2.1l10.16 5.64c.51.29 1.19-.12 1.19-.7v-16.98c0-.84-.45-1.63-1.17-2.06L36.6 95.6a.787.787 0 00-.42-.12z"/></g><g><path class="st7" d="M82.15 139.69v-17.44c0-.88.72-1.6 1.6-1.6.29 0 .58.08.82.23L94.78 127a3.22 3.22 0 011.56 2.75v16.98a1.605 1.605 0 01-2.38 1.4l-10.16-5.64a3.197 3.197 0 01-1.65-2.8z"/><path class="st6" d="M94.74 149.13c-.41 0-.81-.1-1.16-.3l-10.16-5.64a4.016 4.016 0 01-2.06-3.5v-17.44a2.4 2.4 0 012.4-2.4c.44 0 .87.12 1.24.34l10.2 6.12c1.2.72 1.94 2.04 1.94 3.43v16.98a2.41 2.41 0 01-2.4 2.41zm-10.99-27.68c-.44 0-.8.36-.8.8v17.44c0 .87.47 1.68 1.24 2.1l10.16 5.64c.51.28 1.19-.12 1.19-.7v-16.98c0-.84-.45-1.63-1.17-2.06l-10.21-6.13a.81.81 0 00-.41-.11z"/></g></g></g></g></switch></svg>