<svg width="360" height="360" fill="none" xmlns="http://www.w3.org/2000/svg"><g filter="url(#filter0_d)"><path fill-rule="evenodd" clip-rule="evenodd" d="M48.198 284.825A3.1 3.1 0 0145 281.727V81.191a3.1 3.1 0 013.179-3.1l244.153 6.23 6.355 192.526-250.489 7.978z" fill="#F0F4FB"/></g><path fill-rule="evenodd" clip-rule="evenodd" d="M49.264 284.791A4.133 4.133 0 0145 280.66V82.25a4.133 4.133 0 014.238-4.131l251.733 6.423a4.133 4.133 0 014.023 3.942l8.448 183.7a4.134 4.134 0 01-3.997 4.321l-260.18 8.286z" fill="#fff"/><path fill-rule="evenodd" clip-rule="evenodd" d="M64.424 137.398a3.1 3.1 0 00-3.085 3.094l-.246 123.694a3.1 3.1 0 003.17 3.105l104.819-2.341a3.1 3.1 0 003.03-3.144l-1.788-121.841a3.1 3.1 0 00-3.114-3.054l-102.786.487zM187.886 137.413a3.1 3.1 0 00-3.099 3.144l1.719 120.596a3.1 3.1 0 003.153 3.055l106.885-1.855a3.1 3.1 0 003.044-3.197l-3.751-118.741a3.1 3.1 0 00-3.098-3.002H187.886z" fill="#F0F4FB"/><path fill-rule="evenodd" clip-rule="evenodd" d="M204.703 160.144a5.166 5.166 0 100-10.332 5.166 5.166 0 000 10.332z" fill="#97ADCD"/><path d="M217.618 154.591h39.903" stroke="#9DB4D4" stroke-width="4" stroke-linecap="round" stroke-linejoin="round"/><path d="M200.57 177.322h21.396" stroke="#BAC8DC" stroke-width="2.5" stroke-linecap="round" stroke-linejoin="round"/><path fill-rule="evenodd" clip-rule="evenodd" d="M200.582 199.911a2.583 2.583 0 01-2.595-2.583v-10.32a2.583 2.583 0 012.583-2.583h82.069a2.583 2.583 0 012.583 2.583v9.957a2.584 2.584 0 01-2.572 2.583l-82.068.363z" fill="#FDFDFD"/><path d="M200.57 212.967h21.396" stroke="#BAC8DC" stroke-width="2.5" stroke-linecap="round" stroke-linejoin="round"/><path fill-rule="evenodd" clip-rule="evenodd" d="M200.582 235.557a2.584 2.584 0 01-2.595-2.583v-10.321a2.584 2.584 0 012.583-2.583h82.069a2.584 2.584 0 012.583 2.583v9.957a2.583 2.583 0 01-2.572 2.583l-82.068.364z" fill="#FDFDFD"/><path fill-rule="evenodd" clip-rule="evenodd" d="M79.168 160.144a5.166 5.166 0 100-10.332 5.166 5.166 0 000 10.332z" fill="#5077FF"/><path d="M92.083 154.591h39.903" stroke="#5077FF" stroke-width="4" stroke-linecap="round" stroke-linejoin="round"/><path d="M75.035 177.322h21.396" stroke="#BAC8DC" stroke-width="2.5" stroke-linecap="round" stroke-linejoin="round"/><path fill-rule="evenodd" clip-rule="evenodd" d="M75.047 199.911a2.583 2.583 0 01-2.595-2.583v-10.32a2.583 2.583 0 012.583-2.583h82.069a2.583 2.583 0 012.583 2.583v9.957a2.584 2.584 0 01-2.572 2.583l-82.068.363z" fill="#FDFDFD"/><path d="M75.035 212.967h21.396" stroke="#BAC8DC" stroke-width="2.5" stroke-linecap="round" stroke-linejoin="round"/><path fill-rule="evenodd" clip-rule="evenodd" d="M75.047 235.557a2.583 2.583 0 01-2.595-2.583v-10.321a2.583 2.583 0 012.583-2.583h82.069a2.584 2.584 0 012.583 2.583v9.957a2.583 2.583 0 01-2.572 2.583l-82.068.364z" fill="#5077FF"/><path d="M76.068 251.196h39.903M200.054 248.613h39.902" stroke="#9DB4D4" stroke-width="4" stroke-linecap="round" stroke-linejoin="round"/><g filter="url(#filter1_d)"><path fill-rule="evenodd" clip-rule="evenodd" d="M224.694 119.942a4.134 4.134 0 004.136 4.087l91.555-.075a4.133 4.133 0 004.128-4.219l-1.411-68.155a4.132 4.132 0 00-4.065-4.046l-90.928-1.466a4.133 4.133 0 00-4.199 4.18l.784 69.694z" fill="#5077FF"/></g><path opacity=".25" fill-rule="evenodd" clip-rule="evenodd" d="M245.393 75.463a7.72 7.72 0 11.1-15.437l34.805.358a7.585 7.585 0 01-.097 15.17l-34.808-.09z" fill="#fff"/><path fill-rule="evenodd" clip-rule="evenodd" d="M300.814 75.764a7.652 7.652 0 01-7.843-7.65 7.652 7.652 0 017.652-7.652h.196a7.65 7.65 0 01.191 15.297l-.196.005z" fill="#fff"/><path d="M239.832 88.466l34.094.376" stroke="#fff" stroke-width="4" stroke-linecap="round" stroke-linejoin="round"/><path opacity=".5" d="M239.832 99.83h65.082M239.832 109.129h22.676" stroke="#fff" stroke-width="2.5" stroke-linecap="round" stroke-linejoin="round"/><path d="M65.736 98.281l34.094.376" stroke="#97ACCB" stroke-width="4" stroke-linecap="round" stroke-linejoin="round"/><path d="M65.736 111.197h80.198M65.736 121.529h22.676" stroke="#D1DBE9" stroke-width="2.5" stroke-linecap="round" stroke-linejoin="round"/><defs><filter id="filter0_d" x="-30" y="53.091" width="353.687" height="306.736" filterUnits="userSpaceOnUse" color-interpolation-filters="sRGB"><feFlood flood-opacity="0" result="BackgroundImageFix"/><feColorMatrix in="SourceAlpha" values="0 0 0 0 0 0 0 0 0 0 0 0 0 0 0 0 0 0 127 0"/><feOffset dx="-25" dy="25"/><feGaussianBlur stdDeviation="25"/><feColorMatrix values="0 0 0 0 0.10167 0 0 0 0 0.177795 0 0 0 0 0.311424 0 0 0 0.2 0"/><feBlend in2="BackgroundImageFix" result="effect1_dropShadow"/><feBlend in="SourceGraphic" in2="effect1_dropShadow" result="shape"/></filter><filter id="filter1_d" x="120.91" y=".068" width="254.604" height="231.961" filterUnits="userSpaceOnUse" color-interpolation-filters="sRGB"><feFlood flood-opacity="0" result="BackgroundImageFix"/><feColorMatrix in="SourceAlpha" values="0 0 0 0 0 0 0 0 0 0 0 0 0 0 0 0 0 0 127 0"/><feOffset dx="-26" dy="31"/><feGaussianBlur stdDeviation="38.5"/><feColorMatrix values="0 0 0 0 0.373104 0 0 0 0 0.414444 0 0 0 0 0.497396 0 0 0 0.2 0"/><feBlend in2="BackgroundImageFix" result="effect1_dropShadow"/><feBlend in="SourceGraphic" in2="effect1_dropShadow" result="shape"/></filter></defs></svg>