<svg version="1.1" id="Layer_2" xmlns="http://www.w3.org/2000/svg" x="0" y="0" viewBox="0 0 300 300" xml:space="preserve" enable-background="new 0 0 300 300"><style>.st5{fill-rule:evenodd;clip-rule:evenodd;fill:#d9e2f4}.st6{fill:#96aee5}.st12,.st15,.st8{fill-rule:evenodd;clip-rule:evenodd;fill:#fff}.st12,.st15{fill:#373f97}.st15{fill:#466fff}</style><switch><g><linearGradient id="Path-15_1_" gradientUnits="userSpaceOnUse" x1="2.459" y1="298.524" x2="1.769" y2="299.085" gradientTransform="matrix(109.4123 0 0 -63.1891 -42.67 19095.525)"><stop offset="0" stop-color="#fff" stop-opacity="0"/><stop offset=".127" stop-color="#f0f4fb" stop-opacity=".127"/><stop offset=".308" stop-color="#e3eaf7" stop-opacity=".308"/><stop offset=".541" stop-color="#dbe4f5" stop-opacity=".541"/><stop offset="1" stop-color="#d9e2f4"/></linearGradient><path id="Path-15" fill-rule="evenodd" clip-rule="evenodd" fill="url(#Path-15_1_)" d="M119.89 213.38l96.7 55.05 66.17-41.53-91.89-52.54z"/><linearGradient id="Path-60_1_" gradientUnits="userSpaceOnUse" x1="3.387" y1="292.567" x2="2.217" y2="292.609" gradientTransform="matrix(67.4089 0 0 -14.3335 40.336 4412.814)"><stop offset="0" stop-color="#fff"/><stop offset=".453" stop-color="#b6c7ed"/><stop offset="1" stop-color="#96aee5"/></linearGradient><path id="Path-60" d="M180.93 208.35l27.5 16.68a14.875 14.875 0 0015.39.03l16.68-10.03a14.892 14.892 0 0115.11-.14l25.66 14.8h0" fill="none" stroke="url(#Path-60_1_)" stroke-width="1.2" stroke-linecap="round" stroke-linejoin="round"/><linearGradient id="SVGID_1_" gradientUnits="userSpaceOnUse" x1="1.495" y1="292.533" x2=".325" y2="292.575" gradientTransform="matrix(-67.4089 0 0 -14.3335 136.563 4413.814)"><stop offset="0" stop-color="#fff"/><stop offset=".453" stop-color="#b6c7ed"/><stop offset="1" stop-color="#96aee5"/></linearGradient><path d="M123.48 209.84l-27.5 16.68a14.875 14.875 0 01-15.39.03l-16.68-10.03a14.892 14.892 0 00-15.11-.14l-25.66 14.8h0" fill="none" stroke="url(#SVGID_1_)" stroke-width="1.2" stroke-linecap="round" stroke-linejoin="round"/><linearGradient id="Path-62_1_" gradientUnits="userSpaceOnUse" x1="4.658" y1="296.771" x2="3.575" y2="296.413" gradientTransform="matrix(34.5539 0 0 -19.8005 81.342 5983.753)"><stop offset="0" stop-color="#fff"/><stop offset=".491" stop-color="#b6c7ed"/><stop offset="1" stop-color="#96aee5"/></linearGradient><path id="Path-62" fill="none" stroke="url(#Path-62_1_)" stroke-width="1.2" stroke-linecap="round" stroke-linejoin="round" d="M193.06 126.73l51.44-29.48"/><linearGradient id="Path-61_1_" gradientUnits="userSpaceOnUse" x1="1.82" y1="297.799" x2="3.004" y2="297.401" gradientTransform="matrix(46.4758 0 0 -26.8538 -21.207 8103.171)"><stop offset="0" stop-color="#fff"/><stop offset=".491" stop-color="#b6c7ed"/><stop offset="1" stop-color="#96aee5"/></linearGradient><path id="Path-61" fill="none" stroke="url(#Path-61_1_)" stroke-width="1.2" stroke-linecap="round" stroke-linejoin="round" d="M127.34 131.83L58.15 91.85"/><g id="Group-94" transform="translate(36.922)"><g id="Group-90" transform="translate(0 17.561)"><g id="Group-87" transform="translate(0 22.9)"><g id="Combined-Shape-3" transform="translate(4.065 15.629)"><g id="Combined-Shape"><path class="st5" d="M117.8 92.39l31.02 18.21h30.67v21.1c.08 1.18-.18 2.39-.83 3.48-.53.91-1.29 1.66-2.2 2.19l-59.04 34.18a12.186 12.186 0 01-12.22 0l-59-34.15c-2.27-1.31-3.37-3.86-2.96-6.3v-20.5h30.9l31.36-18.23c3.81-2.21 8.51-2.2 12.3.02z"/><path class="st6" d="M111.31 173.93c-2.24 0-4.48-.58-6.48-1.74l-59-34.15c-2.46-1.43-3.8-4.27-3.32-7.07l-.01-20.37c0-.41.33-.74.74-.74h30.7l31.18-18.13a12.96 12.96 0 0113.05.03l30.85 18.1h30.47c.41 0 .74.33.74.74v21.1a6.73 6.73 0 01-.93 3.86 6.852 6.852 0 01-2.47 2.46l-59.05 34.18a12.884 12.884 0 01-6.47 1.73zm-67.32-62.58v19.75c-.38 2.32.66 4.54 2.59 5.66l59 34.15c3.54 2.05 7.93 2.05 11.47 0l59.04-34.18c.8-.46 1.47-1.13 1.93-1.92.55-.93.8-1.99.73-3.06v-20.4h-29.93c-.13 0-.26-.04-.38-.1l-31.02-18.21c-3.56-2.09-7.98-2.1-11.55-.02l-31.36 18.23c-.11.07-.24.1-.37.1H43.99z"/></g><defs><filter id="Adobe_OpacityMaskFilter" filterUnits="userSpaceOnUse" x="33.86" y="69.61" width="154.94" height="93.91"><feColorMatrix values="1 0 0 0 0 0 1 0 0 0 0 0 1 0 0 0 0 0 1 0"/></filter></defs><mask maskUnits="userSpaceOnUse" x="33.86" y="69.61" width="154.94" height="93.91" id="mask-6_6_"><g filter="url(#Adobe_OpacityMaskFilter)"><path id="path-5_6_" class="st8" d="M117.8 92.39l31.02 18.21h30.67v21.1c.08 1.18-.18 2.39-.83 3.48-.53.91-1.29 1.66-2.2 2.19l-59.04 34.18a12.186 12.186 0 01-12.22 0l-59-34.15c-2.27-1.31-3.37-3.86-2.96-6.3v-20.5h30.9l31.36-18.23c3.81-2.21 8.51-2.2 12.3.02z"/></g></mask><g id="Path-5" mask="url(#mask-6_6_)"><path class="st6" d="M111.31 163.51c-2.24 0-4.48-.58-6.48-1.74l-67.56-39.11a6.772 6.772 0 01-3.18-4.16c-.47-1.76-.23-3.61.69-5.19.6-1.03 1.45-1.89 2.48-2.49l67.9-39.48a12.96 12.96 0 0113.05.03l67.21 39.44c3.25 1.91 4.35 6.11 2.44 9.36a6.852 6.852 0 01-2.47 2.46l-67.6 39.13a12.767 12.767 0 01-6.48 1.75zm-73.29-51.38c-.8.47-1.48 1.14-1.94 1.95a5.294 5.294 0 00-.54 4.06 5.294 5.294 0 002.49 3.25l67.56 39.11c3.54 2.05 7.93 2.05 11.47 0l67.6-39.13c.8-.46 1.47-1.13 1.93-1.92 1.49-2.55.64-5.83-1.91-7.33l-67.21-39.44c-3.56-2.09-7.98-2.1-11.55-.02l-67.9 39.47z"/></g><defs><filter id="Adobe_OpacityMaskFilter_1_" filterUnits="userSpaceOnUse" x="127.24" y="130" width="40.58" height="28.26"><feColorMatrix values="1 0 0 0 0 0 1 0 0 0 0 0 1 0 0 0 0 0 1 0"/></filter></defs><mask maskUnits="userSpaceOnUse" x="127.24" y="130" width="40.58" height="28.26" id="mask-6_5_"><g filter="url(#Adobe_OpacityMaskFilter_1_)"><path id="path-5_5_" class="st8" d="M117.8 92.39l31.02 18.21h30.67v21.1c.08 1.18-.18 2.39-.83 3.48-.53.91-1.29 1.66-2.2 2.19l-59.04 34.18a12.186 12.186 0 01-12.22 0l-59-34.15c-2.27-1.31-3.37-3.86-2.96-6.3v-20.5h30.9l31.36-18.23c3.81-2.21 8.51-2.2 12.3.02z"/></g></mask><g id="Group-92" mask="url(#mask-6_5_)"><g transform="translate(56.478 26.327)" id="Group-97"><path class="st12" d="M70.76 127.39v3.29a1.24 1.24 0 001.85 1.08l13.69-7.66c.79-.44 1.27-1.27 1.27-2.17v-3.31a1.24 1.24 0 00-1.85-1.08l-13.69 7.68c-.78.44-1.27 1.27-1.27 2.17z" id="Path-10"/><path class="st12" d="M94.52 113.68v3.29a1.24 1.24 0 001.85 1.08l13.69-7.66c.79-.44 1.27-1.27 1.27-2.17v-3.31a1.24 1.24 0 00-1.85-1.08l-13.69 7.68c-.79.44-1.27 1.27-1.27 2.17z" id="Path-10-Copy"/></g></g><defs><filter id="Adobe_OpacityMaskFilter_2_" filterUnits="userSpaceOnUse" x="52.78" y="128.15" width="20.63" height="17.54"><feColorMatrix values="1 0 0 0 0 0 1 0 0 0 0 0 1 0 0 0 0 0 1 0"/></filter></defs><mask maskUnits="userSpaceOnUse" x="52.78" y="128.15" width="20.63" height="17.54" id="mask-6_1_"><g filter="url(#Adobe_OpacityMaskFilter_2_)"><path id="path-5_1_" class="st8" d="M117.8 92.39l31.02 18.21h30.67v21.1c.08 1.18-.18 2.39-.83 3.48-.53.91-1.29 1.66-2.2 2.19l-59.04 34.18a12.186 12.186 0 01-12.22 0l-59-34.15c-2.27-1.31-3.37-3.86-2.96-6.3v-20.5h30.9l31.36-18.23c3.81-2.21 8.51-2.2 12.3.02z"/></g></mask><g id="Group-91" mask="url(#mask-6_1_)"><g id="Fill-1"><path class="st15" d="M50.2 104.15c2.14 1.23 3.87 4.23 3.86 6.68-.01 2.46-1.75 3.45-3.88 2.21-2.14-1.23-3.86-4.22-3.86-6.68.01-2.46 1.74-3.45 3.88-2.21M63.09 111.73c2.14 1.23 3.87 4.23 3.86 6.68-.01 2.46-1.75 3.45-3.88 2.21-2.14-1.23-3.86-4.22-3.86-6.68 0-2.45 1.74-3.44 3.88-2.21" transform="translate(6.462 24.532)"/></g></g></g><path class="st8" d="M50.26 121.14l59.31-34.48c3.8-2.21 8.5-2.2 12.3.03l58.69 34.45c2.9 1.7 3.88 5.44 2.17 8.34-.53.91-1.29 1.66-2.2 2.19l-59.04 34.18a12.186 12.186 0 01-12.22 0l-59-34.15c-2.91-1.69-3.91-5.42-2.22-8.33a6.06 6.06 0 012.21-2.23z"/><path class="st6" d="M115.38 168.22c-2.24 0-4.48-.58-6.48-1.74l-59-34.15a6.772 6.772 0 01-3.18-4.16c-.47-1.77-.23-3.61.69-5.19.6-1.03 1.45-1.89 2.48-2.49l59.31-34.48a12.96 12.96 0 0113.05.03l58.69 34.45c1.58.92 2.7 2.41 3.16 4.18a6.852 6.852 0 01-3.19 7.65l-59.05 34.18c-2 1.14-4.24 1.72-6.48 1.72zm.32-82.46c-1.99 0-3.98.52-5.75 1.55l-59.31 34.48c-.8.47-1.48 1.14-1.94 1.95-1.48 2.55-.6 5.83 1.95 7.31l59 34.15c3.54 2.05 7.93 2.05 11.47 0l59.05-34.18c.8-.46 1.47-1.13 1.93-1.92.72-1.23.92-2.67.56-4.06a5.358 5.358 0 00-2.47-3.27L121.5 87.32c-1.79-1.04-3.8-1.56-5.8-1.56zm-65.44 35.38h.01-.01z"/></g><g id="Combined-Shape-2" transform="translate(4.065 15.629)"><path class="st5" d="M117.8 81.2l31.02 18.21h30.67v21.1c.08 1.18-.18 2.39-.83 3.48-.53.91-1.29 1.66-2.2 2.19l-59.04 34.18a12.186 12.186 0 01-12.22 0l-59-34.15c-2.27-1.31-3.37-3.86-2.96-6.3v-20.5h30.9l31.36-18.23c3.81-2.21 8.51-2.2 12.3.02z"/><path class="st6" d="M111.31 162.74c-2.24 0-4.48-.58-6.48-1.74l-59-34.15a6.87 6.87 0 01-3.32-7.07l-.01-20.37c0-.41.33-.74.74-.74h30.7l31.18-18.13a12.96 12.96 0 0113.05.03l30.85 18.1h30.47c.41 0 .74.33.74.74v21.1a6.73 6.73 0 01-.93 3.86 6.852 6.852 0 01-2.47 2.46l-59.05 34.18a12.884 12.884 0 01-6.47 1.73zm-67.32-62.58v19.75c-.38 2.32.66 4.54 2.59 5.66l59 34.15c3.54 2.05 7.93 2.05 11.47 0l59.04-34.18c.8-.46 1.47-1.13 1.93-1.92.55-.93.8-1.99.73-3.06v-20.4h-29.93c-.13 0-.26-.04-.38-.1l-31.02-18.21c-3.56-2.09-7.98-2.1-11.55-.02l-31.36 18.23c-.11.07-.24.1-.37.1H43.99z"/><defs><filter id="Adobe_OpacityMaskFilter_3_" filterUnits="userSpaceOnUse" x="33.86" y="57.65" width="154.94" height="93.9"><feColorMatrix values="1 0 0 0 0 0 1 0 0 0 0 0 1 0 0 0 0 0 1 0"/></filter></defs><mask maskUnits="userSpaceOnUse" x="33.86" y="57.65" width="154.94" height="93.9" id="mask-8_6_"><g filter="url(#Adobe_OpacityMaskFilter_3_)"><path id="path-7_6_" class="st8" d="M117.8 81.2l31.02 18.21h30.67v21.1c.08 1.18-.18 2.39-.83 3.48-.53.91-1.29 1.66-2.2 2.19l-59.04 34.18a12.186 12.186 0 01-12.22 0l-59-34.15c-2.27-1.31-3.37-3.86-2.96-6.3v-20.5h30.9l31.36-18.23c3.81-2.21 8.51-2.2 12.3.02z"/></g></mask><g mask="url(#mask-8_6_)"><path class="st6" d="M111.31 151.56c-2.24 0-4.48-.58-6.48-1.74l-67.56-39.1a6.8 6.8 0 01-3.18-4.16c-.47-1.77-.23-3.61.69-5.19.6-1.03 1.45-1.89 2.48-2.49l67.9-39.48a12.96 12.96 0 0113.05.03l67.21 39.44c3.25 1.91 4.35 6.11 2.44 9.36a6.852 6.852 0 01-2.47 2.46l-67.6 39.13a12.856 12.856 0 01-6.48 1.74zm-73.29-51.39c-.8.47-1.48 1.14-1.94 1.95a5.294 5.294 0 00-.54 4.06 5.294 5.294 0 002.49 3.25l67.56 39.1c3.54 2.05 7.93 2.05 11.47 0l67.6-39.13c.8-.46 1.47-1.13 1.93-1.92 1.49-2.54.64-5.83-1.91-7.32l-67.21-39.44c-3.56-2.09-7.98-2.1-11.55-.02l-67.9 39.47z"/></g><defs><filter id="Adobe_OpacityMaskFilter_4_" filterUnits="userSpaceOnUse" x="127.24" y="117.61" width="40.58" height="28.26"><feColorMatrix values="1 0 0 0 0 0 1 0 0 0 0 0 1 0 0 0 0 0 1 0"/></filter></defs><mask maskUnits="userSpaceOnUse" x="127.24" y="117.61" width="40.58" height="28.26" id="mask-8_5_"><g filter="url(#Adobe_OpacityMaskFilter_4_)"><path id="path-7_5_" class="st8" d="M117.8 81.2l31.02 18.21h30.67v21.1c.08 1.18-.18 2.39-.83 3.48-.53.91-1.29 1.66-2.2 2.19l-59.04 34.18a12.186 12.186 0 01-12.22 0l-59-34.15c-2.27-1.31-3.37-3.86-2.96-6.3v-20.5h30.9l31.36-18.23c3.81-2.21 8.51-2.2 12.3.02z"/></g></mask><g mask="url(#mask-8_5_)"><path class="st12" d="M70.76 115.81v3.29a1.24 1.24 0 001.85 1.08l13.69-7.66c.79-.44 1.27-1.27 1.27-2.17v-3.31a1.24 1.24 0 00-1.85-1.08l-13.69 7.68c-.78.44-1.27 1.27-1.27 2.17zM94.52 102.1v3.29a1.24 1.24 0 001.85 1.08l13.69-7.66c.79-.44 1.27-1.27 1.27-2.17v-3.31a1.24 1.24 0 00-1.85-1.08l-13.69 7.68c-.79.43-1.27 1.26-1.27 2.17z" transform="translate(56.478 25.524)"/></g><defs><filter id="Adobe_OpacityMaskFilter_5_" filterUnits="userSpaceOnUse" x="52.78" y="116.36" width="20.63" height="17.54"><feColorMatrix values="1 0 0 0 0 0 1 0 0 0 0 0 1 0 0 0 0 0 1 0"/></filter></defs><mask maskUnits="userSpaceOnUse" x="52.78" y="116.36" width="20.63" height="17.54" id="mask-8_1_"><g filter="url(#Adobe_OpacityMaskFilter_5_)"><path id="path-7_1_" class="st8" d="M117.8 81.2l31.02 18.21h30.67v21.1c.08 1.18-.18 2.39-.83 3.48-.53.91-1.29 1.66-2.2 2.19l-59.04 34.18a12.186 12.186 0 01-12.22 0l-59-34.15c-2.27-1.31-3.37-3.86-2.96-6.3v-20.5h30.9l31.36-18.23c3.81-2.21 8.51-2.2 12.3.02z"/></g></mask><g mask="url(#mask-8_1_)"><path class="st15" d="M50.2 92.76c2.14 1.23 3.87 4.23 3.86 6.68-.01 2.46-1.75 3.45-3.88 2.21-2.14-1.23-3.86-4.22-3.86-6.68.01-2.45 1.74-3.44 3.88-2.21M63.09 100.34c2.14 1.23 3.87 4.23 3.86 6.68-.01 2.46-1.75 3.45-3.88 2.21-2.14-1.23-3.86-4.22-3.86-6.68 0-2.45 1.74-3.44 3.88-2.21" transform="translate(6.462 24.13)"/></g></g><path class="st8" d="M50.26 109.96l59.31-34.48c3.8-2.21 8.5-2.2 12.3.03l58.69 34.45c2.9 1.7 3.88 5.44 2.17 8.34-.53.91-1.29 1.66-2.2 2.19l-59.04 34.18a12.186 12.186 0 01-12.22 0l-59-34.15c-2.91-1.69-3.91-5.42-2.22-8.33.53-.94 1.29-1.7 2.21-2.23z"/><path class="st6" d="M115.38 157.03c-2.24 0-4.48-.58-6.48-1.74l-59-34.15a6.8 6.8 0 01-3.18-4.16c-.47-1.76-.23-3.61.69-5.19.6-1.03 1.45-1.89 2.48-2.49l59.31-34.48a12.96 12.96 0 0113.05.03l58.69 34.45c3.25 1.91 4.35 6.11 2.44 9.36a6.852 6.852 0 01-2.47 2.46l-59.05 34.18a12.9 12.9 0 01-6.48 1.73zm.32-82.46c-1.99 0-3.98.52-5.75 1.55L50.63 110.6c-.8.47-1.48 1.14-1.94 1.95-1.48 2.55-.6 5.83 1.95 7.31l59 34.15c3.54 2.05 7.93 2.05 11.47 0l59.05-34.18c.8-.46 1.47-1.13 1.93-1.92 1.49-2.54.64-5.83-1.91-7.32l-58.69-34.45a11.401 11.401 0 00-5.79-1.57zm-65.44 35.39h.01-.01z"/><g id="Oval"><ellipse class="st5" cx="115.38" cy="118.17" rx="23.56" ry="12.49"/></g></g><g id="Group-93"><path d="M-48.97 136.66v-7.46c-13.05-17.76-19.58-30.83-19.58-39.21 0-12.23 8.3-22.52 19.58-25.55v-.9h7.62c14.26.41 25.7 12.09 25.7 26.45 0 9.37-8.16 24.6-24.48 45.71-.13.17-.28.32-.45.45-.45.35-.98.52-1.5.52l-6.89-.01z" fill-rule="evenodd" clip-rule="evenodd" fill="#3157d8" transform="matrix(-1 0 0 1 70.078 .464)"/><path d="M-47 135.69c16.32-21.1 24.48-36.34 24.48-45.71 0-14.61-11.84-26.45-26.45-26.45s-26.45 11.84-26.45 26.45c0 9.37 8.16 24.6 24.48 45.71a2.486 2.486 0 003.94 0z" fill-rule="evenodd" clip-rule="evenodd" fill="#5077ff" transform="matrix(-1 0 0 1 70.078 .464)"/><circle class="st8" cx="-48.97" cy="88.15" r="11.16" transform="matrix(-1 0 0 1 70.078 .464)"/></g></g></g></switch></svg>