<svg version="1.1" id="Layer_2" xmlns="http://www.w3.org/2000/svg" x="0" y="0" viewBox="0 0 300 300" xml:space="preserve" enable-background="new 0 0 300 300"><style>.st1{fill-rule:evenodd;clip-rule:evenodd;fill:#d9e2f4}.st2{fill:#96aee5}.st4,.st6,.st9{fill-rule:evenodd;clip-rule:evenodd;fill:#fff}.st6,.st9{fill:#373f97}.st9{fill:#466fff}</style><switch><g><linearGradient id="SVGID_1_" gradientUnits="userSpaceOnUse" x1="236.186" y1="277.424" x2="159.342" y2="172.645"><stop offset="0" stop-color="#fff" stop-opacity="0"/><stop offset=".005" stop-color="#fefeff" stop-opacity=".005"/><stop offset=".117" stop-color="#edf2fa" stop-opacity=".117"/><stop offset=".257" stop-color="#e2e9f7" stop-opacity=".257"/><stop offset=".454" stop-color="#dbe3f5" stop-opacity=".454"/><stop offset="1" stop-color="#d9e2f4"/></linearGradient><path fill-rule="evenodd" clip-rule="evenodd" fill="url(#SVGID_1_)" d="M211.35 191.12l-89.25 49.69 91.21 51.93 82.03-53.6z"/><g id="Group-94" transform="translate(2.3)"><g id="Group-90" transform="translate(0 6.216)"><g id="Group-87" transform="translate(0 8.106)"><g id="Combined-Shape-3" transform="translate(1.439 5.532)"><g id="Combined-Shape"><path class="st1" d="M153.39 131.32l38.62 22.66h38.18l.01 26.37c.08 1.43-.25 2.91-1.03 4.24a7.627 7.627 0 01-2.74 2.73l-73.51 42.55c-4.7 2.72-10.5 2.72-15.21 0l-73.45-42.52a7.613 7.613 0 01-3.69-7.82l.01-25.54h38.46l39.04-22.7a15.19 15.19 0 0115.31.03z"/><path class="st2" d="M145.31 233.47c-2.9 0-5.8-.75-8.39-2.24l-73.45-42.52c-3.28-1.9-5.07-5.7-4.45-9.44L59 153.99c0-.87.7-1.57 1.57-1.57h38.04l38.68-22.48c5.22-3.03 11.7-3.02 16.9.03l38.25 22.45h37.76c.87 0 1.57.7 1.57 1.57l.01 26.36c.1 1.71-.34 3.49-1.25 5.04a9.316 9.316 0 01-3.31 3.29l-73.5 42.55a16.85 16.85 0 01-8.41 2.24zm-83.17-77.91l-.01 23.97c-.43 2.72.74 5.21 2.9 6.46l73.45 42.52c4.2 2.43 9.43 2.43 13.63 0l73.5-42.55c.9-.52 1.65-1.27 2.18-2.17.6-1.02.88-2.18.82-3.36l-.01-24.88h-36.61c-.28 0-.55-.07-.8-.21l-38.62-22.66a13.646 13.646 0 00-13.73-.03l-39.04 22.7c-.24.14-.51.21-.79.21H62.14z"/></g><defs><filter id="Adobe_OpacityMaskFilter" filterUnits="userSpaceOnUse" x="173.19" y="181.67" width="34.78" height="26.18"><feColorMatrix values="1 0 0 0 0 0 1 0 0 0 0 0 1 0 0 0 0 0 1 0"/></filter></defs><mask maskUnits="userSpaceOnUse" x="173.19" y="181.67" width="34.78" height="26.18" id="mask-3_4_"><g filter="url(#Adobe_OpacityMaskFilter)"><path id="path-2_4_" class="st4" d="M153.39 131.32l38.62 22.66h38.18l.01 26.37c.08 1.43-.25 2.91-1.03 4.24a7.627 7.627 0 01-2.74 2.73l-73.51 42.55c-4.7 2.72-10.5 2.72-15.21 0l-73.45-42.52a7.613 7.613 0 01-3.69-7.82l.01-25.54h38.46l39.04-22.7a15.19 15.19 0 0115.31.03z"/></g></mask><g id="Path-25" mask="url(#mask-3_4_)"><path class="st6" d="M207.97 187.71l-34.78 20.13.19-6.37 34.59-19.8z"/></g><defs><filter id="Adobe_OpacityMaskFilter_1_" filterUnits="userSpaceOnUse" x="72.44" y="175.83" width="25.68" height="21.84"><feColorMatrix values="1 0 0 0 0 0 1 0 0 0 0 0 1 0 0 0 0 0 1 0"/></filter></defs><mask maskUnits="userSpaceOnUse" x="72.44" y="175.83" width="25.68" height="21.84" id="mask-3_1_"><g filter="url(#Adobe_OpacityMaskFilter_1_)"><path id="path-2_1_" class="st4" d="M153.39 131.32l38.62 22.66h38.18l.01 26.37c.08 1.43-.25 2.91-1.03 4.24a7.627 7.627 0 01-2.74 2.73l-73.51 42.55c-4.7 2.72-10.5 2.72-15.21 0l-73.45-42.52a7.613 7.613 0 01-3.69-7.82l.01-25.54h38.46l39.04-22.7a15.19 15.19 0 0115.31.03z"/></g></mask><g id="Group-91" mask="url(#mask-3_1_)"><g id="Fill-1"><path class="st9" d="M74.98 167.81c2.66 1.54 4.81 5.26 4.8 8.32-.01 3.06-2.17 4.29-4.83 2.76-2.66-1.54-4.81-5.26-4.8-8.32.01-3.06 2.17-4.3 4.83-2.76M91.03 177.25c2.66 1.54 4.81 5.26 4.8 8.32-.01 3.06-2.17 4.29-4.83 2.76-2.66-1.54-4.81-5.26-4.8-8.32 0-3.06 2.16-4.3 4.83-2.76" transform="translate(2.288 8.684)"/></g></g></g><g id="Path-5"><path class="st4" d="M65.68 153.19l73.84-42.93a15.19 15.19 0 0115.31.03l73.07 42.88c3.61 2.12 4.83 6.77 2.7 10.39a7.627 7.627 0 01-2.74 2.73l-73.51 42.55c-4.7 2.72-10.5 2.72-15.21 0l-73.45-42.52a7.587 7.587 0 01-.01-13.13z"/><path class="st2" d="M146.75 212.44c-2.9 0-5.81-.75-8.39-2.25L64.9 167.68c-4.37-2.53-5.87-8.14-3.34-12.52.8-1.38 1.95-2.53 3.32-3.33l73.84-42.93a16.775 16.775 0 0116.9.04l73.07 42.88a9.137 9.137 0 014.23 5.59c.61 2.37.27 4.83-.97 6.94-.8 1.36-1.94 2.5-3.31 3.29l-73.5 42.55c-2.59 1.5-5.49 2.25-8.39 2.25zm-80.28-57.89c-.9.53-1.66 1.28-2.18 2.19-1.66 2.87-.68 6.56 2.19 8.22l73.45 42.52c4.2 2.43 9.43 2.43 13.63 0l73.5-42.55c.9-.52 1.65-1.27 2.18-2.16.81-1.39 1.04-3.01.63-4.56a5.948 5.948 0 00-2.78-3.67l-73.07-42.88a13.623 13.623 0 00-13.73-.03l-73.82 42.92z"/></g></g><g id="Combined-Shape-2" transform="translate(1.439 5.532)"><path class="st1" d="M153.39 96.99l38.62 22.66h38.18l.01 26.37c.08 1.43-.25 2.91-1.03 4.24a7.627 7.627 0 01-2.74 2.73l-73.51 42.55c-4.7 2.72-10.5 2.72-15.21 0l-73.45-42.52a7.613 7.613 0 01-3.69-7.82l.01-25.54h38.46l39.04-22.7a15.166 15.166 0 0115.31.03z"/><path class="st2" d="M145.31 199.14c-2.9 0-5.81-.75-8.39-2.25l-73.45-42.52c-3.28-1.9-5.07-5.69-4.45-9.44L59 119.66c0-.87.7-1.57 1.57-1.57h38.04l38.68-22.49c5.21-3.04 11.69-3.02 16.9.04l38.25 22.45h37.76c.87 0 1.57.7 1.57 1.57l.01 26.37c.1 1.71-.34 3.48-1.25 5.03-.8 1.36-1.94 2.5-3.31 3.29l-73.5 42.55a16.955 16.955 0 01-8.41 2.24zm-83.17-77.91l-.01 23.97c-.43 2.72.74 5.21 2.9 6.46l73.45 42.52c4.2 2.43 9.43 2.44 13.63 0l73.5-42.55c.9-.52 1.65-1.27 2.18-2.16.6-1.02.88-2.18.82-3.36l-.01-24.88h-36.61c-.28 0-.55-.07-.8-.21l-38.62-22.66a13.646 13.646 0 00-13.73-.03l-39.04 22.7c-.24.14-.51.21-.79.21l-36.87-.01z"/><defs><filter id="Adobe_OpacityMaskFilter_2_" filterUnits="userSpaceOnUse" x="173.16" y="147.24" width="34.84" height="26.18"><feColorMatrix values="1 0 0 0 0 0 1 0 0 0 0 0 1 0 0 0 0 0 1 0"/></filter></defs><mask maskUnits="userSpaceOnUse" x="173.16" y="147.24" width="34.84" height="26.18" id="mask-5_4_"><g filter="url(#Adobe_OpacityMaskFilter_2_)"><path id="path-4_4_" class="st4" d="M153.39 96.99l38.62 22.66h38.18l.01 26.37c.08 1.43-.25 2.91-1.03 4.24a7.627 7.627 0 01-2.74 2.73l-73.51 42.55c-4.7 2.72-10.5 2.72-15.21 0l-73.45-42.52a7.613 7.613 0 01-3.69-7.82l.01-25.54h38.46l39.04-22.7a15.166 15.166 0 0115.31.03z"/></g></mask><g mask="url(#mask-5_4_)"><path class="st6" d="M208 153.25l-34.84 20.17.19-6.34L208 147.24z"/></g><defs><filter id="Adobe_OpacityMaskFilter_3_" filterUnits="userSpaceOnUse" x="72.44" y="140.75" width="25.68" height="21.84"><feColorMatrix values="1 0 0 0 0 0 1 0 0 0 0 0 1 0 0 0 0 0 1 0"/></filter></defs><mask maskUnits="userSpaceOnUse" x="72.44" y="140.75" width="25.68" height="21.84" id="mask-5_1_"><g filter="url(#Adobe_OpacityMaskFilter_3_)"><path id="path-4_1_" class="st4" d="M153.39 96.99l38.62 22.66h38.18l.01 26.37c.08 1.43-.25 2.91-1.03 4.24a7.627 7.627 0 01-2.74 2.73l-73.51 42.55c-4.7 2.72-10.5 2.72-15.21 0l-73.45-42.52a7.613 7.613 0 01-3.69-7.82l.01-25.54h38.46l39.04-22.7a15.166 15.166 0 0115.31.03z"/></g></mask><g mask="url(#mask-5_1_)"><path class="st9" d="M74.98 132.87c2.66 1.54 4.81 5.26 4.8 8.32-.01 3.06-2.17 4.29-4.83 2.76-2.66-1.54-4.81-5.26-4.8-8.32.01-3.06 2.17-4.29 4.83-2.76M91.03 142.31c2.66 1.54 4.81 5.26 4.8 8.32-.01 3.06-2.17 4.29-4.83 2.76-2.66-1.54-4.81-5.26-4.8-8.32 0-3.06 2.16-4.29 4.83-2.76" transform="translate(2.288 8.542)"/></g></g><path class="st4" d="M65.68 118.86l73.84-42.93a15.19 15.19 0 0115.31.03l73.07 42.88c3.61 2.12 4.83 6.77 2.7 10.39a7.627 7.627 0 01-2.74 2.73l-73.51 42.55c-4.7 2.72-10.5 2.72-15.21 0l-73.45-42.52a7.587 7.587 0 01-.01-13.13z"/><path class="st2" d="M146.75 178.11c-2.9 0-5.81-.75-8.39-2.25L64.9 133.35c-4.37-2.53-5.87-8.14-3.34-12.52.8-1.38 1.95-2.53 3.32-3.33l73.84-42.93c5.22-3.03 11.7-3.02 16.9.03l73.07 42.89c4.36 2.56 5.82 8.18 3.27 12.54-.8 1.36-1.94 2.5-3.31 3.29l-73.5 42.55a16.89 16.89 0 01-8.4 2.24zm-80.28-57.9c-.9.53-1.66 1.28-2.18 2.19-1.66 2.87-.68 6.56 2.19 8.22l73.45 42.52c4.2 2.44 9.43 2.44 13.63 0l73.5-42.55c.9-.52 1.65-1.27 2.18-2.16.81-1.39 1.04-3.01.63-4.56a5.948 5.948 0 00-2.78-3.67l-73.07-42.89a13.646 13.646 0 00-13.73-.03l-73.82 42.93z"/><g id="Oval"><ellipse class="st1" cx="146.75" cy="129.08" rx="36.72" ry="15.55"/></g></g><g id="Group-93"><path d="M-126.51 136.87l-.01-14c-13.98-19.73-20.97-34.43-20.97-44.11 0-13.97 8.7-25.91 20.98-30.69v-2.23h12.88c17.75.51 31.99 15.05 31.99 32.93 0 11.66-10.16 30.63-30.48 56.9-.16.21-.35.39-.56.56-.56.44-1.23.65-1.89.65h-11.94z" fill-rule="evenodd" clip-rule="evenodd" fill="#3157d8" transform="matrix(-1 0 0 1 24.806 .164)"/><path d="M-124.05 135.66c20.32-26.27 30.48-45.24 30.48-56.9 0-18.19-14.74-32.93-32.93-32.93s-32.93 14.74-32.93 32.93c0 11.66 10.16 30.63 30.48 56.9a3.112 3.112 0 004.35.56c.2-.16.39-.35.55-.56z" fill-rule="evenodd" clip-rule="evenodd" fill="#5077ff" transform="matrix(-1 0 0 1 24.806 .164)"/><circle class="st4" cx="-126.51" cy="76.48" r="13.9" transform="matrix(-1 0 0 1 24.806 .164)"/></g></g></g></switch></svg>