<svg xmlns="http://www.w3.org/2000/svg" viewBox="0 0 300 300"><style>.st4{fill-rule:evenodd;clip-rule:evenodd;fill:#d9e2f4}.st5{fill:#8fa8e3}.st6{fill-rule:evenodd;clip-rule:evenodd;fill:#fff}</style><switch><g><g id="Layer_2"><linearGradient id="SVGID_1_" gradientUnits="userSpaceOnUse" x1="224.712" y1="249.994" x2="178.646" y2="192.319"><stop offset="0" stop-color="#fff" stop-opacity="0"/><stop offset=".128" stop-color="#f0f4fb" stop-opacity=".128"/><stop offset=".313" stop-color="#e3eaf7" stop-opacity=".313"/><stop offset=".548" stop-color="#dbe4f5" stop-opacity=".548"/><stop offset="1" stop-color="#d9e2f4"/></linearGradient><path fill-rule="evenodd" clip-rule="evenodd" fill="url(#SVGID_1_)" d="M218.04 173.42l-103.38 61.96 83.28 45.09 97.98-64.5z"/><g id="Group-95" transform="matrix(-1 0 0 1 71 0)"><g id="Combined-Shape"><path class="st4" d="M-106.15 152.71l76.25 44.85 22.17 2.67v12.13c-.02.49-.16.98-.42 1.43-.27.45-.65.83-1.11 1.09l-67.81 37.81c-1.86 1.04-4.14 1-5.96-.11l-96.37-58.44a2.944 2.944 0 01-1.42-2.68v-12.05l15.77 1.9 53.08-28.7c1.82-.99 4.03-.95 5.82.1z"/><path class="st5" d="M-79.96 254.47c1.17 0 2.34-.29 3.39-.88l67.81-37.8c.62-.35 1.14-.85 1.5-1.47.34-.57.53-1.23.56-1.91v-12.18c0-.52-.39-.97-.91-1.03l-21.95-2.64-76.07-44.74a6.994 6.994 0 00-6.85-.12l-52.79 28.55-15.44-1.86a1.03 1.03 0 00-1.16 1.03v12.05c-.07 1.42.67 2.81 1.93 3.57l96.37 58.44c1.1.66 2.36.99 3.61.99zm71.19-53.32v11.21c-.02.3-.11.62-.28.91-.17.29-.42.54-.72.7l-67.8 37.8c-1.53.86-3.42.82-4.92-.09l-96.37-58.44c-.61-.37-.96-1.04-.93-1.75v-10.93l14.61 1.76c.22.03.43-.01.62-.12l53.08-28.7a4.88 4.88 0 014.81.09l76.26 44.85c.12.07.26.12.4.14l21.24 2.57zm-97.38-48.44h-.03.03z"/></g><g id="Path-16"><path class="st6" d="M-9.26 202.79l-67.81 37.81c-1.86 1.04-4.14 1-5.96-.11l-96.37-58.44a2.962 2.962 0 01-1-4.07c.27-.45.66-.82 1.13-1.07l67.3-36.39c1.83-.99 4.04-.95 5.83.1l96.95 57.03c1.41.83 1.88 2.65 1.05 4.06-.28.45-.66.82-1.12 1.08z"/><path class="st5" d="M-79.96 242.38c1.17 0 2.34-.29 3.39-.88l67.81-37.8a4.007 4.007 0 00.08-6.95l-96.95-57.03a6.994 6.994 0 00-6.85-.12l-67.3 36.39c-.62.34-1.15.84-1.52 1.44-1.14 1.89-.54 4.36 1.35 5.5l96.37 58.44c1.11.68 2.37 1.01 3.62 1.01zm70.19-40.5l-67.81 37.8c-1.53.85-3.42.82-4.92-.09l-96.37-58.44a1.932 1.932 0 01.08-3.35l67.3-36.39a4.88 4.88 0 014.81.09l96.95 57.03c.92.54 1.22 1.72.68 2.64-.17.3-.42.55-.72.71z"/></g><path class="st4" d="M-130.95 166.18l23.54-12.97 75.43 44.05-23.04 12.82z" id="Path-21"/><path fill-rule="evenodd" clip-rule="evenodd" fill="#373f97" d="M-134.17 196.09l19.48-10.67 27.74 16.41-19.6 10.53z" id="Path-22"/><path class="st4" d="M-82.88 46.25c.81-.32 1.75-.29 2.56.17L21.47 104a5.936 5.936 0 012.88 6.42l-17.5 81.01c-.07.31-.19.61-.35.89-.37.62-.93 1.06-1.57 1.28L-5.25 198l-8.63-14.32-83.34-49.46a5.918 5.918 0 01-2.87-5.73l.07-.49 12.74-66.08-6.48-10.75 10.87-4.9.01-.02z"/><path class="st5" d="M-5.25 199.03c.14 0 .28-.03.41-.08l10.18-4.4c.82-.28 1.57-.9 2.05-1.71.22-.37.38-.77.47-1.2l17.5-81.01c.65-3-.71-6.03-3.38-7.54L-79.81 45.52a3.97 3.97 0 00-3.46-.23l-10.93 4.92c-.27.12-.47.35-.56.64-.09.28-.05.59.1.85l6.28 10.41-12.74 66.22a6.992 6.992 0 003.37 6.78l83.12 49.33 8.5 14.1c.19.31.53.49.88.49zM-81.77 47.08c.33 0 .65.08.95.25l101.78 57.58a4.868 4.868 0 012.37 5.29l-17.5 81.01c-.04.21-.12.4-.23.58-.23.39-.59.68-1.02.83l-9.41 4.06-8.17-13.55c-.09-.15-.21-.27-.36-.36l-83.34-49.46a4.921 4.921 0 01-2.37-4.73l.07-.45 12.73-66.03c.05-.25 0-.51-.13-.73l-5.88-9.75 9.81-4.42-.03.01c.24-.09.48-.13.73-.13z"/><g id="Path-18"><path class="st6" d="M-107.94 139.02l99.66 59.14c1.41.84 3.23.37 4.06-1.04.16-.28.28-.57.35-.89l17.5-81.01c.55-2.54-.62-5.14-2.88-6.42L-91.03 51.24a2.963 2.963 0 00-4.37 2.02l-15.34 79.54a5.93 5.93 0 002.8 6.22z"/><path class="st5" d="M-6.78 199.62c.33 0 .67-.04 1-.13 1.04-.26 1.91-.92 2.45-1.84.22-.37.38-.77.47-1.2l17.5-81.01c.65-3-.71-6.03-3.38-7.54L-90.52 50.33a4.011 4.011 0 00-5.46 1.51c-.21.38-.36.79-.45 1.21l-15.34 79.54c-.55 2.88.77 5.82 3.29 7.31l99.66 59.14c.63.39 1.33.58 2.04.58zM-92.49 51.89c.32 0 .65.08.95.25l101.78 57.58a4.868 4.868 0 012.37 5.29l-17.5 81.01c-.04.2-.12.4-.23.58-.26.44-.68.76-1.18.89-.5.13-1.02.05-1.46-.21l-99.66-59.14a4.907 4.907 0 01-2.31-5.14l15.34-79.54c.04-.21.11-.4.21-.59.36-.63 1.02-.98 1.69-.98zm-15.45 87.13h-.03.03z"/></g><g id="Group-100" transform="translate(36.369 15.058)"><path fill-rule="evenodd" clip-rule="evenodd" fill="#5077ff" d="M-111.36 82.27l63.54 36.63 2.21-7.89-64.28-37.09z" id="Path-25"/><path class="st4" d="M-108.51 108.04l54.97 31.75 2-8.02-55.26-31.88z"/></g><g id="Path-19"><path class="st5" d="M-1.83 186.46a1.04 1.04 0 00.53-1.93l-106.38-63.4c-.48-.29-1.13-.13-1.42.36-.29.49-.13 1.13.36 1.42l106.38 63.4c.17.1.35.15.53.15z"/></g></g></g></g></switch></svg>