<svg width="280" height="262" fill="none" xmlns="http://www.w3.org/2000/svg"><path fill-rule="evenodd" clip-rule="evenodd" d="M3.856 239.094a4 4 0 01-3.65-4.199L12.576 3.869a4 4 0 014.08-3.785L275.9 5.698a4 4 0 013.909 4.185l-11.56 247.957a4 4 0 01-4.341 3.799L3.856 239.094z" fill="#fff"/><mask id="a" maskUnits="userSpaceOnUse" x="0" y="0" width="280" height="262"><path fill-rule="evenodd" clip-rule="evenodd" d="M3.856 239.094a4 4 0 01-3.65-4.199L12.576 3.869a4 4 0 014.08-3.785L275.9 5.698a4 4 0 013.909 4.185l-11.56 247.957a4 4 0 01-4.341 3.799L3.856 239.094z" fill="#fff"/></mask><g mask="url(#a)"><path fill-rule="evenodd" clip-rule="evenodd" d="M201.143 34.69a2.5 2.5 0 01-2.413-2.716l1.062-12.137a2.501 2.501 0 012.587-2.28l54.422 2.093a2.5 2.5 0 012.394 2.722l-1.054 11.745a2.5 2.5 0 01-2.568 2.275l-54.43-1.701z" fill="#5077FF"/><path d="M33.5 18.034l32.998.864" stroke="#97ACCB" stroke-width="3" stroke-linecap="round" stroke-linejoin="round"/><path d="M32 29.534l77.62 2.5" stroke="#D1DBE9" stroke-width="2.5" stroke-linecap="round" stroke-linejoin="round"/><path fill-rule="evenodd" clip-rule="evenodd" d="M7 43.62l273 6.656-3.5 62.756-273-9.216L7 43.62z" fill="#F0F4FB"/><path fill-rule="evenodd" clip-rule="evenodd" d="M54.745 68.585a4 4 0 014.138-3.735l158.95 5.816a4 4 0 013.847 4.237l-9.167 152.827a4 4 0 01-4.317 3.747L48.851 218.535a4 4 0 01-3.667-4.249l9.561-145.7z" fill="#fff" stroke="#E5E9F0" stroke-width=".75"/><path fill-rule="evenodd" clip-rule="evenodd" d="M78.5 95.466a7.5 7.5 0 100-15 7.5 7.5 0 000 15z" fill="#5077FF"/><path d="M76.045 87.494l1.373 1.96 3.831-2.682" stroke="#fff" stroke-width="1.25" stroke-linecap="round" stroke-linejoin="round"/><path d="M95 88.092l26.961.96" stroke="#5077FF" stroke-width="3" stroke-linecap="round" stroke-linejoin="round"/><path fill-rule="evenodd" clip-rule="evenodd" d="M77 114.466a5 5 0 100-10 5 5 0 000 10z" fill="#97ACCB"/><path d="M93 110.092l26.961.959" stroke="#C5D3E7" stroke-width="3" stroke-linecap="round" stroke-linejoin="round"/><path fill-rule="evenodd" clip-rule="evenodd" d="M75 136.466a5 5 0 100-10 5 5 0 000 10z" fill="#97ACCB"/><path d="M91 132.092l26.961 1.459" stroke="#C5D3E7" stroke-width="3" stroke-linecap="round" stroke-linejoin="round"/><path fill-rule="evenodd" clip-rule="evenodd" d="M74 158.466a5 5 0 100-10 5 5 0 000 10z" fill="#97ACCB"/><path d="M90 154.092l26.961 1.459" stroke="#C5D3E7" stroke-width="3" stroke-linecap="round" stroke-linejoin="round"/><path fill-rule="evenodd" clip-rule="evenodd" d="M72.5 180.466a5 5 0 100-10 5 5 0 000 10z" fill="#97ACCB"/><path d="M88.5 176.092l26.961 1.959" stroke="#C5D3E7" stroke-width="3" stroke-linecap="round" stroke-linejoin="round"/><path fill-rule="evenodd" clip-rule="evenodd" d="M71.5 204.466a7.5 7.5 0 100-15 7.5 7.5 0 000 15z" fill="#5077FF"/><path d="M69.045 196.494l1.373 1.961 3.831-2.683" stroke="#fff" stroke-width="1.25" stroke-linecap="round" stroke-linejoin="round"/><path d="M87 198.092l26.961 2.459" stroke="#5077FF" stroke-width="3" stroke-linecap="round" stroke-linejoin="round"/><path fill-rule="evenodd" clip-rule="evenodd" d="M153 97.466a5 5 0 100-10 5 5 0 000 10z" fill="#97ACCB"/><path d="M169 93.092l26.961.96" stroke="#C5D3E7" stroke-width="3" stroke-linecap="round" stroke-linejoin="round"/><path fill-rule="evenodd" clip-rule="evenodd" d="M151 119.466a5 5 0 10-.001-10.001 5 5 0 00.001 10.001z" fill="#97ACCB"/><path d="M167 115.092l26.961.959" stroke="#C5D3E7" stroke-width="3" stroke-linecap="round" stroke-linejoin="round"/><path fill-rule="evenodd" clip-rule="evenodd" d="M149.5 143.466a7.5 7.5 0 100-15 7.5 7.5 0 000 15z" fill="#5077FF"/><path d="M147.045 135.494l1.372 1.961 3.832-2.683" stroke="#fff" stroke-width="1.25" stroke-linecap="round" stroke-linejoin="round"/><path d="M165 137.092l26.961 1.459" stroke="#5077FF" stroke-width="3" stroke-linecap="round" stroke-linejoin="round"/><path fill-rule="evenodd" clip-rule="evenodd" d="M148 163.466a5 5 0 10-.001-10.001 5 5 0 00.001 10.001z" fill="#97ACCB"/><path d="M164 159.092l26.961 1.459" stroke="#C5D3E7" stroke-width="3" stroke-linecap="round" stroke-linejoin="round"/><path fill-rule="evenodd" clip-rule="evenodd" d="M146.5 185.466a5 5 0 10-.001-10.001 5 5 0 00.001 10.001z" fill="#97ACCB"/><path d="M162.5 181.092l26.961 1.959" stroke="#C5D3E7" stroke-width="3" stroke-linecap="round" stroke-linejoin="round"/><path fill-rule="evenodd" clip-rule="evenodd" d="M145 207.466a5 5 0 10-.001-10.001 5 5 0 00.001 10.001z" fill="#97ACCB"/><path d="M161 203.092l26.961 2.459" stroke="#C5D3E7" stroke-width="3" stroke-linecap="round" stroke-linejoin="round"/></g></svg>