<svg id="Layer_1" xmlns="http://www.w3.org/2000/svg" xmlns:xlink="http://www.w3.org/1999/xlink" viewBox="0 0 386 184"><style>.st0{opacity:5e-2;enable-background:new}.st1{clip-path:url(#SVGID_2_)}.st2{fill:none}.st3{fill:#fa50ae}.st4{fill:#0a2a66}.st5{fill:#37c5fd}.st6{fill:#fc96ce}.st7{fill:#fff}</style><title>QuizComplete</title><g class="st0"><defs><path id="SVGID_1_" d="M261.6 184v-.2l-88.6.2v-.3l-96.7.3s3.4-136.8 72.3-136.8c16.7 0 30 8 40.5 20.2 10.5-37 27.8-61.1 56.2-61.1 25.4 0 42.9 17.7 54.8 49.4 4-2.3 8.5-3.5 13-3.5 49 0 56.5 131.6 56.5 131.6l-108 .2z"/></defs><clipPath id="SVGID_2_"><use xlink:href="#SVGID_1_" overflow="visible"/></clipPath><g class="st1"><path class="st2" d="M367.9 179h9.8v9.8h-9.8z"/><path class="st2" d="M367.9 179h9.8v9.8h-9.8z"/><circle cx="372.8" cy="183.9" r="1.9"/></g><g class="st1"><path class="st2" d="M367.9 169.3h9.8v9.8h-9.8z"/><path class="st2" d="M367.9 169.3h9.8v9.8h-9.8z"/><circle cx="372.8" cy="174.1" r="1.9"/></g><g class="st1"><path class="st2" d="M367.9 159.5h9.8v9.8h-9.8z"/><path class="st2" d="M367.9 159.5h9.8v9.8h-9.8z"/><circle cx="372.8" cy="164.4" r="1.9"/></g><g class="st1"><path class="st2" d="M367.9 149.8h9.8v9.8h-9.8z"/><path class="st2" d="M367.9 149.8h9.8v9.8h-9.8z"/><circle cx="372.8" cy="154.6" r="1.9"/></g><g class="st1"><path class="st2" d="M367.9 140h9.8v9.8h-9.8z"/><path class="st2" d="M367.9 140h9.8v9.8h-9.8z"/><circle cx="372.8" cy="144.9" r="1.9"/></g><g class="st1"><path class="st2" d="M367.9 130.3h9.8v9.8h-9.8z"/><path class="st2" d="M367.9 130.3h9.8v9.8h-9.8z"/><circle cx="372.8" cy="135.1" r="1.9"/></g><g class="st1"><path class="st2" d="M367.9 120.5h9.8v9.8h-9.8z"/><path class="st2" d="M367.9 120.5h9.8v9.8h-9.8z"/><circle cx="372.8" cy="125.4" r="1.9"/></g><g class="st1"><path class="st2" d="M367.9 110.8h9.8v9.8h-9.8z"/><path class="st2" d="M367.9 110.8h9.8v9.8h-9.8z"/><circle cx="372.8" cy="115.6" r="1.9"/></g><g class="st1"><path class="st2" d="M367.9 101h9.8v9.8h-9.8z"/><path class="st2" d="M367.9 101h9.8v9.8h-9.8z"/><circle cx="372.8" cy="105.9" r="1.9"/></g><g class="st1"><path class="st2" d="M367.9 91.3h9.8v9.8h-9.8z"/><path class="st2" d="M367.9 91.3h9.8v9.8h-9.8z"/><circle cx="372.8" cy="96.1" r="1.9"/></g><g class="st1"><path class="st2" d="M367.9 81.5h9.8v9.8h-9.8z"/><path class="st2" d="M367.9 81.5h9.8v9.8h-9.8z"/><circle cx="372.8" cy="86.4" r="1.9"/></g><g class="st1"><path class="st2" d="M367.9 71.8h9.8v9.8h-9.8z"/><path class="st2" d="M367.9 71.8h9.8v9.8h-9.8z"/><circle cx="372.8" cy="76.6" r="1.9"/></g><g class="st1"><path class="st2" d="M367.9 62h9.8v9.8h-9.8z"/><path class="st2" d="M367.9 62h9.8v9.8h-9.8z"/><circle cx="372.8" cy="66.9" r="1.9"/></g><g class="st1"><path class="st2" d="M367.9 52.3h9.8v9.8h-9.8z"/><path class="st2" d="M367.9 52.3h9.8v9.8h-9.8z"/><circle cx="372.8" cy="57.1" r="1.9"/></g><g class="st1"><path class="st2" d="M367.9 42.5h9.8v9.8h-9.8z"/><path class="st2" d="M367.9 42.5h9.8v9.8h-9.8z"/><circle cx="372.8" cy="47.4" r="1.9"/></g><g class="st1"><path class="st2" d="M367.9 32.8h9.8v9.8h-9.8z"/><path class="st2" d="M367.9 32.8h9.8v9.8h-9.8z"/><circle cx="372.8" cy="37.6" r="1.9"/></g><g class="st1"><path class="st2" d="M367.9 23h9.8v9.8h-9.8z"/><path class="st2" d="M367.9 23h9.8v9.8h-9.8z"/><circle cx="372.8" cy="27.9" r="1.9"/></g><g class="st1"><path class="st2" d="M367.9 13.3h9.8v9.8h-9.8z"/><path class="st2" d="M367.9 13.3h9.8v9.8h-9.8z"/><circle cx="372.8" cy="18.1" r="1.9"/></g><g class="st1"><path class="st2" d="M367.9 3.5h9.8v9.8h-9.8z"/><path class="st2" d="M367.9 3.5h9.8v9.8h-9.8z"/><circle cx="372.8" cy="8.4" r="1.9"/></g><g class="st1"><path class="st2" d="M358.1 179h9.8v9.8h-9.8z"/><path class="st2" d="M358.1 179h9.8v9.8h-9.8z"/><circle cx="363" cy="183.9" r="1.9"/></g><g class="st1"><path class="st2" d="M358.1 169.3h9.8v9.8h-9.8z"/><path class="st2" d="M358.1 169.3h9.8v9.8h-9.8z"/><circle cx="363" cy="174.1" r="1.9"/></g><g class="st1"><path class="st2" d="M358.1 159.5h9.8v9.8h-9.8z"/><path class="st2" d="M358.1 159.5h9.8v9.8h-9.8z"/><circle cx="363" cy="164.4" r="1.9"/></g><g class="st1"><path class="st2" d="M358.1 149.8h9.8v9.8h-9.8z"/><path class="st2" d="M358.1 149.8h9.8v9.8h-9.8z"/><circle cx="363" cy="154.6" r="1.9"/></g><g class="st1"><path class="st2" d="M358.1 140h9.8v9.8h-9.8z"/><path class="st2" d="M358.1 140h9.8v9.8h-9.8z"/><circle cx="363" cy="144.9" r="1.9"/></g><g class="st1"><path class="st2" d="M358.1 130.3h9.8v9.8h-9.8z"/><path class="st2" d="M358.1 130.3h9.8v9.8h-9.8z"/><circle cx="363" cy="135.1" r="1.9"/></g><g class="st1"><path class="st2" d="M358.1 120.5h9.8v9.8h-9.8z"/><path class="st2" d="M358.1 120.5h9.8v9.8h-9.8z"/><circle cx="363" cy="125.4" r="1.9"/></g><g class="st1"><path class="st2" d="M358.1 110.8h9.8v9.8h-9.8z"/><path class="st2" d="M358.1 110.8h9.8v9.8h-9.8z"/><circle cx="363" cy="115.6" r="1.9"/></g><g class="st1"><path class="st2" d="M358.1 101h9.8v9.8h-9.8z"/><path class="st2" d="M358.1 101h9.8v9.8h-9.8z"/><circle cx="363" cy="105.9" r="1.9"/></g><g class="st1"><path class="st2" d="M358.1 91.3h9.8v9.8h-9.8z"/><path class="st2" d="M358.1 91.3h9.8v9.8h-9.8z"/><circle cx="363" cy="96.1" r="1.9"/></g><g class="st1"><path class="st2" d="M358.1 81.5h9.8v9.8h-9.8z"/><path class="st2" d="M358.1 81.5h9.8v9.8h-9.8z"/><circle cx="363" cy="86.4" r="1.9"/></g><g class="st1"><path class="st2" d="M358.1 71.8h9.8v9.8h-9.8z"/><path class="st2" d="M358.1 71.8h9.8v9.8h-9.8z"/><circle cx="363" cy="76.6" r="1.9"/></g><g class="st1"><path class="st2" d="M358.1 62h9.8v9.8h-9.8z"/><path class="st2" d="M358.1 62h9.8v9.8h-9.8z"/><circle cx="363" cy="66.9" r="1.9"/></g><g class="st1"><path class="st2" d="M358.1 52.3h9.8v9.8h-9.8z"/><path class="st2" d="M358.1 52.3h9.8v9.8h-9.8z"/><circle cx="363" cy="57.1" r="1.9"/></g><g class="st1"><path class="st2" d="M358.1 42.5h9.8v9.8h-9.8z"/><path class="st2" d="M358.1 42.5h9.8v9.8h-9.8z"/><circle cx="363" cy="47.4" r="1.9"/></g><g class="st1"><path class="st2" d="M358.1 32.8h9.8v9.8h-9.8z"/><path class="st2" d="M358.1 32.8h9.8v9.8h-9.8z"/><circle cx="363" cy="37.6" r="1.9"/></g><g class="st1"><path class="st2" d="M358.1 23h9.8v9.8h-9.8z"/><path class="st2" d="M358.1 23h9.8v9.8h-9.8z"/><circle cx="363" cy="27.9" r="1.9"/></g><g class="st1"><path class="st2" d="M358.1 13.3h9.8v9.8h-9.8z"/><path class="st2" d="M358.1 13.3h9.8v9.8h-9.8z"/><circle cx="363" cy="18.1" r="1.9"/></g><g class="st1"><path class="st2" d="M358.1 3.5h9.8v9.8h-9.8z"/><path class="st2" d="M358.1 3.5h9.8v9.8h-9.8z"/><circle cx="363" cy="8.4" r="1.9"/></g><g class="st1"><path class="st2" d="M348.4 179h9.8v9.8h-9.8z"/><path class="st2" d="M348.4 179h9.8v9.8h-9.8z"/><circle cx="353.3" cy="183.9" r="1.9"/></g><g class="st1"><path class="st2" d="M348.4 169.3h9.8v9.8h-9.8z"/><path class="st2" d="M348.4 169.3h9.8v9.8h-9.8z"/><circle cx="353.3" cy="174.1" r="1.9"/></g><g class="st1"><path class="st2" d="M348.4 159.5h9.8v9.8h-9.8z"/><path class="st2" d="M348.4 159.5h9.8v9.8h-9.8z"/><circle cx="353.3" cy="164.4" r="1.9"/></g><g class="st1"><path class="st2" d="M348.4 149.8h9.8v9.8h-9.8z"/><path class="st2" d="M348.4 149.8h9.8v9.8h-9.8z"/><circle cx="353.3" cy="154.6" r="1.9"/></g><g class="st1"><path class="st2" d="M348.4 140h9.8v9.8h-9.8z"/><path class="st2" d="M348.4 140h9.8v9.8h-9.8z"/><circle cx="353.3" cy="144.9" r="1.9"/></g><g class="st1"><path class="st2" d="M348.4 130.3h9.8v9.8h-9.8z"/><path class="st2" d="M348.4 130.3h9.8v9.8h-9.8z"/><circle cx="353.3" cy="135.1" r="1.9"/></g><g class="st1"><path class="st2" d="M348.4 120.5h9.8v9.8h-9.8z"/><path class="st2" d="M348.4 120.5h9.8v9.8h-9.8z"/><circle cx="353.3" cy="125.4" r="1.9"/></g><g class="st1"><path class="st2" d="M348.4 110.8h9.8v9.8h-9.8z"/><path class="st2" d="M348.4 110.8h9.8v9.8h-9.8z"/><circle cx="353.3" cy="115.6" r="1.9"/></g><g class="st1"><path class="st2" d="M348.4 101h9.8v9.8h-9.8z"/><path class="st2" d="M348.4 101h9.8v9.8h-9.8z"/><circle cx="353.3" cy="105.9" r="1.9"/></g><g class="st1"><path class="st2" d="M348.4 91.3h9.8v9.8h-9.8z"/><path class="st2" d="M348.4 91.3h9.8v9.8h-9.8z"/><circle cx="353.3" cy="96.1" r="1.9"/></g><g class="st1"><path class="st2" d="M348.4 81.5h9.8v9.8h-9.8z"/><path class="st2" d="M348.4 81.5h9.8v9.8h-9.8z"/><circle cx="353.3" cy="86.4" r="1.9"/></g><g class="st1"><path class="st2" d="M348.4 71.8h9.8v9.8h-9.8z"/><path class="st2" d="M348.4 71.8h9.8v9.8h-9.8z"/><circle cx="353.3" cy="76.6" r="1.9"/></g><g class="st1"><path class="st2" d="M348.4 62h9.8v9.8h-9.8z"/><path class="st2" d="M348.4 62h9.8v9.8h-9.8z"/><circle cx="353.3" cy="66.9" r="1.9"/></g><g class="st1"><path class="st2" d="M348.4 52.3h9.8v9.8h-9.8z"/><path class="st2" d="M348.4 52.3h9.8v9.8h-9.8z"/><circle cx="353.3" cy="57.1" r="1.9"/></g><g class="st1"><path class="st2" d="M348.4 42.5h9.8v9.8h-9.8z"/><path class="st2" d="M348.4 42.5h9.8v9.8h-9.8z"/><circle cx="353.3" cy="47.4" r="1.9"/></g><g class="st1"><path class="st2" d="M348.4 32.8h9.8v9.8h-9.8z"/><path class="st2" d="M348.4 32.8h9.8v9.8h-9.8z"/><circle cx="353.3" cy="37.6" r="1.9"/></g><g class="st1"><path class="st2" d="M348.4 23h9.8v9.8h-9.8z"/><path class="st2" d="M348.4 23h9.8v9.8h-9.8z"/><circle cx="353.3" cy="27.9" r="1.9"/></g><g class="st1"><path class="st2" d="M348.4 13.3h9.8v9.8h-9.8z"/><path class="st2" d="M348.4 13.3h9.8v9.8h-9.8z"/><circle cx="353.3" cy="18.1" r="1.9"/></g><g class="st1"><path class="st2" d="M348.4 3.5h9.8v9.8h-9.8z"/><path class="st2" d="M348.4 3.5h9.8v9.8h-9.8z"/><circle cx="353.3" cy="8.4" r="1.9"/></g><g class="st1"><path class="st2" d="M338.6 179h9.8v9.8h-9.8z"/><path class="st2" d="M338.6 179h9.8v9.8h-9.8z"/><circle cx="343.5" cy="183.9" r="1.9"/></g><g class="st1"><path class="st2" d="M338.6 169.3h9.8v9.8h-9.8z"/><path class="st2" d="M338.6 169.3h9.8v9.8h-9.8z"/><circle cx="343.5" cy="174.1" r="1.9"/></g><g class="st1"><path class="st2" d="M338.6 159.5h9.8v9.8h-9.8z"/><path class="st2" d="M338.6 159.5h9.8v9.8h-9.8z"/><circle cx="343.5" cy="164.4" r="1.9"/></g><g class="st1"><path class="st2" d="M338.6 149.8h9.8v9.8h-9.8z"/><path class="st2" d="M338.6 149.8h9.8v9.8h-9.8z"/><circle cx="343.5" cy="154.6" r="1.9"/></g><g class="st1"><path class="st2" d="M338.6 140h9.8v9.8h-9.8z"/><path class="st2" d="M338.6 140h9.8v9.8h-9.8z"/><circle cx="343.5" cy="144.9" r="1.9"/></g><g class="st1"><path class="st2" d="M338.6 130.3h9.8v9.8h-9.8z"/><path class="st2" d="M338.6 130.3h9.8v9.8h-9.8z"/><circle cx="343.5" cy="135.1" r="1.9"/></g><g class="st1"><path class="st2" d="M338.6 120.5h9.8v9.8h-9.8z"/><path class="st2" d="M338.6 120.5h9.8v9.8h-9.8z"/><circle cx="343.5" cy="125.4" r="1.9"/></g><g class="st1"><path class="st2" d="M338.6 110.8h9.8v9.8h-9.8z"/><path class="st2" d="M338.6 110.8h9.8v9.8h-9.8z"/><circle cx="343.5" cy="115.6" r="1.9"/></g><g class="st1"><path class="st2" d="M338.6 101h9.8v9.8h-9.8z"/><path class="st2" d="M338.6 101h9.8v9.8h-9.8z"/><circle cx="343.5" cy="105.9" r="1.9"/></g><g class="st1"><path class="st2" d="M338.6 91.3h9.8v9.8h-9.8z"/><path class="st2" d="M338.6 91.3h9.8v9.8h-9.8z"/><circle cx="343.5" cy="96.1" r="1.9"/></g><g class="st1"><path class="st2" d="M338.6 81.5h9.8v9.8h-9.8z"/><path class="st2" d="M338.6 81.5h9.8v9.8h-9.8z"/><circle cx="343.5" cy="86.4" r="1.9"/></g><g class="st1"><path class="st2" d="M338.6 71.8h9.8v9.8h-9.8z"/><path class="st2" d="M338.6 71.8h9.8v9.8h-9.8z"/><circle cx="343.5" cy="76.6" r="1.9"/></g><g class="st1"><path class="st2" d="M338.6 62h9.8v9.8h-9.8z"/><path class="st2" d="M338.6 62h9.8v9.8h-9.8z"/><circle cx="343.5" cy="66.9" r="1.9"/></g><g class="st1"><path class="st2" d="M338.6 52.3h9.8v9.8h-9.8z"/><path class="st2" d="M338.6 52.3h9.8v9.8h-9.8z"/><circle cx="343.5" cy="57.1" r="1.9"/></g><g class="st1"><path class="st2" d="M338.6 42.5h9.8v9.8h-9.8z"/><path class="st2" d="M338.6 42.5h9.8v9.8h-9.8z"/><circle cx="343.5" cy="47.4" r="1.9"/></g><g class="st1"><path class="st2" d="M338.6 32.8h9.8v9.8h-9.8z"/><path class="st2" d="M338.6 32.8h9.8v9.8h-9.8z"/><circle cx="343.5" cy="37.6" r="1.9"/></g><g class="st1"><path class="st2" d="M338.6 23h9.8v9.8h-9.8z"/><path class="st2" d="M338.6 23h9.8v9.8h-9.8z"/><circle cx="343.5" cy="27.9" r="1.9"/></g><g class="st1"><path class="st2" d="M338.6 13.3h9.8v9.8h-9.8z"/><path class="st2" d="M338.6 13.3h9.8v9.8h-9.8z"/><circle cx="343.5" cy="18.1" r="1.9"/></g><g class="st1"><path class="st2" d="M338.6 3.5h9.8v9.8h-9.8z"/><path class="st2" d="M338.6 3.5h9.8v9.8h-9.8z"/><circle cx="343.5" cy="8.4" r="1.9"/></g><g class="st1"><path class="st2" d="M328.9 179h9.8v9.8h-9.8z"/><path class="st2" d="M328.9 179h9.8v9.8h-9.8z"/><circle cx="333.8" cy="183.9" r="1.9"/></g><g class="st1"><path class="st2" d="M328.9 169.3h9.8v9.8h-9.8z"/><path class="st2" d="M328.9 169.3h9.8v9.8h-9.8z"/><circle cx="333.8" cy="174.1" r="1.9"/></g><g class="st1"><path class="st2" d="M328.9 159.5h9.8v9.8h-9.8z"/><path class="st2" d="M328.9 159.5h9.8v9.8h-9.8z"/><circle cx="333.8" cy="164.4" r="1.9"/></g><g class="st1"><path class="st2" d="M328.9 149.8h9.8v9.8h-9.8z"/><path class="st2" d="M328.9 149.8h9.8v9.8h-9.8z"/><circle cx="333.8" cy="154.6" r="1.9"/></g><g class="st1"><path class="st2" d="M328.9 140h9.8v9.8h-9.8z"/><path class="st2" d="M328.9 140h9.8v9.8h-9.8z"/><circle cx="333.8" cy="144.9" r="1.9"/></g><g class="st1"><path class="st2" d="M328.9 130.3h9.8v9.8h-9.8z"/><path class="st2" d="M328.9 130.3h9.8v9.8h-9.8z"/><circle cx="333.8" cy="135.1" r="1.9"/></g><g class="st1"><path class="st2" d="M328.9 120.5h9.8v9.8h-9.8z"/><path class="st2" d="M328.9 120.5h9.8v9.8h-9.8z"/><circle cx="333.8" cy="125.4" r="1.9"/></g><g class="st1"><path class="st2" d="M328.9 110.8h9.8v9.8h-9.8z"/><path class="st2" d="M328.9 110.8h9.8v9.8h-9.8z"/><circle cx="333.8" cy="115.6" r="1.9"/></g><g class="st1"><path class="st2" d="M328.9 101h9.8v9.8h-9.8z"/><path class="st2" d="M328.9 101h9.8v9.8h-9.8z"/><circle cx="333.8" cy="105.9" r="1.9"/></g><g class="st1"><path class="st2" d="M328.9 91.3h9.8v9.8h-9.8z"/><path class="st2" d="M328.9 91.3h9.8v9.8h-9.8z"/><circle cx="333.8" cy="96.1" r="1.9"/></g><g class="st1"><path class="st2" d="M328.9 81.5h9.8v9.8h-9.8z"/><path class="st2" d="M328.9 81.5h9.8v9.8h-9.8z"/><circle cx="333.8" cy="86.4" r="1.9"/></g><g class="st1"><path class="st2" d="M328.9 71.8h9.8v9.8h-9.8z"/><path class="st2" d="M328.9 71.8h9.8v9.8h-9.8z"/><circle cx="333.8" cy="76.6" r="1.9"/></g><g class="st1"><path class="st2" d="M328.9 62h9.8v9.8h-9.8z"/><path class="st2" d="M328.9 62h9.8v9.8h-9.8z"/><circle cx="333.8" cy="66.9" r="1.9"/></g><g class="st1"><path class="st2" d="M328.9 52.3h9.8v9.8h-9.8z"/><path class="st2" d="M328.9 52.3h9.8v9.8h-9.8z"/><circle cx="333.8" cy="57.1" r="1.9"/></g><g class="st1"><path class="st2" d="M328.9 42.5h9.8v9.8h-9.8z"/><path class="st2" d="M328.9 42.5h9.8v9.8h-9.8z"/><circle cx="333.8" cy="47.4" r="1.9"/></g><g class="st1"><path class="st2" d="M328.9 32.8h9.8v9.8h-9.8z"/><path class="st2" d="M328.9 32.8h9.8v9.8h-9.8z"/><circle cx="333.8" cy="37.6" r="1.9"/></g><g class="st1"><path class="st2" d="M328.9 23h9.8v9.8h-9.8z"/><path class="st2" d="M328.9 23h9.8v9.8h-9.8z"/><circle cx="333.8" cy="27.9" r="1.9"/></g><g class="st1"><path class="st2" d="M328.9 13.3h9.8v9.8h-9.8z"/><path class="st2" d="M328.9 13.3h9.8v9.8h-9.8z"/><circle cx="333.8" cy="18.1" r="1.9"/></g><g class="st1"><path class="st2" d="M328.9 3.5h9.8v9.8h-9.8z"/><path class="st2" d="M328.9 3.5h9.8v9.8h-9.8z"/><circle cx="333.8" cy="8.4" r="1.9"/></g><g class="st1"><path class="st2" d="M319.1 179h9.8v9.8h-9.8z"/><path class="st2" d="M319.1 179h9.8v9.8h-9.8z"/><circle cx="324" cy="183.9" r="1.9"/></g><g class="st1"><path class="st2" d="M319.1 169.3h9.8v9.8h-9.8z"/><path class="st2" d="M319.1 169.3h9.8v9.8h-9.8z"/><circle cx="324" cy="174.1" r="1.9"/></g><g class="st1"><path class="st2" d="M319.1 159.5h9.8v9.8h-9.8z"/><path class="st2" d="M319.1 159.5h9.8v9.8h-9.8z"/><circle cx="324" cy="164.4" r="1.9"/></g><g class="st1"><path class="st2" d="M319.1 149.8h9.8v9.8h-9.8z"/><path class="st2" d="M319.1 149.8h9.8v9.8h-9.8z"/><circle cx="324" cy="154.6" r="1.9"/></g><g class="st1"><path class="st2" d="M319.1 140h9.8v9.8h-9.8z"/><path class="st2" d="M319.1 140h9.8v9.8h-9.8z"/><circle cx="324" cy="144.9" r="1.9"/></g><g class="st1"><path class="st2" d="M319.1 130.3h9.8v9.8h-9.8z"/><path class="st2" d="M319.1 130.3h9.8v9.8h-9.8z"/><circle cx="324" cy="135.1" r="1.9"/></g><g class="st1"><path class="st2" d="M319.1 120.5h9.8v9.8h-9.8z"/><path class="st2" d="M319.1 120.5h9.8v9.8h-9.8z"/><circle cx="324" cy="125.4" r="1.9"/></g><g class="st1"><path class="st2" d="M319.1 110.8h9.8v9.8h-9.8z"/><path class="st2" d="M319.1 110.8h9.8v9.8h-9.8z"/><circle cx="324" cy="115.6" r="1.9"/></g><g class="st1"><path class="st2" d="M319.1 101h9.8v9.8h-9.8z"/><path class="st2" d="M319.1 101h9.8v9.8h-9.8z"/><circle cx="324" cy="105.9" r="1.9"/></g><g class="st1"><path class="st2" d="M319.1 91.3h9.8v9.8h-9.8z"/><path class="st2" d="M319.1 91.3h9.8v9.8h-9.8z"/><circle cx="324" cy="96.1" r="1.9"/></g><g class="st1"><path class="st2" d="M319.1 81.5h9.8v9.8h-9.8z"/><path class="st2" d="M319.1 81.5h9.8v9.8h-9.8z"/><circle cx="324" cy="86.4" r="1.9"/></g><g class="st1"><path class="st2" d="M319.1 71.8h9.8v9.8h-9.8z"/><path class="st2" d="M319.1 71.8h9.8v9.8h-9.8z"/><circle cx="324" cy="76.6" r="1.9"/></g><g class="st1"><path class="st2" d="M319.1 62h9.8v9.8h-9.8z"/><path class="st2" d="M319.1 62h9.8v9.8h-9.8z"/><circle cx="324" cy="66.9" r="1.9"/></g><g class="st1"><path class="st2" d="M319.1 52.3h9.8v9.8h-9.8z"/><path class="st2" d="M319.1 52.3h9.8v9.8h-9.8z"/><circle cx="324" cy="57.1" r="1.9"/></g><g class="st1"><path class="st2" d="M319.1 42.5h9.8v9.8h-9.8z"/><path class="st2" d="M319.1 42.5h9.8v9.8h-9.8z"/><circle cx="324" cy="47.4" r="1.9"/></g><g class="st1"><path class="st2" d="M319.1 32.8h9.8v9.8h-9.8z"/><path class="st2" d="M319.1 32.8h9.8v9.8h-9.8z"/><circle cx="324" cy="37.6" r="1.9"/></g><g class="st1"><path class="st2" d="M319.1 23h9.8v9.8h-9.8z"/><path class="st2" d="M319.1 23h9.8v9.8h-9.8z"/><circle cx="324" cy="27.9" r="1.9"/></g><g class="st1"><path class="st2" d="M319.1 13.3h9.8v9.8h-9.8z"/><path class="st2" d="M319.1 13.3h9.8v9.8h-9.8z"/><circle cx="324" cy="18.1" r="1.9"/></g><g class="st1"><path class="st2" d="M319.1 3.5h9.8v9.8h-9.8z"/><path class="st2" d="M319.1 3.5h9.8v9.8h-9.8z"/><circle cx="324" cy="8.4" r="1.9"/></g><g class="st1"><path class="st2" d="M309.4 179h9.8v9.8h-9.8z"/><path class="st2" d="M309.4 179h9.8v9.8h-9.8z"/><circle cx="314.3" cy="183.9" r="1.9"/></g><g class="st1"><path class="st2" d="M309.4 169.3h9.8v9.8h-9.8z"/><path class="st2" d="M309.4 169.3h9.8v9.8h-9.8z"/><circle cx="314.3" cy="174.1" r="1.9"/></g><g class="st1"><path class="st2" d="M309.4 159.5h9.8v9.8h-9.8z"/><path class="st2" d="M309.4 159.5h9.8v9.8h-9.8z"/><circle cx="314.3" cy="164.4" r="1.9"/></g><g class="st1"><path class="st2" d="M309.4 149.8h9.8v9.8h-9.8z"/><path class="st2" d="M309.4 149.8h9.8v9.8h-9.8z"/><circle cx="314.3" cy="154.6" r="1.9"/></g><g class="st1"><path class="st2" d="M309.4 140h9.8v9.8h-9.8z"/><path class="st2" d="M309.4 140h9.8v9.8h-9.8z"/><circle cx="314.3" cy="144.9" r="1.9"/></g><g class="st1"><path class="st2" d="M309.4 130.3h9.8v9.8h-9.8z"/><path class="st2" d="M309.4 130.3h9.8v9.8h-9.8z"/><circle cx="314.3" cy="135.1" r="1.9"/></g><g class="st1"><path class="st2" d="M309.4 120.5h9.8v9.8h-9.8z"/><path class="st2" d="M309.4 120.5h9.8v9.8h-9.8z"/><circle cx="314.3" cy="125.4" r="1.9"/></g><g class="st1"><path class="st2" d="M309.4 110.8h9.8v9.8h-9.8z"/><path class="st2" d="M309.4 110.8h9.8v9.8h-9.8z"/><circle cx="314.3" cy="115.6" r="1.9"/></g><g class="st1"><path class="st2" d="M309.4 101h9.8v9.8h-9.8z"/><path class="st2" d="M309.4 101h9.8v9.8h-9.8z"/><circle cx="314.3" cy="105.9" r="1.9"/></g><g class="st1"><path class="st2" d="M309.4 91.3h9.8v9.8h-9.8z"/><path class="st2" d="M309.4 91.3h9.8v9.8h-9.8z"/><circle cx="314.3" cy="96.1" r="1.9"/></g><g class="st1"><path class="st2" d="M309.4 81.5h9.8v9.8h-9.8z"/><path class="st2" d="M309.4 81.5h9.8v9.8h-9.8z"/><circle cx="314.3" cy="86.4" r="1.9"/></g><g class="st1"><path class="st2" d="M309.4 71.8h9.8v9.8h-9.8z"/><path class="st2" d="M309.4 71.8h9.8v9.8h-9.8z"/><circle cx="314.3" cy="76.6" r="1.9"/></g><g class="st1"><path class="st2" d="M309.4 62h9.8v9.8h-9.8z"/><path class="st2" d="M309.4 62h9.8v9.8h-9.8z"/><circle cx="314.3" cy="66.9" r="1.9"/></g><g class="st1"><path class="st2" d="M309.4 52.3h9.8v9.8h-9.8z"/><path class="st2" d="M309.4 52.3h9.8v9.8h-9.8z"/><circle cx="314.3" cy="57.1" r="1.9"/></g><g class="st1"><path class="st2" d="M309.4 42.5h9.8v9.8h-9.8z"/><path class="st2" d="M309.4 42.5h9.8v9.8h-9.8z"/><circle cx="314.3" cy="47.4" r="1.9"/></g><g class="st1"><path class="st2" d="M309.4 32.8h9.8v9.8h-9.8z"/><path class="st2" d="M309.4 32.8h9.8v9.8h-9.8z"/><circle cx="314.3" cy="37.6" r="1.9"/></g><g class="st1"><path class="st2" d="M309.4 23h9.8v9.8h-9.8z"/><path class="st2" d="M309.4 23h9.8v9.8h-9.8z"/><circle cx="314.3" cy="27.9" r="1.9"/></g><g class="st1"><path class="st2" d="M309.4 13.3h9.8v9.8h-9.8z"/><path class="st2" d="M309.4 13.3h9.8v9.8h-9.8z"/><circle cx="314.3" cy="18.1" r="1.9"/></g><g class="st1"><path class="st2" d="M309.4 3.5h9.8v9.8h-9.8z"/><path class="st2" d="M309.4 3.5h9.8v9.8h-9.8z"/><circle cx="314.3" cy="8.4" r="1.9"/></g><g class="st1"><path class="st2" d="M299.6 179h9.8v9.8h-9.8z"/><path class="st2" d="M299.6 179h9.8v9.8h-9.8z"/><circle cx="304.5" cy="183.9" r="1.9"/></g><g class="st1"><path class="st2" d="M299.6 169.3h9.8v9.8h-9.8z"/><path class="st2" d="M299.6 169.3h9.8v9.8h-9.8z"/><circle cx="304.5" cy="174.1" r="1.9"/></g><g class="st1"><path class="st2" d="M299.6 159.5h9.8v9.8h-9.8z"/><path class="st2" d="M299.6 159.5h9.8v9.8h-9.8z"/><circle cx="304.5" cy="164.4" r="1.9"/></g><g class="st1"><path class="st2" d="M299.6 149.8h9.8v9.8h-9.8z"/><path class="st2" d="M299.6 149.8h9.8v9.8h-9.8z"/><circle cx="304.5" cy="154.6" r="1.9"/></g><g class="st1"><path class="st2" d="M299.6 140h9.8v9.8h-9.8z"/><path class="st2" d="M299.6 140h9.8v9.8h-9.8z"/><circle cx="304.5" cy="144.9" r="1.9"/></g><g class="st1"><path class="st2" d="M299.6 130.3h9.8v9.8h-9.8z"/><path class="st2" d="M299.6 130.3h9.8v9.8h-9.8z"/><circle cx="304.5" cy="135.1" r="1.9"/></g><g class="st1"><path class="st2" d="M299.6 120.5h9.8v9.8h-9.8z"/><path class="st2" d="M299.6 120.5h9.8v9.8h-9.8z"/><circle cx="304.5" cy="125.4" r="1.9"/></g><g class="st1"><path class="st2" d="M299.6 110.8h9.8v9.8h-9.8z"/><path class="st2" d="M299.6 110.8h9.8v9.8h-9.8z"/><circle cx="304.5" cy="115.6" r="1.9"/></g><g class="st1"><path class="st2" d="M299.6 101h9.8v9.8h-9.8z"/><path class="st2" d="M299.6 101h9.8v9.8h-9.8z"/><circle cx="304.5" cy="105.9" r="1.9"/></g><g class="st1"><path class="st2" d="M299.6 91.3h9.8v9.8h-9.8z"/><path class="st2" d="M299.6 91.3h9.8v9.8h-9.8z"/><circle cx="304.5" cy="96.1" r="1.9"/></g><g class="st1"><path class="st2" d="M299.6 81.5h9.8v9.8h-9.8z"/><path class="st2" d="M299.6 81.5h9.8v9.8h-9.8z"/><circle cx="304.5" cy="86.4" r="1.9"/></g><g class="st1"><path class="st2" d="M299.6 71.8h9.8v9.8h-9.8z"/><path class="st2" d="M299.6 71.8h9.8v9.8h-9.8z"/><circle cx="304.5" cy="76.6" r="1.9"/></g><g class="st1"><path class="st2" d="M299.6 62h9.8v9.8h-9.8z"/><path class="st2" d="M299.6 62h9.8v9.8h-9.8z"/><circle cx="304.5" cy="66.9" r="1.9"/></g><g class="st1"><path class="st2" d="M299.6 52.3h9.8v9.8h-9.8z"/><path class="st2" d="M299.6 52.3h9.8v9.8h-9.8z"/><circle cx="304.5" cy="57.1" r="1.9"/></g><g class="st1"><path class="st2" d="M299.6 42.5h9.8v9.8h-9.8z"/><path class="st2" d="M299.6 42.5h9.8v9.8h-9.8z"/><circle cx="304.5" cy="47.4" r="1.9"/></g><g class="st1"><path class="st2" d="M299.6 32.8h9.8v9.8h-9.8z"/><path class="st2" d="M299.6 32.8h9.8v9.8h-9.8z"/><circle cx="304.5" cy="37.6" r="1.9"/></g><g class="st1"><path class="st2" d="M299.6 23h9.8v9.8h-9.8z"/><path class="st2" d="M299.6 23h9.8v9.8h-9.8z"/><circle cx="304.5" cy="27.9" r="1.9"/></g><g class="st1"><path class="st2" d="M299.6 13.3h9.8v9.8h-9.8z"/><path class="st2" d="M299.6 13.3h9.8v9.8h-9.8z"/><circle cx="304.5" cy="18.1" r="1.9"/></g><g class="st1"><path class="st2" d="M299.6 3.5h9.8v9.8h-9.8z"/><path class="st2" d="M299.6 3.5h9.8v9.8h-9.8z"/><circle cx="304.5" cy="8.4" r="1.9"/></g><g class="st1"><path class="st2" d="M289.9 179h9.8v9.8h-9.8z"/><path class="st2" d="M289.9 179h9.8v9.8h-9.8z"/><circle cx="294.8" cy="183.9" r="1.9"/></g><g class="st1"><path class="st2" d="M289.9 169.3h9.8v9.8h-9.8z"/><path class="st2" d="M289.9 169.3h9.8v9.8h-9.8z"/><circle cx="294.8" cy="174.1" r="1.9"/></g><g class="st1"><path class="st2" d="M289.9 159.5h9.8v9.8h-9.8z"/><path class="st2" d="M289.9 159.5h9.8v9.8h-9.8z"/><circle cx="294.8" cy="164.4" r="1.9"/></g><g class="st1"><path class="st2" d="M289.9 149.8h9.8v9.8h-9.8z"/><path class="st2" d="M289.9 149.8h9.8v9.8h-9.8z"/><circle cx="294.8" cy="154.6" r="1.9"/></g><g class="st1"><path class="st2" d="M289.9 140h9.8v9.8h-9.8z"/><path class="st2" d="M289.9 140h9.8v9.8h-9.8z"/><circle cx="294.8" cy="144.9" r="1.9"/></g><g class="st1"><path class="st2" d="M289.9 130.3h9.8v9.8h-9.8z"/><path class="st2" d="M289.9 130.3h9.8v9.8h-9.8z"/><circle cx="294.8" cy="135.1" r="1.9"/></g><g class="st1"><path class="st2" d="M289.9 120.5h9.8v9.8h-9.8z"/><path class="st2" d="M289.9 120.5h9.8v9.8h-9.8z"/><circle cx="294.8" cy="125.4" r="1.9"/></g><g class="st1"><path class="st2" d="M289.9 110.8h9.8v9.8h-9.8z"/><path class="st2" d="M289.9 110.8h9.8v9.8h-9.8z"/><circle cx="294.8" cy="115.6" r="1.9"/></g><g class="st1"><path class="st2" d="M289.9 101h9.8v9.8h-9.8z"/><path class="st2" d="M289.9 101h9.8v9.8h-9.8z"/><circle cx="294.8" cy="105.9" r="1.9"/></g><g class="st1"><path class="st2" d="M289.9 91.3h9.8v9.8h-9.8z"/><path class="st2" d="M289.9 91.3h9.8v9.8h-9.8z"/><circle cx="294.8" cy="96.1" r="1.9"/></g><g class="st1"><path class="st2" d="M289.9 81.5h9.8v9.8h-9.8z"/><path class="st2" d="M289.9 81.5h9.8v9.8h-9.8z"/><circle cx="294.8" cy="86.4" r="1.9"/></g><g class="st1"><path class="st2" d="M289.9 71.8h9.8v9.8h-9.8z"/><path class="st2" d="M289.9 71.8h9.8v9.8h-9.8z"/><circle cx="294.8" cy="76.6" r="1.9"/></g><g class="st1"><path class="st2" d="M289.9 62h9.8v9.8h-9.8z"/><path class="st2" d="M289.9 62h9.8v9.8h-9.8z"/><circle cx="294.8" cy="66.9" r="1.9"/></g><g class="st1"><path class="st2" d="M289.9 52.3h9.8v9.8h-9.8z"/><path class="st2" d="M289.9 52.3h9.8v9.8h-9.8z"/><circle cx="294.8" cy="57.1" r="1.9"/></g><g class="st1"><path class="st2" d="M289.9 42.5h9.8v9.8h-9.8z"/><path class="st2" d="M289.9 42.5h9.8v9.8h-9.8z"/><circle cx="294.8" cy="47.4" r="1.9"/></g><g class="st1"><path class="st2" d="M289.9 32.8h9.8v9.8h-9.8z"/><path class="st2" d="M289.9 32.8h9.8v9.8h-9.8z"/><circle cx="294.8" cy="37.6" r="1.9"/></g><g class="st1"><path class="st2" d="M289.9 23h9.8v9.8h-9.8z"/><path class="st2" d="M289.9 23h9.8v9.8h-9.8z"/><circle cx="294.8" cy="27.9" r="1.9"/></g><g class="st1"><path class="st2" d="M289.9 13.3h9.8v9.8h-9.8z"/><path class="st2" d="M289.9 13.3h9.8v9.8h-9.8z"/><circle cx="294.8" cy="18.1" r="1.9"/></g><g class="st1"><path class="st2" d="M289.9 3.5h9.8v9.8h-9.8z"/><path class="st2" d="M289.9 3.5h9.8v9.8h-9.8z"/><circle cx="294.8" cy="8.4" r="1.9"/></g><g class="st1"><path class="st2" d="M280.1 179h9.8v9.8h-9.8z"/><path class="st2" d="M280.1 179h9.8v9.8h-9.8z"/><circle cx="285" cy="183.9" r="1.9"/></g><g class="st1"><path class="st2" d="M280.1 169.3h9.8v9.8h-9.8z"/><path class="st2" d="M280.1 169.3h9.8v9.8h-9.8z"/><circle cx="285" cy="174.1" r="1.9"/></g><g class="st1"><path class="st2" d="M280.1 159.5h9.8v9.8h-9.8z"/><path class="st2" d="M280.1 159.5h9.8v9.8h-9.8z"/><circle cx="285" cy="164.4" r="1.9"/></g><g class="st1"><path class="st2" d="M280.1 149.8h9.8v9.8h-9.8z"/><path class="st2" d="M280.1 149.8h9.8v9.8h-9.8z"/><circle cx="285" cy="154.6" r="1.9"/></g><g class="st1"><path class="st2" d="M280.1 140h9.8v9.8h-9.8z"/><path class="st2" d="M280.1 140h9.8v9.8h-9.8z"/><circle cx="285" cy="144.9" r="1.9"/></g><g class="st1"><path class="st2" d="M280.1 130.3h9.8v9.8h-9.8z"/><path class="st2" d="M280.1 130.3h9.8v9.8h-9.8z"/><circle cx="285" cy="135.1" r="1.9"/></g><g class="st1"><path class="st2" d="M280.1 120.5h9.8v9.8h-9.8z"/><path class="st2" d="M280.1 120.5h9.8v9.8h-9.8z"/><circle cx="285" cy="125.4" r="1.9"/></g><g class="st1"><path class="st2" d="M280.1 110.8h9.8v9.8h-9.8z"/><path class="st2" d="M280.1 110.8h9.8v9.8h-9.8z"/><circle cx="285" cy="115.6" r="1.9"/></g><g class="st1"><path class="st2" d="M280.1 101h9.8v9.8h-9.8z"/><path class="st2" d="M280.1 101h9.8v9.8h-9.8z"/><circle cx="285" cy="105.9" r="1.9"/></g><g class="st1"><path class="st2" d="M280.1 91.3h9.8v9.8h-9.8z"/><path class="st2" d="M280.1 91.3h9.8v9.8h-9.8z"/><circle cx="285" cy="96.1" r="1.9"/></g><g class="st1"><path class="st2" d="M280.1 81.5h9.8v9.8h-9.8z"/><path class="st2" d="M280.1 81.5h9.8v9.8h-9.8z"/><circle cx="285" cy="86.4" r="1.9"/></g><g class="st1"><path class="st2" d="M280.1 71.8h9.8v9.8h-9.8z"/><path class="st2" d="M280.1 71.8h9.8v9.8h-9.8z"/><circle cx="285" cy="76.6" r="1.9"/></g><g class="st1"><path class="st2" d="M280.1 62h9.8v9.8h-9.8z"/><path class="st2" d="M280.1 62h9.8v9.8h-9.8z"/><circle cx="285" cy="66.9" r="1.9"/></g><g class="st1"><path class="st2" d="M280.1 52.3h9.8v9.8h-9.8z"/><path class="st2" d="M280.1 52.3h9.8v9.8h-9.8z"/><circle cx="285" cy="57.1" r="1.9"/></g><g class="st1"><path class="st2" d="M280.1 42.5h9.8v9.8h-9.8z"/><path class="st2" d="M280.1 42.5h9.8v9.8h-9.8z"/><circle cx="285" cy="47.4" r="1.9"/></g><g class="st1"><path class="st2" d="M280.1 32.8h9.8v9.8h-9.8z"/><path class="st2" d="M280.1 32.8h9.8v9.8h-9.8z"/><circle cx="285" cy="37.6" r="1.9"/></g><g class="st1"><path class="st2" d="M280.1 23h9.8v9.8h-9.8z"/><path class="st2" d="M280.1 23h9.8v9.8h-9.8z"/><circle cx="285" cy="27.9" r="1.9"/></g><g class="st1"><path class="st2" d="M280.1 13.3h9.8v9.8h-9.8z"/><path class="st2" d="M280.1 13.3h9.8v9.8h-9.8z"/><circle cx="285" cy="18.1" r="1.9"/></g><g class="st1"><path class="st2" d="M280.1 3.5h9.8v9.8h-9.8z"/><path class="st2" d="M280.1 3.5h9.8v9.8h-9.8z"/><circle cx="285" cy="8.4" r="1.9"/></g><g class="st1"><path class="st2" d="M270.4 179h9.8v9.8h-9.8z"/><path class="st2" d="M270.4 179h9.8v9.8h-9.8z"/><circle cx="275.3" cy="183.9" r="1.9"/></g><g class="st1"><path class="st2" d="M270.4 169.3h9.8v9.8h-9.8z"/><path class="st2" d="M270.4 169.3h9.8v9.8h-9.8z"/><circle cx="275.3" cy="174.1" r="1.9"/></g><g class="st1"><path class="st2" d="M270.4 159.5h9.8v9.8h-9.8z"/><path class="st2" d="M270.4 159.5h9.8v9.8h-9.8z"/><circle cx="275.3" cy="164.4" r="1.9"/></g><g class="st1"><path class="st2" d="M270.4 149.8h9.8v9.8h-9.8z"/><path class="st2" d="M270.4 149.8h9.8v9.8h-9.8z"/><circle cx="275.3" cy="154.6" r="1.9"/></g><g class="st1"><path class="st2" d="M270.4 140h9.8v9.8h-9.8z"/><path class="st2" d="M270.4 140h9.8v9.8h-9.8z"/><circle cx="275.3" cy="144.9" r="1.9"/></g><g class="st1"><path class="st2" d="M270.4 130.3h9.8v9.8h-9.8z"/><path class="st2" d="M270.4 130.3h9.8v9.8h-9.8z"/><circle cx="275.3" cy="135.1" r="1.9"/></g><g class="st1"><path class="st2" d="M270.4 120.5h9.8v9.8h-9.8z"/><path class="st2" d="M270.4 120.5h9.8v9.8h-9.8z"/><circle cx="275.3" cy="125.4" r="1.9"/></g><g class="st1"><path class="st2" d="M270.4 110.8h9.8v9.8h-9.8z"/><path class="st2" d="M270.4 110.8h9.8v9.8h-9.8z"/><circle cx="275.3" cy="115.6" r="1.9"/></g><g class="st1"><path class="st2" d="M270.4 101h9.8v9.8h-9.8z"/><path class="st2" d="M270.4 101h9.8v9.8h-9.8z"/><circle cx="275.3" cy="105.9" r="1.9"/></g><g class="st1"><path class="st2" d="M270.4 91.3h9.8v9.8h-9.8z"/><path class="st2" d="M270.4 91.3h9.8v9.8h-9.8z"/><circle cx="275.3" cy="96.1" r="1.9"/></g><g class="st1"><path class="st2" d="M270.4 81.5h9.8v9.8h-9.8z"/><path class="st2" d="M270.4 81.5h9.8v9.8h-9.8z"/><circle cx="275.3" cy="86.4" r="1.9"/></g><g class="st1"><path class="st2" d="M270.4 71.8h9.8v9.8h-9.8z"/><path class="st2" d="M270.4 71.8h9.8v9.8h-9.8z"/><circle cx="275.3" cy="76.6" r="1.9"/></g><g class="st1"><path class="st2" d="M270.4 62h9.8v9.8h-9.8z"/><path class="st2" d="M270.4 62h9.8v9.8h-9.8z"/><circle cx="275.3" cy="66.9" r="1.9"/></g><g class="st1"><path class="st2" d="M270.4 52.3h9.8v9.8h-9.8z"/><path class="st2" d="M270.4 52.3h9.8v9.8h-9.8z"/><circle cx="275.3" cy="57.1" r="1.9"/></g><g class="st1"><path class="st2" d="M270.4 42.5h9.8v9.8h-9.8z"/><path class="st2" d="M270.4 42.5h9.8v9.8h-9.8z"/><circle cx="275.3" cy="47.4" r="1.9"/></g><g class="st1"><path class="st2" d="M270.4 32.8h9.8v9.8h-9.8z"/><path class="st2" d="M270.4 32.8h9.8v9.8h-9.8z"/><circle cx="275.3" cy="37.6" r="1.9"/></g><g class="st1"><path class="st2" d="M270.4 23h9.8v9.8h-9.8z"/><path class="st2" d="M270.4 23h9.8v9.8h-9.8z"/><circle cx="275.3" cy="27.9" r="1.9"/></g><g class="st1"><path class="st2" d="M270.4 13.3h9.8v9.8h-9.8z"/><path class="st2" d="M270.4 13.3h9.8v9.8h-9.8z"/><circle cx="275.3" cy="18.1" r="1.9"/></g><g class="st1"><path class="st2" d="M270.4 3.5h9.8v9.8h-9.8z"/><path class="st2" d="M270.4 3.5h9.8v9.8h-9.8z"/><circle cx="275.3" cy="8.4" r="1.9"/></g><g class="st1"><path class="st2" d="M260.6 179h9.8v9.8h-9.8z"/><path class="st2" d="M260.6 179h9.8v9.8h-9.8z"/><circle cx="265.5" cy="183.9" r="1.9"/></g><g class="st1"><path class="st2" d="M260.6 169.3h9.8v9.8h-9.8z"/><path class="st2" d="M260.6 169.3h9.8v9.8h-9.8z"/><circle cx="265.5" cy="174.1" r="1.9"/></g><g class="st1"><path class="st2" d="M260.6 159.5h9.8v9.8h-9.8z"/><path class="st2" d="M260.6 159.5h9.8v9.8h-9.8z"/><circle cx="265.5" cy="164.4" r="1.9"/></g><g class="st1"><path class="st2" d="M260.6 149.8h9.8v9.8h-9.8z"/><path class="st2" d="M260.6 149.8h9.8v9.8h-9.8z"/><circle cx="265.5" cy="154.6" r="1.9"/></g><g class="st1"><path class="st2" d="M260.6 140h9.8v9.8h-9.8z"/><path class="st2" d="M260.6 140h9.8v9.8h-9.8z"/><circle cx="265.5" cy="144.9" r="1.9"/></g><g class="st1"><path class="st2" d="M260.6 130.3h9.8v9.8h-9.8z"/><path class="st2" d="M260.6 130.3h9.8v9.8h-9.8z"/><circle cx="265.5" cy="135.1" r="1.9"/></g><g class="st1"><path class="st2" d="M260.6 120.5h9.8v9.8h-9.8z"/><path class="st2" d="M260.6 120.5h9.8v9.8h-9.8z"/><circle cx="265.5" cy="125.4" r="1.9"/></g><g class="st1"><path class="st2" d="M260.6 110.8h9.8v9.8h-9.8z"/><path class="st2" d="M260.6 110.8h9.8v9.8h-9.8z"/><circle cx="265.5" cy="115.6" r="1.9"/></g><g class="st1"><path class="st2" d="M260.6 101h9.8v9.8h-9.8z"/><path class="st2" d="M260.6 101h9.8v9.8h-9.8z"/><circle cx="265.5" cy="105.9" r="1.9"/></g><g class="st1"><path class="st2" d="M260.6 91.3h9.8v9.8h-9.8z"/><path class="st2" d="M260.6 91.3h9.8v9.8h-9.8z"/><circle cx="265.5" cy="96.1" r="1.9"/></g><g class="st1"><path class="st2" d="M260.6 81.5h9.8v9.8h-9.8z"/><path class="st2" d="M260.6 81.5h9.8v9.8h-9.8z"/><circle cx="265.5" cy="86.4" r="1.9"/></g><g class="st1"><path class="st2" d="M260.6 71.8h9.8v9.8h-9.8z"/><path class="st2" d="M260.6 71.8h9.8v9.8h-9.8z"/><circle cx="265.5" cy="76.6" r="1.9"/></g><g class="st1"><path class="st2" d="M260.6 62h9.8v9.8h-9.8z"/><path class="st2" d="M260.6 62h9.8v9.8h-9.8z"/><circle cx="265.5" cy="66.9" r="1.9"/></g><g class="st1"><path class="st2" d="M260.6 52.3h9.8v9.8h-9.8z"/><path class="st2" d="M260.6 52.3h9.8v9.8h-9.8z"/><circle cx="265.5" cy="57.1" r="1.9"/></g><g class="st1"><path class="st2" d="M260.6 42.5h9.8v9.8h-9.8z"/><path class="st2" d="M260.6 42.5h9.8v9.8h-9.8z"/><circle cx="265.5" cy="47.4" r="1.9"/></g><g class="st1"><path class="st2" d="M260.6 32.8h9.8v9.8h-9.8z"/><path class="st2" d="M260.6 32.8h9.8v9.8h-9.8z"/><circle cx="265.5" cy="37.6" r="1.9"/></g><g class="st1"><path class="st2" d="M260.6 23h9.8v9.8h-9.8z"/><path class="st2" d="M260.6 23h9.8v9.8h-9.8z"/><circle cx="265.5" cy="27.9" r="1.9"/></g><g class="st1"><path class="st2" d="M260.6 13.3h9.8v9.8h-9.8z"/><path class="st2" d="M260.6 13.3h9.8v9.8h-9.8z"/><circle cx="265.5" cy="18.1" r="1.9"/></g><g class="st1"><path class="st2" d="M260.6 3.5h9.8v9.8h-9.8z"/><path class="st2" d="M260.6 3.5h9.8v9.8h-9.8z"/><circle cx="265.5" cy="8.4" r="1.9"/></g><g class="st1"><path class="st2" d="M250.9 179h9.8v9.8h-9.8z"/><path class="st2" d="M250.9 179h9.8v9.8h-9.8z"/><circle cx="255.8" cy="183.9" r="1.9"/></g><g class="st1"><path class="st2" d="M250.9 169.3h9.8v9.8h-9.8z"/><path class="st2" d="M250.9 169.3h9.8v9.8h-9.8z"/><circle cx="255.8" cy="174.1" r="1.9"/></g><g class="st1"><path class="st2" d="M250.9 159.5h9.8v9.8h-9.8z"/><path class="st2" d="M250.9 159.5h9.8v9.8h-9.8z"/><circle cx="255.8" cy="164.4" r="1.9"/></g><g class="st1"><path class="st2" d="M250.9 149.8h9.8v9.8h-9.8z"/><path class="st2" d="M250.9 149.8h9.8v9.8h-9.8z"/><circle cx="255.8" cy="154.6" r="1.9"/></g><g class="st1"><path class="st2" d="M250.9 140h9.8v9.8h-9.8z"/><path class="st2" d="M250.9 140h9.8v9.8h-9.8z"/><circle cx="255.8" cy="144.9" r="1.9"/></g><g class="st1"><path class="st2" d="M250.9 130.3h9.8v9.8h-9.8z"/><path class="st2" d="M250.9 130.3h9.8v9.8h-9.8z"/><circle cx="255.8" cy="135.1" r="1.9"/></g><g class="st1"><path class="st2" d="M250.9 120.5h9.8v9.8h-9.8z"/><path class="st2" d="M250.9 120.5h9.8v9.8h-9.8z"/><circle cx="255.8" cy="125.4" r="1.9"/></g><g class="st1"><path class="st2" d="M250.9 110.8h9.8v9.8h-9.8z"/><path class="st2" d="M250.9 110.8h9.8v9.8h-9.8z"/><circle cx="255.8" cy="115.6" r="1.9"/></g><g class="st1"><path class="st2" d="M250.9 101h9.8v9.8h-9.8z"/><path class="st2" d="M250.9 101h9.8v9.8h-9.8z"/><circle cx="255.8" cy="105.9" r="1.9"/></g><g class="st1"><path class="st2" d="M250.9 91.3h9.8v9.8h-9.8z"/><path class="st2" d="M250.9 91.3h9.8v9.8h-9.8z"/><circle cx="255.8" cy="96.1" r="1.9"/></g><g class="st1"><path class="st2" d="M250.9 81.5h9.8v9.8h-9.8z"/><path class="st2" d="M250.9 81.5h9.8v9.8h-9.8z"/><circle cx="255.8" cy="86.4" r="1.9"/></g><g class="st1"><path class="st2" d="M250.9 71.8h9.8v9.8h-9.8z"/><path class="st2" d="M250.9 71.8h9.8v9.8h-9.8z"/><circle cx="255.8" cy="76.6" r="1.9"/></g><g class="st1"><path class="st2" d="M250.9 62h9.8v9.8h-9.8z"/><path class="st2" d="M250.9 62h9.8v9.8h-9.8z"/><circle cx="255.8" cy="66.9" r="1.9"/></g><g class="st1"><path class="st2" d="M250.9 52.3h9.8v9.8h-9.8z"/><path class="st2" d="M250.9 52.3h9.8v9.8h-9.8z"/><circle cx="255.8" cy="57.1" r="1.9"/></g><g class="st1"><path class="st2" d="M250.9 42.5h9.8v9.8h-9.8z"/><path class="st2" d="M250.9 42.5h9.8v9.8h-9.8z"/><circle cx="255.8" cy="47.4" r="1.9"/></g><g class="st1"><path class="st2" d="M250.9 32.8h9.8v9.8h-9.8z"/><path class="st2" d="M250.9 32.8h9.8v9.8h-9.8z"/><circle cx="255.8" cy="37.6" r="1.9"/></g><g class="st1"><path class="st2" d="M250.9 23h9.8v9.8h-9.8z"/><path class="st2" d="M250.9 23h9.8v9.8h-9.8z"/><circle cx="255.8" cy="27.9" r="1.9"/></g><g class="st1"><path class="st2" d="M250.9 13.3h9.8v9.8h-9.8z"/><path class="st2" d="M250.9 13.3h9.8v9.8h-9.8z"/><circle cx="255.8" cy="18.1" r="1.9"/></g><g class="st1"><path class="st2" d="M250.9 3.5h9.8v9.8h-9.8z"/><path class="st2" d="M250.9 3.5h9.8v9.8h-9.8z"/><circle cx="255.8" cy="8.4" r="1.9"/></g><g class="st1"><path class="st2" d="M241.1 179h9.8v9.8h-9.8z"/><path class="st2" d="M241.1 179h9.8v9.8h-9.8z"/><circle cx="246" cy="183.9" r="1.9"/></g><g class="st1"><path class="st2" d="M241.1 169.3h9.8v9.8h-9.8z"/><path class="st2" d="M241.1 169.3h9.8v9.8h-9.8z"/><circle cx="246" cy="174.1" r="1.9"/></g><g class="st1"><path class="st2" d="M241.1 159.5h9.8v9.8h-9.8z"/><path class="st2" d="M241.1 159.5h9.8v9.8h-9.8z"/><circle cx="246" cy="164.4" r="1.9"/></g><g class="st1"><path class="st2" d="M241.1 149.8h9.8v9.8h-9.8z"/><path class="st2" d="M241.1 149.8h9.8v9.8h-9.8z"/><circle cx="246" cy="154.6" r="1.9"/></g><g class="st1"><path class="st2" d="M241.1 140h9.8v9.8h-9.8z"/><path class="st2" d="M241.1 140h9.8v9.8h-9.8z"/><circle cx="246" cy="144.9" r="1.9"/></g><g class="st1"><path class="st2" d="M241.1 130.3h9.8v9.8h-9.8z"/><path class="st2" d="M241.1 130.3h9.8v9.8h-9.8z"/><circle cx="246" cy="135.1" r="1.9"/></g><g class="st1"><path class="st2" d="M241.1 120.5h9.8v9.8h-9.8z"/><path class="st2" d="M241.1 120.5h9.8v9.8h-9.8z"/><circle cx="246" cy="125.4" r="1.9"/></g><g class="st1"><path class="st2" d="M241.1 110.8h9.8v9.8h-9.8z"/><path class="st2" d="M241.1 110.8h9.8v9.8h-9.8z"/><circle cx="246" cy="115.6" r="1.9"/></g><g class="st1"><path class="st2" d="M241.1 101h9.8v9.8h-9.8z"/><path class="st2" d="M241.1 101h9.8v9.8h-9.8z"/><circle cx="246" cy="105.9" r="1.9"/></g><g class="st1"><path class="st2" d="M241.1 91.3h9.8v9.8h-9.8z"/><path class="st2" d="M241.1 91.3h9.8v9.8h-9.8z"/><circle cx="246" cy="96.1" r="1.9"/></g><g class="st1"><path class="st2" d="M241.1 81.5h9.8v9.8h-9.8z"/><path class="st2" d="M241.1 81.5h9.8v9.8h-9.8z"/><circle cx="246" cy="86.4" r="1.9"/></g><g class="st1"><path class="st2" d="M241.1 71.8h9.8v9.8h-9.8z"/><path class="st2" d="M241.1 71.8h9.8v9.8h-9.8z"/><circle cx="246" cy="76.6" r="1.9"/></g><g class="st1"><path class="st2" d="M241.1 62h9.8v9.8h-9.8z"/><path class="st2" d="M241.1 62h9.8v9.8h-9.8z"/><circle cx="246" cy="66.9" r="1.9"/></g><g class="st1"><path class="st2" d="M241.1 52.3h9.8v9.8h-9.8z"/><path class="st2" d="M241.1 52.3h9.8v9.8h-9.8z"/><circle cx="246" cy="57.1" r="1.9"/></g><g class="st1"><path class="st2" d="M241.1 42.5h9.8v9.8h-9.8z"/><path class="st2" d="M241.1 42.5h9.8v9.8h-9.8z"/><circle cx="246" cy="47.4" r="1.9"/></g><g class="st1"><path class="st2" d="M241.1 32.8h9.8v9.8h-9.8z"/><path class="st2" d="M241.1 32.8h9.8v9.8h-9.8z"/><circle cx="246" cy="37.6" r="1.9"/></g><g class="st1"><path class="st2" d="M241.1 23h9.8v9.8h-9.8z"/><path class="st2" d="M241.1 23h9.8v9.8h-9.8z"/><circle cx="246" cy="27.9" r="1.9"/></g><g class="st1"><path class="st2" d="M241.1 13.3h9.8v9.8h-9.8z"/><path class="st2" d="M241.1 13.3h9.8v9.8h-9.8z"/><circle cx="246" cy="18.1" r="1.9"/></g><g class="st1"><path class="st2" d="M241.1 3.5h9.8v9.8h-9.8z"/><path class="st2" d="M241.1 3.5h9.8v9.8h-9.8z"/><circle cx="246" cy="8.4" r="1.9"/></g><g class="st1"><path class="st2" d="M231.4 179h9.8v9.8h-9.8z"/><path class="st2" d="M231.4 179h9.8v9.8h-9.8z"/><circle cx="236.3" cy="183.9" r="1.9"/></g><g class="st1"><path class="st2" d="M231.4 169.3h9.8v9.8h-9.8z"/><path class="st2" d="M231.4 169.3h9.8v9.8h-9.8z"/><circle cx="236.3" cy="174.1" r="1.9"/></g><g class="st1"><path class="st2" d="M231.4 159.5h9.8v9.8h-9.8z"/><path class="st2" d="M231.4 159.5h9.8v9.8h-9.8z"/><circle cx="236.3" cy="164.4" r="1.9"/></g><g class="st1"><path class="st2" d="M231.4 149.8h9.8v9.8h-9.8z"/><path class="st2" d="M231.4 149.8h9.8v9.8h-9.8z"/><circle cx="236.3" cy="154.6" r="1.9"/></g><g class="st1"><path class="st2" d="M231.4 140h9.8v9.8h-9.8z"/><path class="st2" d="M231.4 140h9.8v9.8h-9.8z"/><circle cx="236.3" cy="144.9" r="1.9"/></g><g class="st1"><path class="st2" d="M231.4 130.3h9.8v9.8h-9.8z"/><path class="st2" d="M231.4 130.3h9.8v9.8h-9.8z"/><circle cx="236.3" cy="135.1" r="1.9"/></g><g class="st1"><path class="st2" d="M231.4 120.5h9.8v9.8h-9.8z"/><path class="st2" d="M231.4 120.5h9.8v9.8h-9.8z"/><circle cx="236.3" cy="125.4" r="1.9"/></g><g class="st1"><path class="st2" d="M231.4 110.8h9.8v9.8h-9.8z"/><path class="st2" d="M231.4 110.8h9.8v9.8h-9.8z"/><circle cx="236.3" cy="115.6" r="1.9"/></g><g class="st1"><path class="st2" d="M231.4 101h9.8v9.8h-9.8z"/><path class="st2" d="M231.4 101h9.8v9.8h-9.8z"/><circle cx="236.3" cy="105.9" r="1.9"/></g><g class="st1"><path class="st2" d="M231.4 91.3h9.8v9.8h-9.8z"/><path class="st2" d="M231.4 91.3h9.8v9.8h-9.8z"/><circle cx="236.3" cy="96.1" r="1.9"/></g><g class="st1"><path class="st2" d="M231.4 81.5h9.8v9.8h-9.8z"/><path class="st2" d="M231.4 81.5h9.8v9.8h-9.8z"/><circle cx="236.3" cy="86.4" r="1.9"/></g><g class="st1"><path class="st2" d="M231.4 71.8h9.8v9.8h-9.8z"/><path class="st2" d="M231.4 71.8h9.8v9.8h-9.8z"/><circle cx="236.3" cy="76.6" r="1.9"/></g><g class="st1"><path class="st2" d="M231.4 62h9.8v9.8h-9.8z"/><path class="st2" d="M231.4 62h9.8v9.8h-9.8z"/><circle cx="236.3" cy="66.9" r="1.9"/></g><g class="st1"><path class="st2" d="M231.4 52.3h9.8v9.8h-9.8z"/><path class="st2" d="M231.4 52.3h9.8v9.8h-9.8z"/><circle cx="236.3" cy="57.1" r="1.9"/></g><g class="st1"><path class="st2" d="M231.4 42.5h9.8v9.8h-9.8z"/><path class="st2" d="M231.4 42.5h9.8v9.8h-9.8z"/><circle cx="236.3" cy="47.4" r="1.9"/></g><g class="st1"><path class="st2" d="M231.4 32.8h9.8v9.8h-9.8z"/><path class="st2" d="M231.4 32.8h9.8v9.8h-9.8z"/><circle cx="236.3" cy="37.6" r="1.9"/></g><g class="st1"><path class="st2" d="M231.4 23h9.8v9.8h-9.8z"/><path class="st2" d="M231.4 23h9.8v9.8h-9.8z"/><circle cx="236.3" cy="27.9" r="1.9"/></g><g class="st1"><path class="st2" d="M231.4 13.3h9.8v9.8h-9.8z"/><path class="st2" d="M231.4 13.3h9.8v9.8h-9.8z"/><circle cx="236.3" cy="18.1" r="1.9"/></g><g class="st1"><path class="st2" d="M231.4 3.5h9.8v9.8h-9.8z"/><path class="st2" d="M231.4 3.5h9.8v9.8h-9.8z"/><circle cx="236.3" cy="8.4" r="1.9"/></g><g class="st1"><path class="st2" d="M221.6 179h9.8v9.8h-9.8z"/><path class="st2" d="M221.6 179h9.8v9.8h-9.8z"/><circle cx="226.5" cy="183.9" r="1.9"/></g><g class="st1"><path class="st2" d="M221.6 169.3h9.8v9.8h-9.8z"/><path class="st2" d="M221.6 169.3h9.8v9.8h-9.8z"/><circle cx="226.5" cy="174.1" r="1.9"/></g><g class="st1"><path class="st2" d="M221.6 159.5h9.8v9.8h-9.8z"/><path class="st2" d="M221.6 159.5h9.8v9.8h-9.8z"/><circle cx="226.5" cy="164.4" r="1.9"/></g><g class="st1"><path class="st2" d="M221.6 149.8h9.8v9.8h-9.8z"/><path class="st2" d="M221.6 149.8h9.8v9.8h-9.8z"/><circle cx="226.5" cy="154.6" r="1.9"/></g><g class="st1"><path class="st2" d="M221.6 140h9.8v9.8h-9.8z"/><path class="st2" d="M221.6 140h9.8v9.8h-9.8z"/><circle cx="226.5" cy="144.9" r="1.9"/></g><g class="st1"><path class="st2" d="M221.6 130.3h9.8v9.8h-9.8z"/><path class="st2" d="M221.6 130.3h9.8v9.8h-9.8z"/><circle cx="226.5" cy="135.1" r="1.9"/></g><g class="st1"><path class="st2" d="M221.6 120.5h9.8v9.8h-9.8z"/><path class="st2" d="M221.6 120.5h9.8v9.8h-9.8z"/><circle cx="226.5" cy="125.4" r="1.9"/></g><g class="st1"><path class="st2" d="M221.6 110.8h9.8v9.8h-9.8z"/><path class="st2" d="M221.6 110.8h9.8v9.8h-9.8z"/><circle cx="226.5" cy="115.6" r="1.9"/></g><g class="st1"><path class="st2" d="M221.6 101h9.8v9.8h-9.8z"/><path class="st2" d="M221.6 101h9.8v9.8h-9.8z"/><circle cx="226.5" cy="105.9" r="1.9"/></g><g class="st1"><path class="st2" d="M221.6 91.3h9.8v9.8h-9.8z"/><path class="st2" d="M221.6 91.3h9.8v9.8h-9.8z"/><circle cx="226.5" cy="96.1" r="1.9"/></g><g class="st1"><path class="st2" d="M221.6 81.5h9.8v9.8h-9.8z"/><path class="st2" d="M221.6 81.5h9.8v9.8h-9.8z"/><circle cx="226.5" cy="86.4" r="1.9"/></g><g class="st1"><path class="st2" d="M221.6 71.8h9.8v9.8h-9.8z"/><path class="st2" d="M221.6 71.8h9.8v9.8h-9.8z"/><circle cx="226.5" cy="76.6" r="1.9"/></g><g class="st1"><path class="st2" d="M221.6 62h9.8v9.8h-9.8z"/><path class="st2" d="M221.6 62h9.8v9.8h-9.8z"/><circle cx="226.5" cy="66.9" r="1.9"/></g><g class="st1"><path class="st2" d="M221.6 52.3h9.8v9.8h-9.8z"/><path class="st2" d="M221.6 52.3h9.8v9.8h-9.8z"/><circle cx="226.5" cy="57.1" r="1.9"/></g><g class="st1"><path class="st2" d="M221.6 42.5h9.8v9.8h-9.8z"/><path class="st2" d="M221.6 42.5h9.8v9.8h-9.8z"/><circle cx="226.5" cy="47.4" r="1.9"/></g><g class="st1"><path class="st2" d="M221.6 32.8h9.8v9.8h-9.8z"/><path class="st2" d="M221.6 32.8h9.8v9.8h-9.8z"/><circle cx="226.5" cy="37.6" r="1.9"/></g><g class="st1"><path class="st2" d="M221.6 23h9.8v9.8h-9.8z"/><path class="st2" d="M221.6 23h9.8v9.8h-9.8z"/><circle cx="226.5" cy="27.9" r="1.9"/></g><g class="st1"><path class="st2" d="M221.6 13.3h9.8v9.8h-9.8z"/><path class="st2" d="M221.6 13.3h9.8v9.8h-9.8z"/><circle cx="226.5" cy="18.1" r="1.9"/></g><g class="st1"><path class="st2" d="M221.6 3.5h9.8v9.8h-9.8z"/><path class="st2" d="M221.6 3.5h9.8v9.8h-9.8z"/><circle cx="226.5" cy="8.4" r="1.9"/></g><g class="st1"><path class="st2" d="M211.9 179h9.8v9.8h-9.8z"/><path class="st2" d="M211.9 179h9.8v9.8h-9.8z"/><circle cx="216.8" cy="183.9" r="1.9"/></g><g class="st1"><path class="st2" d="M211.9 169.3h9.8v9.8h-9.8z"/><path class="st2" d="M211.9 169.3h9.8v9.8h-9.8z"/><circle cx="216.8" cy="174.1" r="1.9"/></g><g class="st1"><path class="st2" d="M211.9 159.5h9.8v9.8h-9.8z"/><path class="st2" d="M211.9 159.5h9.8v9.8h-9.8z"/><circle cx="216.8" cy="164.4" r="1.9"/></g><g class="st1"><path class="st2" d="M211.9 149.8h9.8v9.8h-9.8z"/><path class="st2" d="M211.9 149.8h9.8v9.8h-9.8z"/><circle cx="216.8" cy="154.6" r="1.9"/></g><g class="st1"><path class="st2" d="M211.9 140h9.8v9.8h-9.8z"/><path class="st2" d="M211.9 140h9.8v9.8h-9.8z"/><circle cx="216.8" cy="144.9" r="1.9"/></g><g class="st1"><path class="st2" d="M211.9 130.3h9.8v9.8h-9.8z"/><path class="st2" d="M211.9 130.3h9.8v9.8h-9.8z"/><circle cx="216.8" cy="135.1" r="1.9"/></g><g class="st1"><path class="st2" d="M211.9 120.5h9.8v9.8h-9.8z"/><path class="st2" d="M211.9 120.5h9.8v9.8h-9.8z"/><circle cx="216.8" cy="125.4" r="1.9"/></g><g class="st1"><path class="st2" d="M211.9 110.8h9.8v9.8h-9.8z"/><path class="st2" d="M211.9 110.8h9.8v9.8h-9.8z"/><circle cx="216.8" cy="115.6" r="1.9"/></g><g class="st1"><path class="st2" d="M211.9 101h9.8v9.8h-9.8z"/><path class="st2" d="M211.9 101h9.8v9.8h-9.8z"/><circle cx="216.8" cy="105.9" r="1.9"/></g><g class="st1"><path class="st2" d="M211.9 91.3h9.8v9.8h-9.8z"/><path class="st2" d="M211.9 91.3h9.8v9.8h-9.8z"/><circle cx="216.8" cy="96.1" r="1.9"/></g><g class="st1"><path class="st2" d="M211.9 81.5h9.8v9.8h-9.8z"/><path class="st2" d="M211.9 81.5h9.8v9.8h-9.8z"/><circle cx="216.8" cy="86.4" r="1.9"/></g><g class="st1"><path class="st2" d="M211.9 71.8h9.8v9.8h-9.8z"/><path class="st2" d="M211.9 71.8h9.8v9.8h-9.8z"/><circle cx="216.8" cy="76.6" r="1.9"/></g><g class="st1"><path class="st2" d="M211.9 62h9.8v9.8h-9.8z"/><path class="st2" d="M211.9 62h9.8v9.8h-9.8z"/><circle cx="216.8" cy="66.9" r="1.9"/></g><g class="st1"><path class="st2" d="M211.9 52.3h9.8v9.8h-9.8z"/><path class="st2" d="M211.9 52.3h9.8v9.8h-9.8z"/><circle cx="216.8" cy="57.1" r="1.9"/></g><g class="st1"><path class="st2" d="M211.9 42.5h9.8v9.8h-9.8z"/><path class="st2" d="M211.9 42.5h9.8v9.8h-9.8z"/><circle cx="216.8" cy="47.4" r="1.9"/></g><g class="st1"><path class="st2" d="M211.9 32.8h9.8v9.8h-9.8z"/><path class="st2" d="M211.9 32.8h9.8v9.8h-9.8z"/><circle cx="216.8" cy="37.6" r="1.9"/></g><g class="st1"><path class="st2" d="M211.9 23h9.8v9.8h-9.8z"/><path class="st2" d="M211.9 23h9.8v9.8h-9.8z"/><circle cx="216.8" cy="27.9" r="1.9"/></g><g class="st1"><path class="st2" d="M211.9 13.3h9.8v9.8h-9.8z"/><path class="st2" d="M211.9 13.3h9.8v9.8h-9.8z"/><circle cx="216.8" cy="18.1" r="1.9"/></g><g class="st1"><path class="st2" d="M211.9 3.5h9.8v9.8h-9.8z"/><path class="st2" d="M211.9 3.5h9.8v9.8h-9.8z"/><circle cx="216.8" cy="8.4" r="1.9"/></g><g class="st1"><path class="st2" d="M202.1 179h9.8v9.8h-9.8z"/><path class="st2" d="M202.1 179h9.8v9.8h-9.8z"/><circle cx="207" cy="183.9" r="1.9"/></g><g class="st1"><path class="st2" d="M202.1 169.3h9.8v9.8h-9.8z"/><path class="st2" d="M202.1 169.3h9.8v9.8h-9.8z"/><circle cx="207" cy="174.1" r="1.9"/></g><g class="st1"><path class="st2" d="M202.1 159.5h9.8v9.8h-9.8z"/><path class="st2" d="M202.1 159.5h9.8v9.8h-9.8z"/><circle cx="207" cy="164.4" r="1.9"/></g><g class="st1"><path class="st2" d="M202.1 149.8h9.8v9.8h-9.8z"/><path class="st2" d="M202.1 149.8h9.8v9.8h-9.8z"/><circle cx="207" cy="154.6" r="1.9"/></g><g class="st1"><path class="st2" d="M202.1 140h9.8v9.8h-9.8z"/><path class="st2" d="M202.1 140h9.8v9.8h-9.8z"/><circle cx="207" cy="144.9" r="1.9"/></g><g class="st1"><path class="st2" d="M202.1 130.3h9.8v9.8h-9.8z"/><path class="st2" d="M202.1 130.3h9.8v9.8h-9.8z"/><circle cx="207" cy="135.1" r="1.9"/></g><g class="st1"><path class="st2" d="M202.1 120.5h9.8v9.8h-9.8z"/><path class="st2" d="M202.1 120.5h9.8v9.8h-9.8z"/><circle cx="207" cy="125.4" r="1.9"/></g><g class="st1"><path class="st2" d="M202.1 110.8h9.8v9.8h-9.8z"/><path class="st2" d="M202.1 110.8h9.8v9.8h-9.8z"/><circle cx="207" cy="115.6" r="1.9"/></g><g class="st1"><path class="st2" d="M202.1 101h9.8v9.8h-9.8z"/><path class="st2" d="M202.1 101h9.8v9.8h-9.8z"/><circle cx="207" cy="105.9" r="1.9"/></g><g class="st1"><path class="st2" d="M202.1 91.3h9.8v9.8h-9.8z"/><path class="st2" d="M202.1 91.3h9.8v9.8h-9.8z"/><circle cx="207" cy="96.1" r="1.9"/></g><g class="st1"><path class="st2" d="M202.1 81.5h9.8v9.8h-9.8z"/><path class="st2" d="M202.1 81.5h9.8v9.8h-9.8z"/><circle cx="207" cy="86.4" r="1.9"/></g><g class="st1"><path class="st2" d="M202.1 71.8h9.8v9.8h-9.8z"/><path class="st2" d="M202.1 71.8h9.8v9.8h-9.8z"/><circle cx="207" cy="76.6" r="1.9"/></g><g class="st1"><path class="st2" d="M202.1 62h9.8v9.8h-9.8z"/><path class="st2" d="M202.1 62h9.8v9.8h-9.8z"/><circle cx="207" cy="66.9" r="1.9"/></g><g class="st1"><path class="st2" d="M202.1 52.3h9.8v9.8h-9.8z"/><path class="st2" d="M202.1 52.3h9.8v9.8h-9.8z"/><circle cx="207" cy="57.1" r="1.9"/></g><g class="st1"><path class="st2" d="M202.1 42.5h9.8v9.8h-9.8z"/><path class="st2" d="M202.1 42.5h9.8v9.8h-9.8z"/><circle cx="207" cy="47.4" r="1.9"/></g><g class="st1"><path class="st2" d="M202.1 32.8h9.8v9.8h-9.8z"/><path class="st2" d="M202.1 32.8h9.8v9.8h-9.8z"/><circle cx="207" cy="37.6" r="1.9"/></g><g class="st1"><path class="st2" d="M202.1 23h9.8v9.8h-9.8z"/><path class="st2" d="M202.1 23h9.8v9.8h-9.8z"/><circle cx="207" cy="27.9" r="1.9"/></g><g class="st1"><path class="st2" d="M202.1 13.3h9.8v9.8h-9.8z"/><path class="st2" d="M202.1 13.3h9.8v9.8h-9.8z"/><circle cx="207" cy="18.1" r="1.9"/></g><g class="st1"><path class="st2" d="M202.1 3.5h9.8v9.8h-9.8z"/><path class="st2" d="M202.1 3.5h9.8v9.8h-9.8z"/><circle cx="207" cy="8.4" r="1.9"/></g><g class="st1"><path class="st2" d="M192.4 179h9.8v9.8h-9.8z"/><path class="st2" d="M192.4 179h9.8v9.8h-9.8z"/><circle cx="197.3" cy="183.9" r="1.9"/></g><g class="st1"><path class="st2" d="M192.4 169.3h9.8v9.8h-9.8z"/><path class="st2" d="M192.4 169.3h9.8v9.8h-9.8z"/><circle cx="197.3" cy="174.1" r="1.9"/></g><g class="st1"><path class="st2" d="M192.4 159.5h9.8v9.8h-9.8z"/><path class="st2" d="M192.4 159.5h9.8v9.8h-9.8z"/><circle cx="197.3" cy="164.4" r="1.9"/></g><g class="st1"><path class="st2" d="M192.4 149.8h9.8v9.8h-9.8z"/><path class="st2" d="M192.4 149.8h9.8v9.8h-9.8z"/><circle cx="197.3" cy="154.6" r="1.9"/></g><g class="st1"><path class="st2" d="M192.4 140h9.8v9.8h-9.8z"/><path class="st2" d="M192.4 140h9.8v9.8h-9.8z"/><circle cx="197.3" cy="144.9" r="1.9"/></g><g class="st1"><path class="st2" d="M192.4 130.3h9.8v9.8h-9.8z"/><path class="st2" d="M192.4 130.3h9.8v9.8h-9.8z"/><circle cx="197.3" cy="135.1" r="1.9"/></g><g class="st1"><path class="st2" d="M192.4 120.5h9.8v9.8h-9.8z"/><path class="st2" d="M192.4 120.5h9.8v9.8h-9.8z"/><circle cx="197.3" cy="125.4" r="1.9"/></g><g class="st1"><path class="st2" d="M192.4 110.8h9.8v9.8h-9.8z"/><path class="st2" d="M192.4 110.8h9.8v9.8h-9.8z"/><circle cx="197.3" cy="115.6" r="1.9"/></g><g class="st1"><path class="st2" d="M192.4 101h9.8v9.8h-9.8z"/><path class="st2" d="M192.4 101h9.8v9.8h-9.8z"/><circle cx="197.3" cy="105.9" r="1.9"/></g><g class="st1"><path class="st2" d="M192.4 91.3h9.8v9.8h-9.8z"/><path class="st2" d="M192.4 91.3h9.8v9.8h-9.8z"/><circle cx="197.3" cy="96.1" r="1.9"/></g><g class="st1"><path class="st2" d="M192.4 81.5h9.8v9.8h-9.8z"/><path class="st2" d="M192.4 81.5h9.8v9.8h-9.8z"/><circle cx="197.3" cy="86.4" r="1.9"/></g><g class="st1"><path class="st2" d="M192.4 71.8h9.8v9.8h-9.8z"/><path class="st2" d="M192.4 71.8h9.8v9.8h-9.8z"/><circle cx="197.3" cy="76.6" r="1.9"/></g><g class="st1"><path class="st2" d="M192.4 62h9.8v9.8h-9.8z"/><path class="st2" d="M192.4 62h9.8v9.8h-9.8z"/><circle cx="197.3" cy="66.9" r="1.9"/></g><g class="st1"><path class="st2" d="M192.4 52.3h9.8v9.8h-9.8z"/><path class="st2" d="M192.4 52.3h9.8v9.8h-9.8z"/><circle cx="197.3" cy="57.1" r="1.9"/></g><g class="st1"><path class="st2" d="M192.4 42.5h9.8v9.8h-9.8z"/><path class="st2" d="M192.4 42.5h9.8v9.8h-9.8z"/><circle cx="197.3" cy="47.4" r="1.9"/></g><g class="st1"><path class="st2" d="M192.4 32.8h9.8v9.8h-9.8z"/><path class="st2" d="M192.4 32.8h9.8v9.8h-9.8z"/><circle cx="197.3" cy="37.6" r="1.9"/></g><g class="st1"><path class="st2" d="M192.4 23h9.8v9.8h-9.8z"/><path class="st2" d="M192.4 23h9.8v9.8h-9.8z"/><circle cx="197.3" cy="27.9" r="1.9"/></g><g class="st1"><path class="st2" d="M192.4 13.3h9.8v9.8h-9.8z"/><path class="st2" d="M192.4 13.3h9.8v9.8h-9.8z"/><circle cx="197.3" cy="18.1" r="1.9"/></g><g class="st1"><path class="st2" d="M192.4 3.5h9.8v9.8h-9.8z"/><path class="st2" d="M192.4 3.5h9.8v9.8h-9.8z"/><circle cx="197.3" cy="8.4" r="1.9"/></g><g class="st1"><path class="st2" d="M182.6 179h9.8v9.8h-9.8z"/><path class="st2" d="M182.6 179h9.8v9.8h-9.8z"/><circle cx="187.5" cy="183.9" r="1.9"/></g><g class="st1"><path class="st2" d="M182.6 169.3h9.8v9.8h-9.8z"/><path class="st2" d="M182.6 169.3h9.8v9.8h-9.8z"/><circle cx="187.5" cy="174.1" r="1.9"/></g><g class="st1"><path class="st2" d="M182.6 159.5h9.8v9.8h-9.8z"/><path class="st2" d="M182.6 159.5h9.8v9.8h-9.8z"/><circle cx="187.5" cy="164.4" r="1.9"/></g><g class="st1"><path class="st2" d="M182.6 149.8h9.8v9.8h-9.8z"/><path class="st2" d="M182.6 149.8h9.8v9.8h-9.8z"/><circle cx="187.5" cy="154.6" r="1.9"/></g><g class="st1"><path class="st2" d="M182.6 140h9.8v9.8h-9.8z"/><path class="st2" d="M182.6 140h9.8v9.8h-9.8z"/><circle cx="187.5" cy="144.9" r="1.9"/></g><g class="st1"><path class="st2" d="M182.6 130.3h9.8v9.8h-9.8z"/><path class="st2" d="M182.6 130.3h9.8v9.8h-9.8z"/><circle cx="187.5" cy="135.1" r="1.9"/></g><g class="st1"><path class="st2" d="M182.6 120.5h9.8v9.8h-9.8z"/><path class="st2" d="M182.6 120.5h9.8v9.8h-9.8z"/><circle cx="187.5" cy="125.4" r="1.9"/></g><g class="st1"><path class="st2" d="M182.6 110.8h9.8v9.8h-9.8z"/><path class="st2" d="M182.6 110.8h9.8v9.8h-9.8z"/><circle cx="187.5" cy="115.6" r="1.9"/></g><g class="st1"><path class="st2" d="M182.6 101h9.8v9.8h-9.8z"/><path class="st2" d="M182.6 101h9.8v9.8h-9.8z"/><circle cx="187.5" cy="105.9" r="1.9"/></g><g class="st1"><path class="st2" d="M182.6 91.3h9.8v9.8h-9.8z"/><path class="st2" d="M182.6 91.3h9.8v9.8h-9.8z"/><circle cx="187.5" cy="96.1" r="1.9"/></g><g class="st1"><path class="st2" d="M182.6 81.5h9.8v9.8h-9.8z"/><path class="st2" d="M182.6 81.5h9.8v9.8h-9.8z"/><circle cx="187.5" cy="86.4" r="1.9"/></g><g class="st1"><path class="st2" d="M182.6 71.8h9.8v9.8h-9.8z"/><path class="st2" d="M182.6 71.8h9.8v9.8h-9.8z"/><circle cx="187.5" cy="76.6" r="1.9"/></g><g class="st1"><path class="st2" d="M182.6 62h9.8v9.8h-9.8z"/><path class="st2" d="M182.6 62h9.8v9.8h-9.8z"/><circle cx="187.5" cy="66.9" r="1.9"/></g><g class="st1"><path class="st2" d="M182.6 52.3h9.8v9.8h-9.8z"/><path class="st2" d="M182.6 52.3h9.8v9.8h-9.8z"/><circle cx="187.5" cy="57.1" r="1.9"/></g><g class="st1"><path class="st2" d="M182.6 42.5h9.8v9.8h-9.8z"/><path class="st2" d="M182.6 42.5h9.8v9.8h-9.8z"/><circle cx="187.5" cy="47.4" r="1.9"/></g><g class="st1"><path class="st2" d="M182.6 32.8h9.8v9.8h-9.8z"/><path class="st2" d="M182.6 32.8h9.8v9.8h-9.8z"/><circle cx="187.5" cy="37.6" r="1.9"/></g><g class="st1"><path class="st2" d="M182.6 23h9.8v9.8h-9.8z"/><path class="st2" d="M182.6 23h9.8v9.8h-9.8z"/><circle cx="187.5" cy="27.9" r="1.9"/></g><g class="st1"><path class="st2" d="M182.6 13.3h9.8v9.8h-9.8z"/><path class="st2" d="M182.6 13.3h9.8v9.8h-9.8z"/><circle cx="187.5" cy="18.1" r="1.9"/></g><g class="st1"><path class="st2" d="M182.6 3.5h9.8v9.8h-9.8z"/><path class="st2" d="M182.6 3.5h9.8v9.8h-9.8z"/><circle cx="187.5" cy="8.4" r="1.9"/></g><g class="st1"><path class="st2" d="M172.9 179h9.8v9.8h-9.8z"/><path class="st2" d="M172.9 179h9.8v9.8h-9.8z"/><circle cx="177.8" cy="183.9" r="1.9"/></g><g class="st1"><path class="st2" d="M172.9 169.3h9.8v9.8h-9.8z"/><path class="st2" d="M172.9 169.3h9.8v9.8h-9.8z"/><circle cx="177.8" cy="174.1" r="1.9"/></g><g class="st1"><path class="st2" d="M172.9 159.5h9.8v9.8h-9.8z"/><path class="st2" d="M172.9 159.5h9.8v9.8h-9.8z"/><circle cx="177.8" cy="164.4" r="1.9"/></g><g class="st1"><path class="st2" d="M172.9 149.8h9.8v9.8h-9.8z"/><path class="st2" d="M172.9 149.8h9.8v9.8h-9.8z"/><circle cx="177.8" cy="154.6" r="1.9"/></g><g class="st1"><path class="st2" d="M172.9 140h9.8v9.8h-9.8z"/><path class="st2" d="M172.9 140h9.8v9.8h-9.8z"/><circle cx="177.8" cy="144.9" r="1.9"/></g><g class="st1"><path class="st2" d="M172.9 130.3h9.8v9.8h-9.8z"/><path class="st2" d="M172.9 130.3h9.8v9.8h-9.8z"/><circle cx="177.8" cy="135.1" r="1.9"/></g><g class="st1"><path class="st2" d="M172.9 120.5h9.8v9.8h-9.8z"/><path class="st2" d="M172.9 120.5h9.8v9.8h-9.8z"/><circle cx="177.8" cy="125.4" r="1.9"/></g><g class="st1"><path class="st2" d="M172.9 110.8h9.8v9.8h-9.8z"/><path class="st2" d="M172.9 110.8h9.8v9.8h-9.8z"/><circle cx="177.8" cy="115.6" r="1.9"/></g><g class="st1"><path class="st2" d="M172.9 101h9.8v9.8h-9.8z"/><path class="st2" d="M172.9 101h9.8v9.8h-9.8z"/><circle cx="177.8" cy="105.9" r="1.9"/></g><g class="st1"><path class="st2" d="M172.9 91.3h9.8v9.8h-9.8z"/><path class="st2" d="M172.9 91.3h9.8v9.8h-9.8z"/><circle cx="177.8" cy="96.1" r="1.9"/></g><g class="st1"><path class="st2" d="M172.9 81.5h9.8v9.8h-9.8z"/><path class="st2" d="M172.9 81.5h9.8v9.8h-9.8z"/><circle cx="177.8" cy="86.4" r="1.9"/></g><g class="st1"><path class="st2" d="M172.9 71.8h9.8v9.8h-9.8z"/><path class="st2" d="M172.9 71.8h9.8v9.8h-9.8z"/><circle cx="177.8" cy="76.6" r="1.9"/></g><g class="st1"><path class="st2" d="M172.9 62h9.8v9.8h-9.8z"/><path class="st2" d="M172.9 62h9.8v9.8h-9.8z"/><circle cx="177.8" cy="66.9" r="1.9"/></g><g class="st1"><path class="st2" d="M172.9 52.3h9.8v9.8h-9.8z"/><path class="st2" d="M172.9 52.3h9.8v9.8h-9.8z"/><circle cx="177.8" cy="57.1" r="1.9"/></g><g class="st1"><path class="st2" d="M172.9 42.5h9.8v9.8h-9.8z"/><path class="st2" d="M172.9 42.5h9.8v9.8h-9.8z"/><circle cx="177.8" cy="47.4" r="1.9"/></g><g class="st1"><path class="st2" d="M172.9 32.8h9.8v9.8h-9.8z"/><path class="st2" d="M172.9 32.8h9.8v9.8h-9.8z"/><circle cx="177.8" cy="37.6" r="1.9"/></g><g class="st1"><path class="st2" d="M172.9 23h9.8v9.8h-9.8z"/><path class="st2" d="M172.9 23h9.8v9.8h-9.8z"/><circle cx="177.8" cy="27.9" r="1.9"/></g><g class="st1"><path class="st2" d="M172.9 13.3h9.8v9.8h-9.8z"/><path class="st2" d="M172.9 13.3h9.8v9.8h-9.8z"/><circle cx="177.8" cy="18.1" r="1.9"/></g><g class="st1"><path class="st2" d="M172.9 3.5h9.8v9.8h-9.8z"/><path class="st2" d="M172.9 3.5h9.8v9.8h-9.8z"/><circle cx="177.8" cy="8.4" r="1.9"/></g><g class="st1"><path class="st2" d="M163.1 179h9.8v9.8h-9.8z"/><path class="st2" d="M163.1 179h9.8v9.8h-9.8z"/><circle cx="168" cy="183.9" r="1.9"/></g><g class="st1"><path class="st2" d="M163.1 169.3h9.8v9.8h-9.8z"/><path class="st2" d="M163.1 169.3h9.8v9.8h-9.8z"/><circle cx="168" cy="174.1" r="1.9"/></g><g class="st1"><path class="st2" d="M163.1 159.5h9.8v9.8h-9.8z"/><path class="st2" d="M163.1 159.5h9.8v9.8h-9.8z"/><circle cx="168" cy="164.4" r="1.9"/></g><g class="st1"><path class="st2" d="M163.1 149.8h9.8v9.8h-9.8z"/><path class="st2" d="M163.1 149.8h9.8v9.8h-9.8z"/><circle cx="168" cy="154.6" r="1.9"/></g><g class="st1"><path class="st2" d="M163.1 140h9.8v9.8h-9.8z"/><path class="st2" d="M163.1 140h9.8v9.8h-9.8z"/><circle cx="168" cy="144.9" r="1.9"/></g><g class="st1"><path class="st2" d="M163.1 130.3h9.8v9.8h-9.8z"/><path class="st2" d="M163.1 130.3h9.8v9.8h-9.8z"/><circle cx="168" cy="135.1" r="1.9"/></g><g class="st1"><path class="st2" d="M163.1 120.5h9.8v9.8h-9.8z"/><path class="st2" d="M163.1 120.5h9.8v9.8h-9.8z"/><circle cx="168" cy="125.4" r="1.9"/></g><g class="st1"><path class="st2" d="M163.1 110.8h9.8v9.8h-9.8z"/><path class="st2" d="M163.1 110.8h9.8v9.8h-9.8z"/><circle cx="168" cy="115.6" r="1.9"/></g><g class="st1"><path class="st2" d="M163.1 101h9.8v9.8h-9.8z"/><path class="st2" d="M163.1 101h9.8v9.8h-9.8z"/><circle cx="168" cy="105.9" r="1.9"/></g><g class="st1"><path class="st2" d="M163.1 91.3h9.8v9.8h-9.8z"/><path class="st2" d="M163.1 91.3h9.8v9.8h-9.8z"/><circle cx="168" cy="96.1" r="1.9"/></g><g class="st1"><path class="st2" d="M163.1 81.5h9.8v9.8h-9.8z"/><path class="st2" d="M163.1 81.5h9.8v9.8h-9.8z"/><circle cx="168" cy="86.4" r="1.9"/></g><g class="st1"><path class="st2" d="M163.1 71.8h9.8v9.8h-9.8z"/><path class="st2" d="M163.1 71.8h9.8v9.8h-9.8z"/><circle cx="168" cy="76.6" r="1.9"/></g><g class="st1"><path class="st2" d="M163.1 62h9.8v9.8h-9.8z"/><path class="st2" d="M163.1 62h9.8v9.8h-9.8z"/><circle cx="168" cy="66.9" r="1.9"/></g><g class="st1"><path class="st2" d="M163.1 52.3h9.8v9.8h-9.8z"/><path class="st2" d="M163.1 52.3h9.8v9.8h-9.8z"/><circle cx="168" cy="57.1" r="1.9"/></g><g class="st1"><path class="st2" d="M163.1 42.5h9.8v9.8h-9.8z"/><path class="st2" d="M163.1 42.5h9.8v9.8h-9.8z"/><circle cx="168" cy="47.4" r="1.9"/></g><g class="st1"><path class="st2" d="M163.1 32.8h9.8v9.8h-9.8z"/><path class="st2" d="M163.1 32.8h9.8v9.8h-9.8z"/><circle cx="168" cy="37.6" r="1.9"/></g><g class="st1"><path class="st2" d="M163.1 23h9.8v9.8h-9.8z"/><path class="st2" d="M163.1 23h9.8v9.8h-9.8z"/><circle cx="168" cy="27.9" r="1.9"/></g><g class="st1"><path class="st2" d="M163.1 13.3h9.8v9.8h-9.8z"/><path class="st2" d="M163.1 13.3h9.8v9.8h-9.8z"/><circle cx="168" cy="18.1" r="1.9"/></g><g class="st1"><path class="st2" d="M163.1 3.5h9.8v9.8h-9.8z"/><path class="st2" d="M163.1 3.5h9.8v9.8h-9.8z"/><circle cx="168" cy="8.4" r="1.9"/></g><g class="st1"><path class="st2" d="M153.4 179h9.8v9.8h-9.8z"/><path class="st2" d="M153.4 179h9.8v9.8h-9.8z"/><circle cx="158.3" cy="183.9" r="1.9"/></g><g class="st1"><path class="st2" d="M153.4 169.3h9.8v9.8h-9.8z"/><path class="st2" d="M153.4 169.3h9.8v9.8h-9.8z"/><circle cx="158.3" cy="174.1" r="1.9"/></g><g class="st1"><path class="st2" d="M153.4 159.5h9.8v9.8h-9.8z"/><path class="st2" d="M153.4 159.5h9.8v9.8h-9.8z"/><circle cx="158.3" cy="164.4" r="1.9"/></g><g class="st1"><path class="st2" d="M153.4 149.8h9.8v9.8h-9.8z"/><path class="st2" d="M153.4 149.8h9.8v9.8h-9.8z"/><circle cx="158.3" cy="154.6" r="1.9"/></g><g class="st1"><path class="st2" d="M153.4 140h9.8v9.8h-9.8z"/><path class="st2" d="M153.4 140h9.8v9.8h-9.8z"/><circle cx="158.3" cy="144.9" r="1.9"/></g><g class="st1"><path class="st2" d="M153.4 130.3h9.8v9.8h-9.8z"/><path class="st2" d="M153.4 130.3h9.8v9.8h-9.8z"/><circle cx="158.3" cy="135.1" r="1.9"/></g><g class="st1"><path class="st2" d="M153.4 120.5h9.8v9.8h-9.8z"/><path class="st2" d="M153.4 120.5h9.8v9.8h-9.8z"/><circle cx="158.3" cy="125.4" r="1.9"/></g><g class="st1"><path class="st2" d="M153.4 110.8h9.8v9.8h-9.8z"/><path class="st2" d="M153.4 110.8h9.8v9.8h-9.8z"/><circle cx="158.3" cy="115.6" r="1.9"/></g><g class="st1"><path class="st2" d="M153.4 101h9.8v9.8h-9.8z"/><path class="st2" d="M153.4 101h9.8v9.8h-9.8z"/><circle cx="158.3" cy="105.9" r="1.9"/></g><g class="st1"><path class="st2" d="M153.4 91.3h9.8v9.8h-9.8z"/><path class="st2" d="M153.4 91.3h9.8v9.8h-9.8z"/><circle cx="158.3" cy="96.1" r="1.9"/></g><g class="st1"><path class="st2" d="M153.4 81.5h9.8v9.8h-9.8z"/><path class="st2" d="M153.4 81.5h9.8v9.8h-9.8z"/><circle cx="158.3" cy="86.4" r="1.9"/></g><g class="st1"><path class="st2" d="M153.4 71.8h9.8v9.8h-9.8z"/><path class="st2" d="M153.4 71.8h9.8v9.8h-9.8z"/><circle cx="158.3" cy="76.6" r="1.9"/></g><g class="st1"><path class="st2" d="M153.4 62h9.8v9.8h-9.8z"/><path class="st2" d="M153.4 62h9.8v9.8h-9.8z"/><circle cx="158.3" cy="66.9" r="1.9"/></g><g class="st1"><path class="st2" d="M153.4 52.3h9.8v9.8h-9.8z"/><path class="st2" d="M153.4 52.3h9.8v9.8h-9.8z"/><circle cx="158.3" cy="57.1" r="1.9"/></g><g class="st1"><path class="st2" d="M153.4 42.5h9.8v9.8h-9.8z"/><path class="st2" d="M153.4 42.5h9.8v9.8h-9.8z"/><circle cx="158.3" cy="47.4" r="1.9"/></g><g class="st1"><path class="st2" d="M153.4 32.8h9.8v9.8h-9.8z"/><path class="st2" d="M153.4 32.8h9.8v9.8h-9.8z"/><circle cx="158.3" cy="37.6" r="1.9"/></g><g class="st1"><path class="st2" d="M153.4 23h9.8v9.8h-9.8z"/><path class="st2" d="M153.4 23h9.8v9.8h-9.8z"/><circle cx="158.3" cy="27.9" r="1.9"/></g><g class="st1"><path class="st2" d="M153.4 13.3h9.8v9.8h-9.8z"/><path class="st2" d="M153.4 13.3h9.8v9.8h-9.8z"/><circle cx="158.3" cy="18.1" r="1.9"/></g><g class="st1"><path class="st2" d="M153.4 3.5h9.8v9.8h-9.8z"/><path class="st2" d="M153.4 3.5h9.8v9.8h-9.8z"/><circle cx="158.3" cy="8.4" r="1.9"/></g><g class="st1"><path class="st2" d="M143.6 179h9.8v9.8h-9.8z"/><path class="st2" d="M143.6 179h9.8v9.8h-9.8z"/><circle cx="148.5" cy="183.9" r="1.9"/></g><g class="st1"><path class="st2" d="M143.6 169.3h9.8v9.8h-9.8z"/><path class="st2" d="M143.6 169.3h9.8v9.8h-9.8z"/><circle cx="148.5" cy="174.1" r="1.9"/></g><g class="st1"><path class="st2" d="M143.6 159.5h9.8v9.8h-9.8z"/><path class="st2" d="M143.6 159.5h9.8v9.8h-9.8z"/><circle cx="148.5" cy="164.4" r="1.9"/></g><g class="st1"><path class="st2" d="M143.6 149.8h9.8v9.8h-9.8z"/><path class="st2" d="M143.6 149.8h9.8v9.8h-9.8z"/><circle cx="148.5" cy="154.6" r="1.9"/></g><g class="st1"><path class="st2" d="M143.6 140h9.8v9.8h-9.8z"/><path class="st2" d="M143.6 140h9.8v9.8h-9.8z"/><circle cx="148.5" cy="144.9" r="1.9"/></g><g class="st1"><path class="st2" d="M143.6 130.3h9.8v9.8h-9.8z"/><path class="st2" d="M143.6 130.3h9.8v9.8h-9.8z"/><circle cx="148.5" cy="135.1" r="1.9"/></g><g class="st1"><path class="st2" d="M143.6 120.5h9.8v9.8h-9.8z"/><path class="st2" d="M143.6 120.5h9.8v9.8h-9.8z"/><circle cx="148.5" cy="125.4" r="1.9"/></g><g class="st1"><path class="st2" d="M143.6 110.8h9.8v9.8h-9.8z"/><path class="st2" d="M143.6 110.8h9.8v9.8h-9.8z"/><circle cx="148.5" cy="115.6" r="1.9"/></g><g class="st1"><path class="st2" d="M143.6 101h9.8v9.8h-9.8z"/><path class="st2" d="M143.6 101h9.8v9.8h-9.8z"/><circle cx="148.5" cy="105.9" r="1.9"/></g><g class="st1"><path class="st2" d="M143.6 91.3h9.8v9.8h-9.8z"/><path class="st2" d="M143.6 91.3h9.8v9.8h-9.8z"/><circle cx="148.5" cy="96.1" r="1.9"/></g><g class="st1"><path class="st2" d="M143.6 81.5h9.8v9.8h-9.8z"/><path class="st2" d="M143.6 81.5h9.8v9.8h-9.8z"/><circle cx="148.5" cy="86.4" r="1.9"/></g><g class="st1"><path class="st2" d="M143.6 71.8h9.8v9.8h-9.8z"/><path class="st2" d="M143.6 71.8h9.8v9.8h-9.8z"/><circle cx="148.5" cy="76.6" r="1.9"/></g><g class="st1"><path class="st2" d="M143.6 62h9.8v9.8h-9.8z"/><path class="st2" d="M143.6 62h9.8v9.8h-9.8z"/><circle cx="148.5" cy="66.9" r="1.9"/></g><g class="st1"><path class="st2" d="M143.6 52.3h9.8v9.8h-9.8z"/><path class="st2" d="M143.6 52.3h9.8v9.8h-9.8z"/><circle cx="148.5" cy="57.1" r="1.9"/></g><g class="st1"><path class="st2" d="M143.6 42.5h9.8v9.8h-9.8z"/><path class="st2" d="M143.6 42.5h9.8v9.8h-9.8z"/><circle cx="148.5" cy="47.4" r="1.9"/></g><g class="st1"><path class="st2" d="M143.6 32.8h9.8v9.8h-9.8z"/><path class="st2" d="M143.6 32.8h9.8v9.8h-9.8z"/><circle cx="148.5" cy="37.6" r="1.9"/></g><g class="st1"><path class="st2" d="M143.6 23h9.8v9.8h-9.8z"/><path class="st2" d="M143.6 23h9.8v9.8h-9.8z"/><circle cx="148.5" cy="27.9" r="1.9"/></g><g class="st1"><path class="st2" d="M143.6 13.3h9.8v9.8h-9.8z"/><path class="st2" d="M143.6 13.3h9.8v9.8h-9.8z"/><circle cx="148.5" cy="18.1" r="1.9"/></g><g class="st1"><path class="st2" d="M143.6 3.5h9.8v9.8h-9.8z"/><path class="st2" d="M143.6 3.5h9.8v9.8h-9.8z"/><circle cx="148.5" cy="8.4" r="1.9"/></g><g class="st1"><path class="st2" d="M133.9 179h9.8v9.8h-9.8z"/><path class="st2" d="M133.9 179h9.8v9.8h-9.8z"/><circle cx="138.8" cy="183.9" r="1.9"/></g><g class="st1"><path class="st2" d="M133.9 169.3h9.8v9.8h-9.8z"/><path class="st2" d="M133.9 169.3h9.8v9.8h-9.8z"/><circle cx="138.8" cy="174.1" r="1.9"/></g><g class="st1"><path class="st2" d="M133.9 159.5h9.8v9.8h-9.8z"/><path class="st2" d="M133.9 159.5h9.8v9.8h-9.8z"/><circle cx="138.8" cy="164.4" r="1.9"/></g><g class="st1"><path class="st2" d="M133.9 149.8h9.8v9.8h-9.8z"/><path class="st2" d="M133.9 149.8h9.8v9.8h-9.8z"/><circle cx="138.8" cy="154.6" r="1.9"/></g><g class="st1"><path class="st2" d="M133.9 140h9.8v9.8h-9.8z"/><path class="st2" d="M133.9 140h9.8v9.8h-9.8z"/><circle cx="138.8" cy="144.9" r="1.9"/></g><g class="st1"><path class="st2" d="M133.9 130.3h9.8v9.8h-9.8z"/><path class="st2" d="M133.9 130.3h9.8v9.8h-9.8z"/><circle cx="138.8" cy="135.1" r="1.9"/></g><g class="st1"><path class="st2" d="M133.9 120.5h9.8v9.8h-9.8z"/><path class="st2" d="M133.9 120.5h9.8v9.8h-9.8z"/><circle cx="138.8" cy="125.4" r="1.9"/></g><g class="st1"><path class="st2" d="M133.9 110.8h9.8v9.8h-9.8z"/><path class="st2" d="M133.9 110.8h9.8v9.8h-9.8z"/><circle cx="138.8" cy="115.6" r="1.9"/></g><g class="st1"><path class="st2" d="M133.9 101h9.8v9.8h-9.8z"/><path class="st2" d="M133.9 101h9.8v9.8h-9.8z"/><circle cx="138.8" cy="105.9" r="1.9"/></g><g class="st1"><path class="st2" d="M133.9 91.3h9.8v9.8h-9.8z"/><path class="st2" d="M133.9 91.3h9.8v9.8h-9.8z"/><circle cx="138.8" cy="96.1" r="1.9"/></g><g class="st1"><path class="st2" d="M133.9 81.5h9.8v9.8h-9.8z"/><path class="st2" d="M133.9 81.5h9.8v9.8h-9.8z"/><circle cx="138.8" cy="86.4" r="1.9"/></g><g class="st1"><path class="st2" d="M133.9 71.8h9.8v9.8h-9.8z"/><path class="st2" d="M133.9 71.8h9.8v9.8h-9.8z"/><circle cx="138.8" cy="76.6" r="1.9"/></g><g class="st1"><path class="st2" d="M133.9 62h9.8v9.8h-9.8z"/><path class="st2" d="M133.9 62h9.8v9.8h-9.8z"/><circle cx="138.8" cy="66.9" r="1.9"/></g><g class="st1"><path class="st2" d="M133.9 52.3h9.8v9.8h-9.8z"/><path class="st2" d="M133.9 52.3h9.8v9.8h-9.8z"/><circle cx="138.8" cy="57.1" r="1.9"/></g><g class="st1"><path class="st2" d="M133.9 42.5h9.8v9.8h-9.8z"/><path class="st2" d="M133.9 42.5h9.8v9.8h-9.8z"/><circle cx="138.8" cy="47.4" r="1.9"/></g><g class="st1"><path class="st2" d="M133.9 32.8h9.8v9.8h-9.8z"/><path class="st2" d="M133.9 32.8h9.8v9.8h-9.8z"/><circle cx="138.8" cy="37.6" r="1.9"/></g><g class="st1"><path class="st2" d="M133.9 23h9.8v9.8h-9.8z"/><path class="st2" d="M133.9 23h9.8v9.8h-9.8z"/><circle cx="138.8" cy="27.9" r="1.9"/></g><g class="st1"><path class="st2" d="M133.9 13.3h9.8v9.8h-9.8z"/><path class="st2" d="M133.9 13.3h9.8v9.8h-9.8z"/><circle cx="138.8" cy="18.1" r="1.9"/></g><g class="st1"><path class="st2" d="M133.9 3.5h9.8v9.8h-9.8z"/><path class="st2" d="M133.9 3.5h9.8v9.8h-9.8z"/><circle cx="138.8" cy="8.4" r="1.9"/></g><g class="st1"><path class="st2" d="M124.1 179h9.8v9.8h-9.8z"/><path class="st2" d="M124.1 179h9.8v9.8h-9.8z"/><circle cx="129" cy="183.9" r="1.9"/></g><g class="st1"><path class="st2" d="M124.1 169.3h9.8v9.8h-9.8z"/><path class="st2" d="M124.1 169.3h9.8v9.8h-9.8z"/><circle cx="129" cy="174.1" r="1.9"/></g><g class="st1"><path class="st2" d="M124.1 159.5h9.8v9.8h-9.8z"/><path class="st2" d="M124.1 159.5h9.8v9.8h-9.8z"/><circle cx="129" cy="164.4" r="1.9"/></g><g class="st1"><path class="st2" d="M124.1 149.8h9.8v9.8h-9.8z"/><path class="st2" d="M124.1 149.8h9.8v9.8h-9.8z"/><circle cx="129" cy="154.6" r="1.9"/></g><g class="st1"><path class="st2" d="M124.1 140h9.8v9.8h-9.8z"/><path class="st2" d="M124.1 140h9.8v9.8h-9.8z"/><circle cx="129" cy="144.9" r="1.9"/></g><g class="st1"><path class="st2" d="M124.1 130.3h9.8v9.8h-9.8z"/><path class="st2" d="M124.1 130.3h9.8v9.8h-9.8z"/><circle cx="129" cy="135.1" r="1.9"/></g><g class="st1"><path class="st2" d="M124.1 120.5h9.8v9.8h-9.8z"/><path class="st2" d="M124.1 120.5h9.8v9.8h-9.8z"/><circle cx="129" cy="125.4" r="1.9"/></g><g class="st1"><path class="st2" d="M124.1 110.8h9.8v9.8h-9.8z"/><path class="st2" d="M124.1 110.8h9.8v9.8h-9.8z"/><circle cx="129" cy="115.6" r="1.9"/></g><g class="st1"><path class="st2" d="M124.1 101h9.8v9.8h-9.8z"/><path class="st2" d="M124.1 101h9.8v9.8h-9.8z"/><circle cx="129" cy="105.9" r="1.9"/></g><g class="st1"><path class="st2" d="M124.1 91.3h9.8v9.8h-9.8z"/><path class="st2" d="M124.1 91.3h9.8v9.8h-9.8z"/><circle cx="129" cy="96.1" r="1.9"/></g><g class="st1"><path class="st2" d="M124.1 81.5h9.8v9.8h-9.8z"/><path class="st2" d="M124.1 81.5h9.8v9.8h-9.8z"/><circle cx="129" cy="86.4" r="1.9"/></g><g class="st1"><path class="st2" d="M124.1 71.8h9.8v9.8h-9.8z"/><path class="st2" d="M124.1 71.8h9.8v9.8h-9.8z"/><circle cx="129" cy="76.6" r="1.9"/></g><g class="st1"><path class="st2" d="M124.1 62h9.8v9.8h-9.8z"/><path class="st2" d="M124.1 62h9.8v9.8h-9.8z"/><circle cx="129" cy="66.9" r="1.9"/></g><g class="st1"><path class="st2" d="M124.1 52.3h9.8v9.8h-9.8z"/><path class="st2" d="M124.1 52.3h9.8v9.8h-9.8z"/><circle cx="129" cy="57.1" r="1.9"/></g><g class="st1"><path class="st2" d="M124.1 42.5h9.8v9.8h-9.8z"/><path class="st2" d="M124.1 42.5h9.8v9.8h-9.8z"/><circle cx="129" cy="47.4" r="1.9"/></g><g class="st1"><path class="st2" d="M124.1 32.8h9.8v9.8h-9.8z"/><path class="st2" d="M124.1 32.8h9.8v9.8h-9.8z"/><circle cx="129" cy="37.6" r="1.9"/></g><g class="st1"><path class="st2" d="M124.1 23h9.8v9.8h-9.8z"/><path class="st2" d="M124.1 23h9.8v9.8h-9.8z"/><circle cx="129" cy="27.9" r="1.9"/></g><g class="st1"><path class="st2" d="M124.1 13.3h9.8v9.8h-9.8z"/><path class="st2" d="M124.1 13.3h9.8v9.8h-9.8z"/><circle cx="129" cy="18.1" r="1.9"/></g><g class="st1"><path class="st2" d="M124.1 3.5h9.8v9.8h-9.8z"/><path class="st2" d="M124.1 3.5h9.8v9.8h-9.8z"/><circle cx="129" cy="8.4" r="1.9"/></g><g class="st1"><path class="st2" d="M114.4 179h9.8v9.8h-9.8z"/><path class="st2" d="M114.4 179h9.8v9.8h-9.8z"/><circle cx="119.3" cy="183.9" r="1.9"/></g><g class="st1"><path class="st2" d="M114.4 169.3h9.8v9.8h-9.8z"/><path class="st2" d="M114.4 169.3h9.8v9.8h-9.8z"/><circle cx="119.3" cy="174.1" r="1.9"/></g><g class="st1"><path class="st2" d="M114.4 159.5h9.8v9.8h-9.8z"/><path class="st2" d="M114.4 159.5h9.8v9.8h-9.8z"/><circle cx="119.3" cy="164.4" r="1.9"/></g><g class="st1"><path class="st2" d="M114.4 149.8h9.8v9.8h-9.8z"/><path class="st2" d="M114.4 149.8h9.8v9.8h-9.8z"/><circle cx="119.3" cy="154.6" r="1.9"/></g><g class="st1"><path class="st2" d="M114.4 140h9.8v9.8h-9.8z"/><path class="st2" d="M114.4 140h9.8v9.8h-9.8z"/><circle cx="119.3" cy="144.9" r="1.9"/></g><g class="st1"><path class="st2" d="M114.4 130.3h9.8v9.8h-9.8z"/><path class="st2" d="M114.4 130.3h9.8v9.8h-9.8z"/><circle cx="119.3" cy="135.1" r="1.9"/></g><g class="st1"><path class="st2" d="M114.4 120.5h9.8v9.8h-9.8z"/><path class="st2" d="M114.4 120.5h9.8v9.8h-9.8z"/><circle cx="119.3" cy="125.4" r="1.9"/></g><g class="st1"><path class="st2" d="M114.4 110.8h9.8v9.8h-9.8z"/><path class="st2" d="M114.4 110.8h9.8v9.8h-9.8z"/><circle cx="119.3" cy="115.6" r="1.9"/></g><g class="st1"><path class="st2" d="M114.4 101h9.8v9.8h-9.8z"/><path class="st2" d="M114.4 101h9.8v9.8h-9.8z"/><circle cx="119.3" cy="105.9" r="1.9"/></g><g class="st1"><path class="st2" d="M114.4 91.3h9.8v9.8h-9.8z"/><path class="st2" d="M114.4 91.3h9.8v9.8h-9.8z"/><circle cx="119.3" cy="96.1" r="1.9"/></g><g class="st1"><path class="st2" d="M114.4 81.5h9.8v9.8h-9.8z"/><path class="st2" d="M114.4 81.5h9.8v9.8h-9.8z"/><circle cx="119.3" cy="86.4" r="1.9"/></g><g class="st1"><path class="st2" d="M114.4 71.8h9.8v9.8h-9.8z"/><path class="st2" d="M114.4 71.8h9.8v9.8h-9.8z"/><circle cx="119.3" cy="76.6" r="1.9"/></g><g class="st1"><path class="st2" d="M114.4 62h9.8v9.8h-9.8z"/><path class="st2" d="M114.4 62h9.8v9.8h-9.8z"/><circle cx="119.3" cy="66.9" r="1.9"/></g><g class="st1"><path class="st2" d="M114.4 52.3h9.8v9.8h-9.8z"/><path class="st2" d="M114.4 52.3h9.8v9.8h-9.8z"/><circle cx="119.3" cy="57.1" r="1.9"/></g><g class="st1"><path class="st2" d="M114.4 42.5h9.8v9.8h-9.8z"/><path class="st2" d="M114.4 42.5h9.8v9.8h-9.8z"/><circle cx="119.3" cy="47.4" r="1.9"/></g><g class="st1"><path class="st2" d="M114.4 32.8h9.8v9.8h-9.8z"/><path class="st2" d="M114.4 32.8h9.8v9.8h-9.8z"/><circle cx="119.3" cy="37.6" r="1.9"/></g><g class="st1"><path class="st2" d="M114.4 23h9.8v9.8h-9.8z"/><path class="st2" d="M114.4 23h9.8v9.8h-9.8z"/><circle cx="119.3" cy="27.9" r="1.9"/></g><g class="st1"><path class="st2" d="M114.4 13.3h9.8v9.8h-9.8z"/><path class="st2" d="M114.4 13.3h9.8v9.8h-9.8z"/><circle cx="119.3" cy="18.1" r="1.9"/></g><g class="st1"><path class="st2" d="M114.4 3.5h9.8v9.8h-9.8z"/><path class="st2" d="M114.4 3.5h9.8v9.8h-9.8z"/><circle cx="119.3" cy="8.4" r="1.9"/></g><g class="st1"><path class="st2" d="M104.6 179h9.8v9.8h-9.8z"/><path class="st2" d="M104.6 179h9.8v9.8h-9.8z"/><circle cx="109.5" cy="183.9" r="1.9"/></g><g class="st1"><path class="st2" d="M104.6 169.3h9.8v9.8h-9.8z"/><path class="st2" d="M104.6 169.3h9.8v9.8h-9.8z"/><circle cx="109.5" cy="174.1" r="1.9"/></g><g class="st1"><path class="st2" d="M104.6 159.5h9.8v9.8h-9.8z"/><path class="st2" d="M104.6 159.5h9.8v9.8h-9.8z"/><circle cx="109.5" cy="164.4" r="1.9"/></g><g class="st1"><path class="st2" d="M104.6 149.8h9.8v9.8h-9.8z"/><path class="st2" d="M104.6 149.8h9.8v9.8h-9.8z"/><circle cx="109.5" cy="154.6" r="1.9"/></g><g class="st1"><path class="st2" d="M104.6 140h9.8v9.8h-9.8z"/><path class="st2" d="M104.6 140h9.8v9.8h-9.8z"/><circle cx="109.5" cy="144.9" r="1.9"/></g><g class="st1"><path class="st2" d="M104.6 130.3h9.8v9.8h-9.8z"/><path class="st2" d="M104.6 130.3h9.8v9.8h-9.8z"/><circle cx="109.5" cy="135.1" r="1.9"/></g><g class="st1"><path class="st2" d="M104.6 120.5h9.8v9.8h-9.8z"/><path class="st2" d="M104.6 120.5h9.8v9.8h-9.8z"/><circle cx="109.5" cy="125.4" r="1.9"/></g><g class="st1"><path class="st2" d="M104.6 110.8h9.8v9.8h-9.8z"/><path class="st2" d="M104.6 110.8h9.8v9.8h-9.8z"/><circle cx="109.5" cy="115.6" r="1.9"/></g><g class="st1"><path class="st2" d="M104.6 101h9.8v9.8h-9.8z"/><path class="st2" d="M104.6 101h9.8v9.8h-9.8z"/><circle cx="109.5" cy="105.9" r="1.9"/></g><g class="st1"><path class="st2" d="M104.6 91.3h9.8v9.8h-9.8z"/><path class="st2" d="M104.6 91.3h9.8v9.8h-9.8z"/><circle cx="109.5" cy="96.1" r="1.9"/></g><g class="st1"><path class="st2" d="M104.6 81.5h9.8v9.8h-9.8z"/><path class="st2" d="M104.6 81.5h9.8v9.8h-9.8z"/><circle cx="109.5" cy="86.4" r="1.9"/></g><g class="st1"><path class="st2" d="M104.6 71.8h9.8v9.8h-9.8z"/><path class="st2" d="M104.6 71.8h9.8v9.8h-9.8z"/><circle cx="109.5" cy="76.6" r="1.9"/></g><g class="st1"><path class="st2" d="M104.6 62h9.8v9.8h-9.8z"/><path class="st2" d="M104.6 62h9.8v9.8h-9.8z"/><circle cx="109.5" cy="66.9" r="1.9"/></g><g class="st1"><path class="st2" d="M104.6 52.3h9.8v9.8h-9.8z"/><path class="st2" d="M104.6 52.3h9.8v9.8h-9.8z"/><circle cx="109.5" cy="57.1" r="1.9"/></g><g class="st1"><path class="st2" d="M104.6 42.5h9.8v9.8h-9.8z"/><path class="st2" d="M104.6 42.5h9.8v9.8h-9.8z"/><circle cx="109.5" cy="47.4" r="1.9"/></g><g class="st1"><path class="st2" d="M104.6 32.8h9.8v9.8h-9.8z"/><path class="st2" d="M104.6 32.8h9.8v9.8h-9.8z"/><circle cx="109.5" cy="37.6" r="1.9"/></g><g class="st1"><path class="st2" d="M104.6 23h9.8v9.8h-9.8z"/><path class="st2" d="M104.6 23h9.8v9.8h-9.8z"/><circle cx="109.5" cy="27.9" r="1.9"/></g><g class="st1"><path class="st2" d="M104.6 13.3h9.8v9.8h-9.8z"/><path class="st2" d="M104.6 13.3h9.8v9.8h-9.8z"/><circle cx="109.5" cy="18.1" r="1.9"/></g><g class="st1"><path class="st2" d="M104.6 3.5h9.8v9.8h-9.8z"/><path class="st2" d="M104.6 3.5h9.8v9.8h-9.8z"/><circle cx="109.5" cy="8.4" r="1.9"/></g><g class="st1"><path class="st2" d="M94.9 179h9.8v9.8h-9.8z"/><path class="st2" d="M94.9 179h9.8v9.8h-9.8z"/><circle cx="99.8" cy="183.9" r="1.9"/></g><g class="st1"><path class="st2" d="M94.9 169.3h9.8v9.8h-9.8z"/><path class="st2" d="M94.9 169.3h9.8v9.8h-9.8z"/><circle cx="99.8" cy="174.1" r="1.9"/></g><g class="st1"><path class="st2" d="M94.9 159.5h9.8v9.8h-9.8z"/><path class="st2" d="M94.9 159.5h9.8v9.8h-9.8z"/><circle cx="99.8" cy="164.4" r="1.9"/></g><g class="st1"><path class="st2" d="M94.9 149.8h9.8v9.8h-9.8z"/><path class="st2" d="M94.9 149.8h9.8v9.8h-9.8z"/><circle cx="99.8" cy="154.6" r="1.9"/></g><g class="st1"><path class="st2" d="M94.9 140h9.8v9.8h-9.8z"/><path class="st2" d="M94.9 140h9.8v9.8h-9.8z"/><circle cx="99.8" cy="144.9" r="1.9"/></g><g class="st1"><path class="st2" d="M94.9 130.3h9.8v9.8h-9.8z"/><path class="st2" d="M94.9 130.3h9.8v9.8h-9.8z"/><circle cx="99.8" cy="135.1" r="1.9"/></g><g class="st1"><path class="st2" d="M94.9 120.5h9.8v9.8h-9.8z"/><path class="st2" d="M94.9 120.5h9.8v9.8h-9.8z"/><circle cx="99.8" cy="125.4" r="1.9"/></g><g class="st1"><path class="st2" d="M94.9 110.8h9.8v9.8h-9.8z"/><path class="st2" d="M94.9 110.8h9.8v9.8h-9.8z"/><circle cx="99.8" cy="115.6" r="1.9"/></g><g class="st1"><path class="st2" d="M94.9 101h9.8v9.8h-9.8z"/><path class="st2" d="M94.9 101h9.8v9.8h-9.8z"/><circle cx="99.8" cy="105.9" r="1.9"/></g><g class="st1"><path class="st2" d="M94.9 91.3h9.8v9.8h-9.8z"/><path class="st2" d="M94.9 91.3h9.8v9.8h-9.8z"/><circle cx="99.8" cy="96.1" r="1.9"/></g><g class="st1"><path class="st2" d="M94.9 81.5h9.8v9.8h-9.8z"/><path class="st2" d="M94.9 81.5h9.8v9.8h-9.8z"/><circle cx="99.8" cy="86.4" r="1.9"/></g><g class="st1"><path class="st2" d="M94.9 71.8h9.8v9.8h-9.8z"/><path class="st2" d="M94.9 71.8h9.8v9.8h-9.8z"/><circle cx="99.8" cy="76.6" r="1.9"/></g><g class="st1"><path class="st2" d="M94.9 62h9.8v9.8h-9.8z"/><path class="st2" d="M94.9 62h9.8v9.8h-9.8z"/><circle cx="99.8" cy="66.9" r="1.9"/></g><g class="st1"><path class="st2" d="M94.9 52.3h9.8v9.8h-9.8z"/><path class="st2" d="M94.9 52.3h9.8v9.8h-9.8z"/><circle cx="99.8" cy="57.1" r="1.9"/></g><g class="st1"><path class="st2" d="M94.9 42.5h9.8v9.8h-9.8z"/><path class="st2" d="M94.9 42.5h9.8v9.8h-9.8z"/><circle cx="99.8" cy="47.4" r="1.9"/></g><g class="st1"><path class="st2" d="M94.9 32.8h9.8v9.8h-9.8z"/><path class="st2" d="M94.9 32.8h9.8v9.8h-9.8z"/><circle cx="99.8" cy="37.6" r="1.9"/></g><g class="st1"><path class="st2" d="M94.9 23h9.8v9.8h-9.8z"/><path class="st2" d="M94.9 23h9.8v9.8h-9.8z"/><circle cx="99.8" cy="27.9" r="1.9"/></g><g class="st1"><path class="st2" d="M94.9 13.3h9.8v9.8h-9.8z"/><path class="st2" d="M94.9 13.3h9.8v9.8h-9.8z"/><circle cx="99.8" cy="18.1" r="1.9"/></g><g class="st1"><path class="st2" d="M94.9 3.5h9.8v9.8h-9.8z"/><path class="st2" d="M94.9 3.5h9.8v9.8h-9.8z"/><circle cx="99.8" cy="8.4" r="1.9"/></g><g class="st1"><path class="st2" d="M85.1 179h9.8v9.8h-9.8z"/><path class="st2" d="M85.1 179h9.8v9.8h-9.8z"/><circle cx="90" cy="183.9" r="1.9"/></g><g class="st1"><path class="st2" d="M85.1 169.3h9.8v9.8h-9.8z"/><path class="st2" d="M85.1 169.3h9.8v9.8h-9.8z"/><circle cx="90" cy="174.1" r="1.9"/></g><g class="st1"><path class="st2" d="M85.1 159.5h9.8v9.8h-9.8z"/><path class="st2" d="M85.1 159.5h9.8v9.8h-9.8z"/><circle cx="90" cy="164.4" r="1.9"/></g><g class="st1"><path class="st2" d="M85.1 149.8h9.8v9.8h-9.8z"/><path class="st2" d="M85.1 149.8h9.8v9.8h-9.8z"/><circle cx="90" cy="154.6" r="1.9"/></g><g class="st1"><path class="st2" d="M85.1 140h9.8v9.8h-9.8z"/><path class="st2" d="M85.1 140h9.8v9.8h-9.8z"/><circle cx="90" cy="144.9" r="1.9"/></g><g class="st1"><path class="st2" d="M85.1 130.3h9.8v9.8h-9.8z"/><path class="st2" d="M85.1 130.3h9.8v9.8h-9.8z"/><circle cx="90" cy="135.1" r="1.9"/></g><g class="st1"><path class="st2" d="M85.1 120.5h9.8v9.8h-9.8z"/><path class="st2" d="M85.1 120.5h9.8v9.8h-9.8z"/><circle cx="90" cy="125.4" r="1.9"/></g><g class="st1"><path class="st2" d="M85.1 110.8h9.8v9.8h-9.8z"/><path class="st2" d="M85.1 110.8h9.8v9.8h-9.8z"/><circle cx="90" cy="115.6" r="1.9"/></g><g class="st1"><path class="st2" d="M85.1 101h9.8v9.8h-9.8z"/><path class="st2" d="M85.1 101h9.8v9.8h-9.8z"/><circle cx="90" cy="105.9" r="1.9"/></g><g class="st1"><path class="st2" d="M85.1 91.3h9.8v9.8h-9.8z"/><path class="st2" d="M85.1 91.3h9.8v9.8h-9.8z"/><circle cx="90" cy="96.1" r="1.9"/></g><g class="st1"><path class="st2" d="M85.1 81.5h9.8v9.8h-9.8z"/><path class="st2" d="M85.1 81.5h9.8v9.8h-9.8z"/><circle cx="90" cy="86.4" r="1.9"/></g><g class="st1"><path class="st2" d="M85.1 71.8h9.8v9.8h-9.8z"/><path class="st2" d="M85.1 71.8h9.8v9.8h-9.8z"/><circle cx="90" cy="76.6" r="1.9"/></g><g class="st1"><path class="st2" d="M85.1 62h9.8v9.8h-9.8z"/><path class="st2" d="M85.1 62h9.8v9.8h-9.8z"/><circle cx="90" cy="66.9" r="1.9"/></g><g class="st1"><path class="st2" d="M85.1 52.3h9.8v9.8h-9.8z"/><path class="st2" d="M85.1 52.3h9.8v9.8h-9.8z"/><circle cx="90" cy="57.1" r="1.9"/></g><g class="st1"><path class="st2" d="M85.1 42.5h9.8v9.8h-9.8z"/><path class="st2" d="M85.1 42.5h9.8v9.8h-9.8z"/><circle cx="90" cy="47.4" r="1.9"/></g><g class="st1"><path class="st2" d="M85.1 32.8h9.8v9.8h-9.8z"/><path class="st2" d="M85.1 32.8h9.8v9.8h-9.8z"/><circle cx="90" cy="37.6" r="1.9"/></g><g class="st1"><path class="st2" d="M85.1 23h9.8v9.8h-9.8z"/><path class="st2" d="M85.1 23h9.8v9.8h-9.8z"/><circle cx="90" cy="27.9" r="1.9"/></g><g class="st1"><path class="st2" d="M85.1 13.3h9.8v9.8h-9.8z"/><path class="st2" d="M85.1 13.3h9.8v9.8h-9.8z"/><circle cx="90" cy="18.1" r="1.9"/></g><g class="st1"><path class="st2" d="M85.1 3.5h9.8v9.8h-9.8z"/><path class="st2" d="M85.1 3.5h9.8v9.8h-9.8z"/><circle cx="90" cy="8.4" r="1.9"/></g><g class="st1"><path class="st2" d="M75.4 179h9.8v9.8h-9.8z"/><path class="st2" d="M75.4 179h9.8v9.8h-9.8z"/><circle cx="80.3" cy="183.9" r="1.9"/></g><g class="st1"><path class="st2" d="M75.4 169.3h9.8v9.8h-9.8z"/><path class="st2" d="M75.4 169.3h9.8v9.8h-9.8z"/><circle cx="80.3" cy="174.1" r="1.9"/></g><g class="st1"><path class="st2" d="M75.4 159.5h9.8v9.8h-9.8z"/><path class="st2" d="M75.4 159.5h9.8v9.8h-9.8z"/><circle cx="80.3" cy="164.4" r="1.9"/></g><g class="st1"><path class="st2" d="M75.4 149.8h9.8v9.8h-9.8z"/><path class="st2" d="M75.4 149.8h9.8v9.8h-9.8z"/><circle cx="80.3" cy="154.6" r="1.9"/></g><g class="st1"><path class="st2" d="M75.4 140h9.8v9.8h-9.8z"/><path class="st2" d="M75.4 140h9.8v9.8h-9.8z"/><circle cx="80.3" cy="144.9" r="1.9"/></g><g class="st1"><path class="st2" d="M75.4 130.3h9.8v9.8h-9.8z"/><path class="st2" d="M75.4 130.3h9.8v9.8h-9.8z"/><circle cx="80.3" cy="135.1" r="1.9"/></g><g class="st1"><path class="st2" d="M75.4 120.5h9.8v9.8h-9.8z"/><path class="st2" d="M75.4 120.5h9.8v9.8h-9.8z"/><circle cx="80.3" cy="125.4" r="1.9"/></g><g class="st1"><path class="st2" d="M75.4 110.8h9.8v9.8h-9.8z"/><path class="st2" d="M75.4 110.8h9.8v9.8h-9.8z"/><circle cx="80.3" cy="115.6" r="1.9"/></g><g class="st1"><path class="st2" d="M75.4 101h9.8v9.8h-9.8z"/><path class="st2" d="M75.4 101h9.8v9.8h-9.8z"/><circle cx="80.3" cy="105.9" r="1.9"/></g><g class="st1"><path class="st2" d="M75.4 91.3h9.8v9.8h-9.8z"/><path class="st2" d="M75.4 91.3h9.8v9.8h-9.8z"/><circle cx="80.3" cy="96.1" r="1.9"/></g><g class="st1"><path class="st2" d="M75.4 81.5h9.8v9.8h-9.8z"/><path class="st2" d="M75.4 81.5h9.8v9.8h-9.8z"/><circle cx="80.3" cy="86.4" r="1.9"/></g><g class="st1"><path class="st2" d="M75.4 71.8h9.8v9.8h-9.8z"/><path class="st2" d="M75.4 71.8h9.8v9.8h-9.8z"/><circle cx="80.3" cy="76.6" r="1.9"/></g><g class="st1"><path class="st2" d="M75.4 62h9.8v9.8h-9.8z"/><path class="st2" d="M75.4 62h9.8v9.8h-9.8z"/><circle cx="80.3" cy="66.9" r="1.9"/></g><g class="st1"><path class="st2" d="M75.4 52.3h9.8v9.8h-9.8z"/><path class="st2" d="M75.4 52.3h9.8v9.8h-9.8z"/><circle cx="80.3" cy="57.1" r="1.9"/></g><g class="st1"><path class="st2" d="M75.4 42.5h9.8v9.8h-9.8z"/><path class="st2" d="M75.4 42.5h9.8v9.8h-9.8z"/><circle cx="80.3" cy="47.4" r="1.9"/></g><g class="st1"><path class="st2" d="M75.4 32.8h9.8v9.8h-9.8z"/><path class="st2" d="M75.4 32.8h9.8v9.8h-9.8z"/><circle cx="80.3" cy="37.6" r="1.9"/></g><g class="st1"><path class="st2" d="M75.4 23h9.8v9.8h-9.8z"/><path class="st2" d="M75.4 23h9.8v9.8h-9.8z"/><circle cx="80.3" cy="27.9" r="1.9"/></g><g class="st1"><path class="st2" d="M75.4 13.3h9.8v9.8h-9.8z"/><path class="st2" d="M75.4 13.3h9.8v9.8h-9.8z"/><circle cx="80.3" cy="18.1" r="1.9"/></g><g class="st1"><path class="st2" d="M75.4 3.5h9.8v9.8h-9.8z"/><path class="st2" d="M75.4 3.5h9.8v9.8h-9.8z"/><circle cx="80.3" cy="8.4" r="1.9"/></g></g><path class="st3" d="M278.8 106.3h-73.7c-2.2 0-4-1.8-4-4V78.7c0-2.7 2.2-4.8 4.8-4.8h72c2.7 0 4.8 2.2 4.8 4.8v23.6c.1 2.2-1.7 4-3.9 4z"/><path class="st4" d="M281.7 144.2c-.6 0-1-.4-1-1s.4-1 1-1c4.5 0 11.2-5.4 14-13.5 2.2-6.2 3.6-18.5-11.7-30.8-.4-.3-.5-1-.2-1.4.3-.4 1-.5 1.4-.2 16.3 13.1 14.7 26.3 12.3 33-3.1 9.2-10.6 14.9-15.8 14.9zM202.3 144.2c-5.1 0-12.7-5.7-15.9-14.9-2.4-6.7-3.9-19.9 12.3-33 .4-.3 1.1-.3 1.4.2.3.4.3 1.1-.2 1.4-15.3 12.3-13.9 24.6-11.7 30.8 2.9 8.1 9.6 13.5 14 13.5.6 0 1 .4 1 1s-.4 1-.9 1z"/><path class="st5" d="M282.9 110.9V184h-81.7v-73.1c0-2.7 2.2-4.8 4.8-4.8h72c2.7-.1 4.8 2.1 4.9 4.8z"/><path class="st6" d="M212.7 66.7h17.1c1.6 0 2.8 1.3 2.8 2.8v4.4h-22.7v-4.4c0-1.5 1.2-2.8 2.8-2.8zM274.1 73.9h-22.7v-4.4c0-1.6 1.3-2.8 2.8-2.8h17.1c1.6 0 2.8 1.3 2.8 2.8v4.4z"/><circle class="st4" cx="282.7" cy="97.1" r="2.9"/><circle class="st4" cx="200.3" cy="97.1" r="2.9"/><circle class="st4" cx="226.8" cy="116.8" r="3.1"/><ellipse transform="rotate(-80.781 257.212 116.786)" class="st4" cx="257.2" cy="116.8" rx="3.1" ry="3.1"/><path class="st7" d="M257.9 123.1c0 8.8-7.1 15.8-15.9 15.8-8.7 0-15.8-7.1-15.8-15.8h31.7z"/></svg>
