<svg version="1.1" id="Layer_2" xmlns="http://www.w3.org/2000/svg" x="0" y="0" viewBox="0 0 300 300" xml:space="preserve" enable-background="new 0 0 300 300"><style>.st1{fill-rule:evenodd;clip-rule:evenodd;fill:#fff}.st2{fill:#96aee5}.st11,.st3,.st4,.st5,.st6{fill-rule:evenodd;clip-rule:evenodd;fill:#373f97}.st11,.st4,.st5,.st6{fill:#c9d7f2}.st11,.st5,.st6{fill:#5077ff}.st11,.st6{fill:#d9e2f4}.st11{fill:#2951c1}</style><switch><g><linearGradient id="SVGID_1_" gradientUnits="userSpaceOnUse" x1="221.07" y1="282.315" x2="167.352" y2="218.15"><stop offset="0" stop-color="#fff" stop-opacity="0"/><stop offset=".101" stop-color="#f6f8fc" stop-opacity=".101"/><stop offset=".353" stop-color="#e6ecf8" stop-opacity=".353"/><stop offset=".634" stop-color="#dce4f5" stop-opacity=".634"/><stop offset="1" stop-color="#d9e2f4"/></linearGradient><path fill-rule="evenodd" clip-rule="evenodd" fill="url(#SVGID_1_)" d="M180.81 198.74l-73.33 44.39 98.74 52.2 66.77-47.48z"/><g id="Group-119"><g id="Oval"><ellipse class="st1" cx="149.47" cy="223.25" rx="55.61" ry="29.47"/><path class="st2" d="M149.47 253.51c-31.1 0-56.4-13.58-56.4-30.26s25.3-30.26 56.4-30.26 56.4 13.57 56.4 30.26-25.3 30.26-56.4 30.26zm0-58.93c-30.22 0-54.81 12.86-54.81 28.67s24.59 28.67 54.81 28.67c30.23 0 54.82-12.86 54.82-28.67s-24.6-28.67-54.82-28.67z"/></g><g id="Group-143"><g id="Rectangle"><path class="st3" d="M103.77 187.43h91.21c0 6.82-7.19 20.02-21.57 39.59a15.868 15.868 0 01-12.8 6.48h-22.32c-5.04 0-9.78-2.39-12.77-6.44-14.5-19.6-21.75-32.81-21.75-39.63z"/><path class="st2" d="M160.61 234.3H138.3c-5.27 0-10.28-2.53-13.41-6.76-14.74-19.93-21.91-33.05-21.91-40.11 0-.44.36-.79.79-.79h91.21c.44 0 .79.36.79.79 0 7.06-7.11 20.16-21.73 40.06a16.72 16.72 0 01-13.43 6.81zm-56.01-46.08c.54 6.85 7.78 19.75 21.56 38.37a15.15 15.15 0 0012.13 6.12h22.31c4.79 0 9.33-2.3 12.17-6.16 13.66-18.6 20.85-31.49 21.38-38.33H104.6z"/></g><g id="Path-50"><path class="st1" d="M103.36 184.13V113c0-22.7 15.37-44.78 46.11-66.25 30.74 21.47 46.11 43.55 46.11 66.25v71.13c0 10.34-16.44 28.14-46.11 28.14s-46.11-15.31-46.11-28.14z"/><path class="st2" d="M149.47 213.06c-28.97 0-46.9-15.02-46.9-28.93V113c0-22.86 15.63-45.37 46.45-66.9.27-.19.64-.19.91 0 30.82 21.53 46.45 44.03 46.45 66.9v71.13c-.01 10.1-16.12 28.93-46.91 28.93zm0-165.33C119.4 68.84 104.15 90.8 104.15 113v71.13c0 13.15 17.33 27.34 45.31 27.34 29.75 0 45.31-17.8 45.31-27.34V113c.01-22.2-15.24-44.16-45.3-65.27z"/></g><path class="st4" d="M118.28 155.65v31.86l5.33 3.1v-32.3z" id="Path-67"/><path class="st4" d="M180.81 155.65v31.86l-5.33 3.1v-32.3z"/><g id="Group-118"><circle class="st5" cx="103.64" cy="96.27" r="5.56" transform="translate(45.823 74.648)"/><circle class="st3" cx="103.64" cy="116.93" r="5.56" transform="translate(45.823 74.648)"/></g><g id="Group-117" transform="translate(20.802 38.648)"><g id="Path-66"><path class="st6" d="M174.77 75.87c-13.02 7.07-25.86 13.14-46.11 13.13-20.25-.01-32.93-6.06-46.11-13.13V89c11.05 7.02 28.21 12.09 46.11 12.15s36.96-5.13 46.11-12.64V75.87z"/><path class="st2" d="M128.97 101.95h-.31c-17.12-.06-34.52-4.65-46.53-12.28a.802.802 0 01-.37-.67V75.87c0-.28.15-.54.39-.68.24-.14.54-.15.78-.02 13.29 7.13 25.91 13.03 45.73 13.04h.03c20.08 0 32.57-5.9 45.7-13.03.25-.13.54-.13.79.02.24.14.39.4.39.68v12.64c0 .24-.11.46-.29.61-9.23 7.56-28.23 12.82-46.31 12.82zM83.35 88.56c11.6 7.23 28.91 11.74 45.32 11.8h.3c17.55 0 35.94-5 45.01-12.23V77.2c-12.47 6.71-25.49 12.59-45.29 12.59h-.03c-19.61-.01-32.25-5.65-45.31-12.6v11.37z"/></g><circle class="st1" cx="128.66" cy="93.35" r="23.83"/><path class="st2" d="M128.66 117.97c-13.58 0-24.63-11.05-24.63-24.63s11.05-24.63 24.63-24.63 24.63 11.05 24.63 24.63-11.05 24.63-24.63 24.63zm0-47.66c-12.7 0-23.04 10.34-23.04 23.04s10.34 23.04 23.04 23.04 23.04-10.34 23.04-23.04-10.33-23.04-23.04-23.04z"/><g><circle class="st5" cx="128.66" cy="93.35" r="15.89"/></g></g><path d="M149.38 96.07c14 0 26.54-6.24 34.99-16.1-6.44-9.9-18.08-20.97-34.9-33.21-15.29 10.72-26.97 21.8-35.06 33.24 8.45 9.84 20.98 16.07 34.97 16.07z" fill-rule="evenodd" clip-rule="evenodd" fill="#ebeef7"/><path d="M149.38 96.86c-13.68 0-26.65-5.96-35.57-16.35a.797.797 0 01-.05-.98c8.11-11.46 19.97-22.71 35.25-33.43.28-.2.65-.19.92.01 16.83 12.25 28.64 23.49 35.1 33.42.19.3.17.68-.06.95a46.796 46.796 0 01-35.59 16.38zm-33.96-16.91a45.267 45.267 0 0033.96 15.33c13.04 0 25.39-5.59 34-15.37-6.37-9.56-17.78-20.37-33.92-32.17-14.69 10.36-26.14 21.19-34.04 32.21z" fill="#8fa8e3"/><path class="st6" d="M149.47 69c7.13 0 13.53-3.13 17.9-8.09-3.85-3.62-9.83-8.33-17.92-14.15-8.6 6.13-14.57 10.82-17.93 14.09 4.37 4.99 10.79 8.15 17.95 8.15z"/><path class="st2" d="M149.47 69.79c-7.1 0-13.86-3.07-18.54-8.42-.28-.32-.26-.8.04-1.09 3.37-3.28 9.43-8.04 18.02-14.17.28-.2.65-.2.92 0 8.08 5.81 14.14 10.59 18 14.21.31.29.34.78.05 1.1a24.637 24.637 0 01-18.49 8.37zm-16.84-8.9a23.047 23.047 0 0016.84 7.32c6.36 0 12.43-2.63 16.78-7.25-3.75-3.44-9.4-7.88-16.8-13.22-7.84 5.59-13.48 10.01-16.82 13.15z"/><g id="Path-52" transform="translate(0 57.7)"><g id="Path-51"><path class="st6" d="M103.36 80.73l-28.25 27.95a9.536 9.536 0 00-2.78 5.82l-1.51 14.93a3.164 3.164 0 002.84 3.48c.47.05.94-.01 1.38-.16l28.33-10V80.73z"/><path class="st2" d="M73.97 133.72c-.13 0-.26-.01-.39-.02a3.96 3.96 0 01-2.68-1.44c-.67-.82-.98-1.86-.87-2.91l1.52-14.93a10.34 10.34 0 013.01-6.3l28.25-27.95c.23-.22.57-.29.86-.17.3.12.49.41.49.73v42.01c0 .34-.21.64-.53.75l-28.33 10c-.43.15-.88.23-1.33.23zm28.59-51.08l-26.9 26.61a8.786 8.786 0 00-2.55 5.33l-1.52 14.93c-.06.63.12 1.25.52 1.75a2.399 2.399 0 002.64.75l27.8-9.81V82.64z"/></g><defs><filter id="Adobe_OpacityMaskFilter" filterUnits="userSpaceOnUse" x="92.08" y="78.56" width="11.69" height="49.88"><feColorMatrix values="1 0 0 0 0 0 1 0 0 0 0 0 1 0 0 0 0 0 1 0"/></filter></defs><mask maskUnits="userSpaceOnUse" x="92.08" y="78.56" width="11.69" height="49.88" id="mask-3_1_"><g filter="url(#Adobe_OpacityMaskFilter)"><path id="path-2_1_" class="st1" d="M103.36 80.73l-28.25 27.95a9.536 9.536 0 00-2.78 5.82l-1.51 14.93a3.164 3.164 0 002.84 3.48c.47.05.94-.01 1.38-.16l28.33-10V80.73z"/></g></mask><g id="Path-53" opacity=".2" mask="url(#mask-3_1_)"><path class="st11" d="M92.08 89.27v39.17l11.59-4.37.1-45.51z"/></g></g><g transform="matrix(-1 0 0 1 99.646 57.7)"><path class="st6" d="M-95.93 80.73l-28.25 27.95a9.536 9.536 0 00-2.78 5.82l-1.51 14.93a3.164 3.164 0 002.84 3.48c.47.05.94-.01 1.38-.16l28.33-10V80.73z"/><path class="st2" d="M-125.32 133.72c.45 0 .9-.08 1.33-.22l28.33-10c.32-.11.53-.41.53-.75V80.73c0-.32-.19-.61-.49-.73a.788.788 0 00-.86.17l-28.25 27.95a10.34 10.34 0 00-3.01 6.3l-1.51 14.93c-.11 1.06.2 2.09.87 2.91a3.96 3.96 0 003.06 1.46zm28.6-11.54l-27.8 9.81c-.33.12-.68.16-1.03.12-.63-.07-1.2-.37-1.61-.86-.4-.49-.59-1.11-.52-1.75l1.51-14.93c.2-2.01 1.11-3.91 2.55-5.33l26.9-26.61v39.55z"/><defs><filter id="Adobe_OpacityMaskFilter_1_" filterUnits="userSpaceOnUse"><feColorMatrix values="1 0 0 0 0 0 1 0 0 0 0 0 1 0 0 0 0 0 1 0"/></filter></defs><mask maskUnits="userSpaceOnUse" id="mask-5_1_"><g filter="url(#Adobe_OpacityMaskFilter_1_)"><path id="path-4_1_" class="st1" d="M-95.93 80.73l-28.25 27.95a9.536 9.536 0 00-2.78 5.82l-1.51 14.93a3.164 3.164 0 002.84 3.48c.47.05.94-.01 1.38-.16l28.33-10V80.73z"/></g></mask><g opacity=".2" mask="url(#mask-5_1_)"><path class="st11" d="M-107.2 89.27v39.17l11.59-4.37.09-45.51z"/></g></g></g></g></g></switch></svg>