<svg xmlns="http://www.w3.org/2000/svg" viewBox="0 0 299 299"><defs><mask id="mask" x="50.82" y="58.88" width="128.38" height="206.06" maskUnits="userSpaceOnUse"><g id="mask-3"><path id="path-2" class="cls-1" d="M50.82 58.88l128.38 5V230.1a4.79 4.79 0 01-2.41 3.9l-51.69 29.39a11.83 11.83 0 01-11.73 0l-60.14-34.32a4.64 4.64 0 01-1.7-1.65 4.75 4.75 0 01-.69-2.42z"/></g></mask><mask id="mask-5" x="50.82" y="58.88" width="130.41" height="210.66" maskUnits="userSpaceOnUse"><g id="mask-3-6" data-name="mask-3"><path id="path-2-5" data-name="path-2" class="cls-1" d="M50.82 58.88l128.38 5V230.1a4.79 4.79 0 01-2.41 3.9l-51.69 29.39a11.83 11.83 0 01-11.73 0l-60.14-34.32a4.64 4.64 0 01-1.7-1.65 4.75 4.75 0 01-.69-2.42z"/></g></mask><mask id="mask-6" x="187.55" y="165.35" width="36.58" height="58.55" maskUnits="userSpaceOnUse"><g id="mask-5-2" data-name="mask-5"><path id="path-4" class="cls-1" d="M224.13 180.71l-16.61 43.19-.07-22.84-16.96 9.8 16.86-45.51.07 25.01 16.71-9.65z"/></g></mask><linearGradient id="Безымянный_градиент_7" x1="1.71" y1="297.45" x2="1.2" y2="297.82" gradientTransform="matrix(121.49 0 0 -68.42 20 20608.12)" gradientUnits="userSpaceOnUse"><stop offset="0" stop-color="#fff"/><stop offset=".26" stop-color="#f1f4fb"/><stop offset=".69" stop-color="#dfe7f6"/><stop offset="1" stop-color="#d9e2f4"/></linearGradient><style>.cls-1{fill:#fff}.cls-5{fill:none;stroke:#96aee5;stroke-width:1.09px}.cls-6{mask:url(#mask)}.cls-7{fill:#5077ff}.cls-8{fill:#373f97}.cls-10{fill:#c9d7f2}</style></defs><g id="Слой_2" data-name="Слой 2"><g id="Layer_2" data-name="Layer 2"><path fill="#cdd7ed" d="M119 267l-66-37-3-3V62l69 38.95V267z"/><path fill="none" d="M0 0h299v299H0z"/><g id="UI-Design"><g id="Homepage-UI-Final"><g id="Group-24"><g id="Group-27"><g id="Group-32"><g id="Group-26-Copy-2"><g id="Group-25"><g id="Group-193"><path id="Path-15" fill="url(#Безымянный_градиент_7)" d="M118.81 266.65L177 299l121-72-57.16-28.48-122.03 68.13z"/><g id="Group-127"><g id="Group-126"><g id="Combined-Shape-7"><path class="cls-5" d="M49.72 57.74V225a5.8 5.8 0 00.85 3 5.86 5.86 0 002.1 2l60.64 34.58a13 13 0 0012.32-.26l52-29.62a5.89 5.89 0 002.6-4.61V62.84z"/><g class="cls-6"><g id="Group-123"><g id="Group-124"><path id="Path-76" class="cls-1" d="M105.2 205.53V192a7.51 7.51 0 00-4.72-7 3.42 3.42 0 00-4.71 3.19V200z"/><path id="Path-76-Copy" class="cls-1" d="M88 195.89v-13.52a7.51 7.51 0 00-4.71-7 3.43 3.43 0 00-4.47 1.91 3.46 3.46 0 00-.25 1.27v11.76z"/><path id="Path-76-Copy-2" class="cls-7" d="M70.94 186.24v-13.53a7.53 7.53 0 00-4.72-7 3.45 3.45 0 00-4.47 1.91 3.5 3.5 0 00-.24 1.28v11.76z"/></g></g></g><g class="cls-6"><g id="Group-123-2" data-name="Group-123"><g id="Group-124-2" data-name="Group-124"><path id="Path-76-2" data-name="Path-76" class="cls-8" d="M105.2 241.23V227.7a7.52 7.52 0 00-4.72-7 3.45 3.45 0 00-4.48 1.94 3.5 3.5 0 00-.24 1.28v11.76z"/><path id="Path-76-Copy-2-2" data-name="Path-76-Copy" class="cls-1" d="M88 231.58v-13.52a7.51 7.51 0 00-4.71-7 3.43 3.43 0 00-4.5 1.94 3.47 3.47 0 00-.25 1.28V226z"/><path id="Path-76-Copy-2-3" data-name="Path-76-Copy-2" class="cls-1" d="M70.94 221.93v-13.52a7.51 7.51 0 00-4.72-7 3.43 3.43 0 00-4.47 1.9 3.54 3.54 0 00-.24 1.28v11.76z"/></g></g></g><g class="cls-6"><g id="Group-123-3" data-name="Group-123"><g id="Group-124-3" data-name="Group-124"><path id="Path-76-3" data-name="Path-76" class="cls-7" d="M105.2 171.35v-13.52a7.51 7.51 0 00-4.72-7 3.44 3.44 0 00-4.48 1.94 3.5 3.5 0 00-.24 1.28v11.75z"/><path id="Path-76-Copy-3" data-name="Path-76-Copy" class="cls-1" d="M88 161.71v-13.52a7.51 7.51 0 00-4.71-7 3.43 3.43 0 00-4.47 1.91 3.47 3.47 0 00-.25 1.28v11.75z"/><path id="Path-76-Copy-2-4" data-name="Path-76-Copy-2" class="cls-1" d="M70.94 152.06v-13.52a7.53 7.53 0 00-4.72-7 3.45 3.45 0 00-4.47 1.91 3.5 3.5 0 00-.24 1.28v11.76z"/></g></g></g><g class="cls-6"><g id="Group-123-4" data-name="Group-123"><g id="Group-124-4" data-name="Group-124"><path id="Path-76-4" data-name="Path-76" class="cls-1" d="M105.2 133.42V119.9a7.53 7.53 0 00-4.72-7 3.45 3.45 0 00-4.48 1.93 3.5 3.5 0 00-.24 1.28v11.76z"/><path id="Path-76-Copy-4" data-name="Path-76-Copy" class="cls-1" d="M88 123.77v-13.52a7.51 7.51 0 00-4.71-7 3.43 3.43 0 00-4.47 1.91 3.51 3.51 0 00-.25 1.28v11.76z"/><path id="Path-76-Copy-2-5" data-name="Path-76-Copy-2" class="cls-8" d="M70.94 114.12V100.6a7.51 7.51 0 00-4.72-7 3.43 3.43 0 00-4.47 1.91 3.46 3.46 0 00-.24 1.28v11.75z"/></g></g></g><g mask="url(#mask-5)"><path id="Path-78" class="cls-1" d="M119.14 99.72v169.83l62.09-35.32V60.99l-62.09 38.73z"/></g></g><g id="Group-123-5" data-name="Group-123"><g id="Group-124-5" data-name="Group-124"><path id="Path-76-5" data-name="Path-76" class="cls-10" d="M131.14 208.53V195a7.51 7.51 0 014.72-7 3.44 3.44 0 014.47 1.91 3.47 3.47 0 01.25 1.28V203z"/><path id="Path-76-Copy-5" data-name="Path-76-Copy" class="cls-10" d="M146.71 199.65v-13.52a7.53 7.53 0 014.72-7 3.45 3.45 0 014.47 1.91 3.5 3.5 0 01.24 1.28v11.78z"/><path id="Path-76-Copy-2-6" data-name="Path-76-Copy-2" class="cls-10" d="M162.28 190.74v-13.52a7.51 7.51 0 014.72-7 3.44 3.44 0 014.47 1.91 3.5 3.5 0 01.24 1.28v11.79z"/></g></g><g id="Group-123-6" data-name="Group-123"><g id="Group-124-6" data-name="Group-124"><path id="Path-76-6" data-name="Path-76" class="cls-10" d="M131.14 170.6v-13.53a7.52 7.52 0 014.72-7 3.45 3.45 0 014.47 1.91 3.51 3.51 0 01.25 1.28v11.76z"/><path id="Path-76-Copy-6" data-name="Path-76-Copy" class="cls-10" d="M146.71 161.71v-13.52a7.51 7.51 0 014.72-7 3.43 3.43 0 014.47 1.91 3.46 3.46 0 01.24 1.28v11.75z"/><path id="Path-76-Copy-2-7" data-name="Path-76-Copy-2" class="cls-10" d="M162.28 152.81v-13.52a7.53 7.53 0 014.72-7 3.45 3.45 0 014.47 1.91 3.5 3.5 0 01.24 1.28v11.76z"/></g></g><g id="Group-123-7" data-name="Group-123"><g id="Group-124-7" data-name="Group-124"><path id="Path-76-7" data-name="Path-76" class="cls-10" d="M131.14 132.66v-13.52a7.51 7.51 0 014.72-7 3.43 3.43 0 014.47 1.9 3.55 3.55 0 01.25 1.28v11.76z"/><path id="Path-76-Copy-7" data-name="Path-76-Copy" class="cls-10" d="M146.71 123.77v-13.52a7.51 7.51 0 014.72-7 3.44 3.44 0 014.47 1.91 3.5 3.5 0 01.24 1.28v11.76z"/><path id="Path-76-Copy-2-8" data-name="Path-76-Copy-2" class="cls-10" d="M162.28 114.87v-13.52a7.51 7.51 0 014.72-7 3.42 3.42 0 014.71 3.19v11.75z"/></g></g><path id="Path-74" d="M52.54 54a5.85 5.85 0 00.15 10.07l60.13 34.31a13 13 0 0012.83 0L177.33 69a5.84 5.84 0 000-10.16L115 23.68c-2.19-1.24-4.57-2.11-16 3.55C90.38 31.48 76.32 39.5 52.54 54z" stroke-linecap="round" stroke-linejoin="round" stroke-width="1.09" stroke="#96aee5" fill="#fff"/><g id="Group-115"><path id="Path" class="cls-8" d="M86.99 52.61l42.07 24.02-5.49 3.23-41.71-24.09 5.13-3.16z"/><path id="Path-2-6" data-name="Path" class="cls-8" d="M105.3 41.66l42.08 24.02-5.49 3.24-41.71-24.1 5.12-3.16z"/></g><path id="Path-77" class="cls-5" d="M119.14 99.72v166.22"/></g><g id="Group-110"><g id="Group-109" stroke="#8fa8e3" stroke-linecap="round" stroke-linejoin="round" stroke-width="1.09"><path id="Combined-Shape" d="M202 138a22 22 0 0110.51 2.66h0l.15.09c.64.36 1.27.75 1.87 1.17l8.73 5.42-1.57 2.79A22 22 0 01224 160h0v2.8l.59.89c.38.6.76 1.2 1.11 1.81a44.18 44.18 0 01-16 60.4h0l-42.38 24.64a16.31 16.31 0 01-2.91 1.34l-2.92 5.17-9.7-5.9a16.55 16.55 0 01-9-11.16 31.47 31.47 0 0113.82-33.79h0l6.6-4.17v-17.29a48.73 48.73 0 0130.36-45.14A22 22 0 01202 138z" fill="#d9e2f4"/><path id="Path-35" d="M173.84 208.74l-6.59 4.17a31.47 31.47 0 00-13.82 33.8 16.29 16.29 0 0024.3 10.23l68.54-41.35a31.3 31.3 0 0014.33-33.81 16.38 16.38 0 00-24.47-10.34l-1.56.94h0v-5.66a22 22 0 00-30.36-20.42 48.74 48.74 0 00-30.37 45.14v17.3z" fill="#fff"/></g><g id="Fill-2"><g id="Fill-1"><path id="path-4-2" data-name="path-4" class="cls-7" d="M224.13 180.71l-16.61 43.19-.07-22.84-16.96 9.8 16.86-45.51.07 25.01 16.71-9.65z"/></g><g mask="url(#mask-6)"><path id="Path-38" class="cls-8" d="M207.4 165.35v36.22l-19.85 12.02 19.85-48.24z"/></g></g></g></g></g></g></g></g></g></g></g></g></g></g></svg>