<svg version="1.1" id="Layer_2" xmlns="http://www.w3.org/2000/svg" x="0" y="0" viewBox="0 0 300 300" xml:space="preserve"><style>.st1{fill-rule:evenodd;clip-rule:evenodd;fill:#d9e2f4}.st2{fill:#8fa8e3}</style><switch><g><linearGradient id="SVGID_1_" gradientUnits="userSpaceOnUse" x1="211.129" y1="275.482" x2="159.569" y2="208.829"><stop offset="0" stop-color="#fff" stop-opacity="0"/><stop offset=".325" stop-color="#ecf1fa" stop-opacity=".325"/><stop offset=".689" stop-color="#dee6f5" stop-opacity=".689"/><stop offset="1" stop-color="#d9e2f4"/></linearGradient><path fill-rule="evenodd" clip-rule="evenodd" fill="url(#SVGID_1_)" d="M180.63 202.77l-72.6 41.52 91.52 51 65.97-51.59z"/><g id="Group-106"><g id="Combined-Shape"><path class="st1" d="M173.08 46.5l.11.05c.16.08.31.16.46.26l11.85 6.58-9.22 27.08v115.97c0 4.89-2.56 9.42-6.76 11.94l-46.24 27.76-4.63 13.61-11.94-6.68a5.537 5.537 0 01-2.27-2.11c-.52-.87-.79-1.86-.79-2.87V92.12c0-4.96 2.64-9.54 6.92-12.04l57.35-33.36c1.63-.95 3.56-.97 5.16-.22z"/><path class="st2" d="M118.65 250.71c-.16 0-.33-.04-.48-.12l-11.94-6.68a6.477 6.477 0 01-2.63-2.46 6.526 6.526 0 01-.93-3.37V92.12c0-5.29 2.84-10.22 7.41-12.88l57.35-33.36a6.551 6.551 0 016.07-.27h.01l.11.05c.19.1.38.2.55.31l11.81 6.55c.41.23.6.72.45 1.17l-9.17 26.93v115.81c0 5.2-2.77 10.1-7.23 12.77l-45.94 27.58-4.52 13.27c-.09.27-.3.49-.57.6-.12.04-.23.06-.35.06zm52.06-203.76c-.8 0-1.6.21-2.31.62l-57.35 33.36c-3.97 2.31-6.44 6.6-6.44 11.19v145.96c0 .83.23 1.65.65 2.36.45.75 1.1 1.35 1.88 1.74l10.96 6.13 4.25-12.5c.07-.22.22-.41.42-.52l46.24-27.76c3.88-2.33 6.28-6.58 6.28-11.1V80.46c0-.11.02-.21.05-.31l8.96-26.31-11.14-6.18c-.16-.1-.29-.17-.42-.24l.33-.93-.42.88a4.64 4.64 0 00-1.94-.42z"/></g><g id="Path-32"><path d="M116.14 245.06V99.1c0-4.96 2.64-9.54 6.92-12.04l57.35-33.36a5.566 5.566 0 017.61 2.01c.49.85.76 1.82.76 2.8V203.4c0 4.89-2.56 9.42-6.76 11.94l-57.45 34.49a5.567 5.567 0 01-7.64-1.91 5.62 5.62 0 01-.79-2.86z" fill-rule="evenodd" clip-rule="evenodd" fill="#fff"/><path class="st2" d="M121.72 251.6c-2.22 0-4.4-1.13-5.62-3.17a6.579 6.579 0 01-.93-3.37V99.1c0-5.29 2.84-10.22 7.41-12.88l57.35-33.36a6.56 6.56 0 018.95 2.37c.58 1 .89 2.14.89 3.29v144.89c0 5.2-2.77 10.09-7.23 12.77l-57.45 34.49a6.57 6.57 0 01-3.37.93zm61.49-197.67c-.78 0-1.58.2-2.3.62l-57.35 33.36c-3.97 2.31-6.44 6.6-6.44 11.19v145.96c0 .83.23 1.65.66 2.37 1.31 2.17 4.13 2.88 6.3 1.57l57.45-34.49c3.88-2.33 6.28-6.58 6.28-11.1V58.52c0-.81-.21-1.61-.62-2.31a4.608 4.608 0 00-3.98-2.28z"/></g><g id="Group-105" transform="translate(9.212 7.977)"><path d="M167.71 86.2v38.75a2.787 2.787 0 004.19 2.4l31.72-18.67c1.7-1 2.74-2.83 2.74-4.8v-38.8a2.78 2.78 0 00-4.2-2.39L170.45 81.4a5.603 5.603 0 00-2.74 4.8z" fill-rule="evenodd" clip-rule="evenodd" fill="#5077ff" id="Path-28-Copy"/><path class="st1" d="M120.08 115.24v38.75a2.787 2.787 0 004.19 2.4l31.72-18.67c1.7-1 2.74-2.83 2.74-4.8v-38.8a2.78 2.78 0 00-4.2-2.39l-31.72 18.72a5.553 5.553 0 00-2.73 4.79z" id="Path-28-Copy-3"/></g><g id="Group-104" transform="translate(10.541 40.004)"><path fill-rule="evenodd" clip-rule="evenodd" fill="#373f97" d="M161.39 117.36v7.47l-38.94 22.89.12-7.53z" id="Path-25"/><path class="st1" d="M161.39 136.85v7.47l-38.94 22.89.12-7.53z"/></g><path class="st2" d="M116.14 236.37c-.18 0-.37-.05-.53-.15l-12.5-8.04a.98.98 0 01-.29-1.35.97.97 0 011.35-.29l12 7.72 72.13-42.14a.975.975 0 011.33.35c.27.46.11 1.06-.35 1.33l-72.64 42.45c-.16.08-.33.12-.5.12z" id="Path-30"/><path class="st2" d="M116.14 108.76c-.16 0-.33-.04-.48-.13l-12.5-7.02a.97.97 0 01-.37-1.33.97.97 0 011.33-.37l12.02 6.75 72.16-42.29a.968.968 0 011.33.35c.27.46.12 1.06-.35 1.33l-72.64 42.57c-.16.09-.33.14-.5.14z" id="Path-31"/></g></g></switch></svg>